SplineFontDB: 3.0
FontName: MedulaOne-Regular
FullName: Medula One
FamilyName: Medula One
Weight: Book
Copyright: Copyright (c) 2011 by LatinoType Limitada (luciano@latinotype.com), with Reserved Font Names "Medula"
Version: 1.002
ItalicAngle: 0
UnderlinePosition: -50
UnderlineWidth: 50
Ascent: 800
Descent: 200
sfntRevision: 0x00010083
LayerCount: 2
Layer: 0 1 "Back"  1
Layer: 1 1 "Fore"  0
XUID: [1021 113 1549225398 3107133]
FSType: 0
OS2Version: 2
OS2_WeightWidthSlopeOnly: 0
OS2_UseTypoMetrics: 1
CreationTime: 1326410109
ModificationTime: 1326407125
PfmFamily: 17
TTFWeight: 400
TTFWidth: 5
LineGap: 0
VLineGap: 0
Panose: 2 0 0 0 0 0 0 0 0 0
OS2TypoAscent: 46
OS2TypoAOffset: 1
OS2TypoDescent: 38
OS2TypoDOffset: 1
OS2TypoLinegap: 0
OS2WinAscent: 0
OS2WinAOffset: 1
OS2WinDescent: 0
OS2WinDOffset: 1
HheadAscent: 0
HheadAOffset: 1
HheadDescent: 0
HheadDOffset: 1
OS2SubXSize: 700
OS2SubYSize: 650
OS2SubXOff: 0
OS2SubYOff: 140
OS2SupXSize: 700
OS2SupYSize: 650
OS2SupXOff: 0
OS2SupYOff: 477
OS2StrikeYSize: 50
OS2StrikeYPos: 250
OS2Vendor: 'pyrs'
OS2CodePages: 00000001.00000000
OS2UnicodeRanges: 8000002f.4000004a.00000000.00000000
Lookup: 258 0 0 "'kern' Horizontal Kerning in Latin lookup 0"  {"'kern' Horizontal Kerning in Latin lookup 0 subtable"  } ['kern' ('DFLT' <'dflt' > 'latn' <'dflt' > ) ]
DEI: 91125
TtTable: prep
PUSHW_1
 511
SCANCTRL
PUSHB_1
 4
SCANTYPE
EndTTInstrs
ShortTable: maxp 16
  1
  0
  230
  97
  7
  0
  0
  2
  0
  1
  1
  0
  64
  0
  0
  0
EndShort
LangName: 1033 "" "" "" "LucianoVergara: Medula One: 2011" "" "Version 1.002" "" "Medula is a trademark of LatinoType Limitada." "Luciano Vergara" "Luciano Vergara" "" "www.latinotype.com" "www.latinotype.com" "This Font Software is licensed under the SIL Open Font License, Version 1.1. This license is available with a FAQ at: http://scripts.sil.org/OFL" "http://scripts.sil.org/OFL" 
GaspTable: 1 65535 15 1
Encoding: UnicodeBmp
UnicodeInterp: none
NameList: Adobe Glyph List
DisplaySize: -24
AntiAlias: 1

StartChar: exclam
Encoding: 33 33 4
Width: 148
GlyphClass: 2
Flags: W
LayerCount: 2
Fore
SplineSet
98 655 m 0,0,1
 114 655 114 655 114 638 c 2,2,-1
 104 250 l 1,3,-1
 108 156 l 1,4,5
 94 151 94 151 61 151 c 0,6,7
 45 151 45 151 45 168 c 2,8,-1
 35 556 l 1,9,-1
 31 650 l 1,10,11
 65 655 65 655 98 655 c 0,0,1
34 41 m 128,-1,13
 34 92 34 92 76 92 c 128,-1,14
 118 92 118 92 118 41 c 128,-1,15
 118 -10 118 -10 76 -10 c 128,-1,12
 34 -10 34 -10 34 41 c 128,-1,13
EndSplineSet
EndChar

StartChar: quotedbl
Encoding: 34 34 5
Width: 251
GlyphClass: 2
Flags: W
LayerCount: 2
Fore
SplineSet
119 642 m 0,0,1
 119 604 119 604 96.5 564.5 c 128,-1,2
 74 525 74 525 48 525 c 0,3,4
 32 525 32 525 20 529 c 1,5,6
 33 563 33 563 33 645 c 0,7,8
 33 697 33 697 76 697 c 128,-1,9
 119 697 119 697 119 642 c 0,0,1
236 642 m 0,10,11
 236 604 236 604 213.5 564.5 c 128,-1,12
 191 525 191 525 165 525 c 0,13,14
 149 525 149 525 137 529 c 1,15,16
 150 563 150 563 150 645 c 0,17,18
 150 697 150 697 193 697 c 128,-1,19
 236 697 236 697 236 642 c 0,10,11
EndSplineSet
EndChar

StartChar: numbersign
Encoding: 35 35 6
Width: 446
GlyphClass: 2
Flags: W
LayerCount: 2
Fore
SplineSet
116 391 m 2,0,1
 91 391 91 391 66 386 c 1,2,3
 59 412 59 412 59 431.5 c 128,-1,4
 59 451 59 451 72 451 c 2,5,-1
 146 451 l 1,6,-1
 182 583 l 1,7,-1
 194 644 l 1,8,9
 230 660 230 660 250 660 c 128,-1,10
 270 660 270 660 266 645 c 2,11,-1
 213 451 l 1,12,-1
 293 451 l 1,13,-1
 329 583 l 1,14,-1
 341 644 l 1,15,16
 377 660 377 660 392 660 c 0,17,18
 417 660 417 660 413 645 c 2,19,-1
 360 451 l 1,20,-1
 375 451 l 1,21,-1
 427 456 l 1,22,23
 432 430 432 430 432 410.5 c 128,-1,24
 432 391 432 391 419 391 c 2,25,-1
 344 391 l 1,26,-1
 317 290 l 1,27,-1
 332 290 l 1,28,-1
 384 295 l 1,29,30
 389 269 389 269 389 249.5 c 128,-1,31
 389 230 389 230 376 230 c 2,32,-1
 301 230 l 1,33,-1
 258 67 l 1,34,-1
 247 6 l 1,35,36
 209 -10 209 -10 196 -10 c 0,37,38
 170 -10 170 -10 174 5 c 2,39,-1
 234 230 l 1,40,-1
 154 230 l 1,41,-1
 111 67 l 1,42,-1
 100 6 l 1,43,44
 62 -10 62 -10 48 -10 c 0,45,46
 23 -10 23 -10 27 5 c 2,47,-1
 87 230 l 1,48,-1
 73 230 l 2,49,50
 40 230 40 230 23 225 c 1,51,52
 16 251 16 251 16 270.5 c 128,-1,53
 16 290 16 290 29 290 c 2,54,-1
 103 290 l 1,55,-1
 130 391 l 1,56,-1
 116 391 l 2,0,1
197 391 m 1,57,-1
 170 290 l 1,58,-1
 250 290 l 1,59,-1
 277 391 l 1,60,-1
 197 391 l 1,57,-1
EndSplineSet
EndChar

StartChar: dollar
Encoding: 36 36 7
Width: 304
GlyphClass: 2
Flags: W
LayerCount: 2
Fore
SplineSet
187 -54 m 2,0,1
 187 -77 187 -77 196 -115 c 1,2,3
 166 -131 166 -131 142 -131 c 128,-1,4
 118 -131 118 -131 118 -116 c 2,5,-1
 118 -7 l 1,6,7
 75 -1 75 -1 49.5 23 c 128,-1,8
 24 47 24 47 24 82 c 2,9,-1
 24 206 l 2,10,11
 24 224 24 224 50 231 c 0,12,13
 64 235 64 235 78 235 c 128,-1,14
 92 235 92 235 106 232 c 1,15,16
 103 208 103 208 103 181 c 2,17,-1
 103 96 l 2,18,19
 103 78 103 78 117 67 c 128,-1,20
 131 56 131 56 152 56 c 128,-1,21
 173 56 173 56 186.5 67 c 128,-1,22
 200 78 200 78 200 96 c 2,23,-1
 200 209 l 2,24,25
 200 248 200 248 173 265 c 2,26,-1
 67 334 l 2,27,28
 26 360 26 360 26 419 c 2,29,-1
 26 554 l 2,30,31
 26 596 26 596 50.5 622.5 c 128,-1,32
 75 649 75 649 118 657 c 1,33,-1
 118 704 l 2,34,35
 118 734 118 734 109 765 c 1,36,37
 139 781 139 781 163 781 c 128,-1,38
 187 781 187 781 187 766 c 2,39,-1
 187 657 l 1,40,41
 229 649 229 649 253 625.5 c 128,-1,42
 277 602 277 602 277 568 c 2,43,-1
 277 444 l 2,44,45
 277 426 277 426 251 419 c 0,46,47
 237 415 237 415 223 415 c 128,-1,48
 209 415 209 415 195 418 c 1,49,50
 198 442 198 442 198 469 c 2,51,-1
 198 554 l 2,52,53
 198 573 198 573 185 583.5 c 128,-1,54
 172 594 172 594 151 594 c 128,-1,55
 130 594 130 594 117.5 583.5 c 128,-1,56
 105 573 105 573 105 554 c 2,57,-1
 105 437 l 2,58,59
 105 402 105 402 128 388 c 2,60,-1
 234 320 l 2,61,62
 279 292 279 292 279 234 c 2,63,-1
 279 96 l 2,64,65
 279 54 279 54 254.5 28 c 128,-1,66
 230 2 230 2 187 -6 c 1,67,-1
 187 -54 l 2,0,1
EndSplineSet
EndChar

StartChar: percent
Encoding: 37 37 8
Width: 473
GlyphClass: 2
Flags: W
LayerCount: 2
Fore
SplineSet
28 426 m 2,0,-1
 28 578 l 2,1,2
 28 617 28 617 52 638.5 c 128,-1,3
 76 660 76 660 117 660 c 128,-1,4
 158 660 158 660 180.5 640 c 128,-1,5
 203 620 203 620 203 581 c 2,6,-1
 203 429 l 2,7,8
 203 390 203 390 178.5 368.5 c 128,-1,9
 154 347 154 347 113.5 347 c 128,-1,10
 73 347 73 347 50.5 367 c 128,-1,11
 28 387 28 387 28 426 c 2,0,-1
86 581 m 2,12,-1
 86 426 l 2,13,14
 86 412 86 412 94 403.5 c 128,-1,15
 102 395 102 395 115 395 c 128,-1,16
 128 395 128 395 136.5 404 c 128,-1,17
 145 413 145 413 145 426 c 2,18,-1
 145 581 l 2,19,20
 145 594 145 594 136.5 603 c 128,-1,21
 128 612 128 612 115 612 c 128,-1,22
 102 612 102 612 94 603.5 c 128,-1,23
 86 595 86 595 86 581 c 2,12,-1
270 69 m 2,24,-1
 270 221 l 2,25,26
 270 260 270 260 294 281.5 c 128,-1,27
 318 303 318 303 359 303 c 128,-1,28
 400 303 400 303 422.5 283 c 128,-1,29
 445 263 445 263 445 224 c 2,30,-1
 445 72 l 2,31,32
 445 34 445 34 420.5 12 c 128,-1,33
 396 -10 396 -10 355.5 -10 c 128,-1,34
 315 -10 315 -10 292.5 10 c 128,-1,35
 270 30 270 30 270 69 c 2,24,-1
328 224 m 2,36,-1
 328 69 l 2,37,38
 328 55 328 55 336 46.5 c 128,-1,39
 344 38 344 38 357 38 c 128,-1,40
 370 38 370 38 378.5 47 c 128,-1,41
 387 56 387 56 387 69 c 2,42,-1
 387 224 l 2,43,44
 387 237 387 237 378.5 246 c 128,-1,45
 370 255 370 255 357 255 c 128,-1,46
 344 255 344 255 336 246.5 c 128,-1,47
 328 238 328 238 328 224 c 2,36,-1
442 650 m 0,48,49
 455 650 455 650 455 642 c 0,50,51
 455 639 455 639 453 635 c 2,52,-1
 132 77 l 2,53,54
 117 50 117 50 106 16 c 1,55,56
 64 0 64 0 41 0 c 128,-1,57
 18 0 18 0 18 7 c 0,58,59
 18 10 18 10 21 15 c 2,60,-1
 342 573 l 2,61,62
 360 604 360 604 369 634 c 1,63,64
 409 650 409 650 442 650 c 0,48,49
EndSplineSet
EndChar

StartChar: ampersand
Encoding: 38 38 9
Width: 375
GlyphClass: 2
Flags: W
LayerCount: 2
Fore
SplineSet
360 5 m 0,0,1
 360 -10 360 -10 341 -10 c 0,2,3
 261 -10 261 -10 234 13 c 1,4,5
 202 -10 202 -10 152 -10 c 128,-1,6
 102 -10 102 -10 68 18 c 128,-1,7
 34 46 34 46 34 96 c 2,8,-1
 34 224 l 2,9,10
 34 269 34 269 63 293 c 1,11,12
 34 317 34 317 34 362 c 2,13,-1
 34 554 l 2,14,15
 34 604 34 604 68 632 c 128,-1,16
 102 660 102 660 158.5 660 c 128,-1,17
 215 660 215 660 248 634.5 c 128,-1,18
 281 609 281 609 281 568 c 2,19,-1
 281 494 l 2,20,21
 281 476 281 476 255 469 c 0,22,23
 241 465 241 465 227 465 c 128,-1,24
 213 465 213 465 199 468 c 1,25,26
 202 492 202 492 202 519 c 2,27,-1
 202 554 l 2,28,29
 202 594 202 594 158 594 c 0,30,31
 137 594 137 594 125 583.5 c 128,-1,32
 113 573 113 573 113 554 c 2,33,-1
 113 366 l 2,34,35
 113 348 113 348 124.5 337 c 128,-1,36
 136 326 136 326 155 326 c 2,37,-1
 208 326 l 1,38,-1
 218 381 l 2,39,40
 220 395 220 395 235 401.5 c 128,-1,41
 250 408 250 408 261.5 408 c 128,-1,42
 273 408 273 408 281 407 c 1,43,-1
 281 326 l 1,44,-1
 298 326 l 1,45,-1
 350 331 l 1,46,47
 355 305 355 305 355 285.5 c 128,-1,48
 355 266 355 266 342 266 c 2,49,-1
 281 266 l 1,50,-1
 281 96 l 2,51,52
 281 72 281 72 298.5 62.5 c 128,-1,53
 316 53 316 53 330.5 53 c 128,-1,54
 345 53 345 53 355 55 c 1,55,56
 360 29 360 29 360 5 c 0,0,1
206 92 m 2,57,-1
 206 260 l 1,58,-1
 159 260 l 2,59,60
 138 260 138 260 125.5 249 c 128,-1,61
 113 238 113 238 113 220 c 2,62,-1
 113 96 l 2,63,64
 113 77 113 77 125.5 66.5 c 128,-1,65
 138 56 138 56 158.5 56 c 128,-1,66
 179 56 179 56 192.5 65.5 c 128,-1,67
 206 75 206 75 206 92 c 2,57,-1
EndSplineSet
EndChar

StartChar: quotesingle
Encoding: 39 39 10
Width: 135
GlyphClass: 2
Flags: W
LayerCount: 2
Fore
SplineSet
119 642 m 0,0,1
 119 604 119 604 96.5 564.5 c 128,-1,2
 74 525 74 525 48 525 c 0,3,4
 32 525 32 525 20 529 c 1,5,6
 33 563 33 563 33 645 c 0,7,8
 33 697 33 697 76 697 c 128,-1,9
 119 697 119 697 119 642 c 0,0,1
EndSplineSet
EndChar

StartChar: parenleft
Encoding: 40 40 11
Width: 181
GlyphClass: 2
Flags: W
LayerCount: 2
Fore
SplineSet
168 650 m 0,0,1
 168 635 168 635 152.5 635 c 128,-1,2
 137 635 137 635 124 623.5 c 128,-1,3
 111 612 111 612 111 595 c 2,4,-1
 111 -50 l 2,5,6
 111 -67 111 -67 126 -78.5 c 128,-1,7
 141 -90 141 -90 161 -90 c 1,8,9
 168 -112 168 -112 168 -132 c 128,-1,10
 168 -152 168 -152 155 -152 c 0,11,12
 105 -152 105 -152 70.5 -125 c 128,-1,13
 36 -98 36 -98 36 -50 c 2,14,-1
 36 591 l 2,15,16
 36 641 36 641 70.5 669 c 128,-1,17
 105 697 105 697 161 697 c 1,18,19
 168 675 168 675 168 650 c 0,0,1
EndSplineSet
EndChar

StartChar: parenright
Encoding: 41 41 12
Width: 181
GlyphClass: 2
Flags: W
LayerCount: 2
Fore
SplineSet
13 -137 m 0,0,1
 13 -111 13 -111 20 -90 c 1,2,3
 40 -90 40 -90 55 -78.5 c 128,-1,4
 70 -67 70 -67 70 -50 c 2,5,-1
 70 595 l 2,6,7
 70 612 70 612 57 623.5 c 128,-1,8
 44 635 44 635 28.5 635 c 128,-1,9
 13 635 13 635 13 650 c 0,10,11
 13 676 13 676 20 697 c 1,12,13
 76 697 76 697 110.5 669 c 128,-1,14
 145 641 145 641 145 591 c 2,15,-1
 145 -50 l 2,16,17
 145 -98 145 -98 110.5 -125 c 128,-1,18
 76 -152 76 -152 26 -152 c 0,19,20
 13 -152 13 -152 13 -137 c 0,0,1
EndSplineSet
EndChar

StartChar: asterisk
Encoding: 42 42 13
Width: 361
GlyphClass: 2
Flags: W
LayerCount: 2
Fore
SplineSet
143 646 m 1,0,1
 166 660 166 660 188 660 c 128,-1,2
 210 660 210 660 210 647 c 2,3,-1
 208 532 l 1,4,-1
 260 565 l 1,5,6
 287 584 287 584 301 598 c 1,7,8
 324 584 324 584 337 562 c 0,9,10
 341 555 341 555 341 549 c 128,-1,11
 341 543 341 543 335 540 c 2,12,-1
 233 485 l 1,13,-1
 288 456 l 2,14,15
 310 444 310 444 338 438 c 1,16,17
 336 407 336 407 326 389.5 c 128,-1,18
 316 372 316 372 304 379 c 2,19,-1
 207 438 l 1,20,-1
 210 378 l 1,21,-1
 217 326 l 1,22,23
 191 312 191 312 171 312 c 128,-1,24
 151 312 151 312 151 325 c 2,25,-1
 154 440 l 1,26,-1
 101 406 l 1,27,-1
 59 374 l 1,28,29
 35 390 35 390 27 403 c 128,-1,30
 19 416 19 416 19 421.5 c 128,-1,31
 19 427 19 427 26 431 c 2,32,-1
 126 485 l 1,33,-1
 71 514 l 1,34,-1
 22 534 l 1,35,36
 24 562 24 562 36 585 c 1,37,38
 45 599 45 599 55 592 c 2,39,-1
 154 531 l 1,40,-1
 151 595 l 1,41,-1
 143 646 l 1,0,1
EndSplineSet
EndChar

StartChar: plus
Encoding: 43 43 14
Width: 278
GlyphClass: 2
Flags: W
LayerCount: 2
Fore
SplineSet
76 276 m 2,0,1
 43 276 43 276 26 271 c 1,2,3
 19 295 19 295 19 314.5 c 128,-1,4
 19 334 19 334 32 334 c 2,5,-1
 107 334 l 1,6,-1
 107 376 l 1,7,-1
 102 428 l 1,8,9
 132 433 132 433 151.5 433 c 128,-1,10
 171 433 171 433 171 420 c 2,11,-1
 171 334 l 1,12,-1
 202 334 l 1,13,-1
 254 339 l 1,14,15
 259 315 259 315 259 295.5 c 128,-1,16
 259 276 259 276 246 276 c 2,17,-1
 171 276 l 1,18,-1
 171 234 l 2,19,20
 171 209 171 209 176 184 c 1,21,22
 146 177 146 177 126.5 177 c 128,-1,23
 107 177 107 177 107 190 c 2,24,-1
 107 276 l 1,25,-1
 76 276 l 2,0,1
EndSplineSet
EndChar

StartChar: comma
Encoding: 44 44 15
Width: 137
GlyphClass: 2
Flags: W
LayerCount: 2
Fore
SplineSet
115 44 m 0,0,1
 115 0 115 0 95 -33 c 128,-1,2
 75 -66 75 -66 48 -66 c 0,3,4
 -8 -66 -8 -66 -6 -24 c 1,5,6
 29 -24 29 -24 29 47 c 0,7,8
 29 104 29 104 72 104 c 128,-1,9
 115 104 115 104 115 44 c 0,0,1
EndSplineSet
EndChar

StartChar: hyphen
Encoding: 45 45 16
Width: 268
GlyphClass: 2
Flags: W
LayerCount: 2
Fore
SplineSet
87 274 m 2,0,1
 54 274 54 274 37 269 c 1,2,3
 30 295 30 295 30 314.5 c 128,-1,4
 30 334 30 334 43 334 c 2,5,-1
 181 334 l 1,6,-1
 233 339 l 1,7,8
 238 313 238 313 238 293.5 c 128,-1,9
 238 274 238 274 225 274 c 2,10,-1
 87 274 l 2,0,1
EndSplineSet
EndChar

StartChar: period
Encoding: 46 46 17
Width: 132
GlyphClass: 2
Flags: W
LayerCount: 2
Fore
SplineSet
23 47 m 128,-1,1
 23 104 23 104 66 104 c 128,-1,2
 109 104 109 104 109 47 c 128,-1,3
 109 -10 109 -10 66 -10 c 128,-1,0
 23 -10 23 -10 23 47 c 128,-1,1
EndSplineSet
EndChar

StartChar: slash
Encoding: 47 47 18
Width: 456
GlyphClass: 2
Flags: W
LayerCount: 2
Fore
SplineSet
432 697 m 0,0,1
 447 697 447 697 447 689 c 0,2,3
 447 686 447 686 445 682 c 2,4,-1
 112 -75 l 2,5,6
 98 -107 98 -107 95 -136 c 1,7,8
 57 -152 57 -152 33 -152 c 128,-1,9
 9 -152 9 -152 9 -143 c 0,10,11
 9 -140 9 -140 10 -137 c 2,12,-1
 343 620 l 2,13,14
 355 649 355 649 361 681 c 1,15,16
 397 697 397 697 432 697 c 0,0,1
EndSplineSet
EndChar

StartChar: zero
Encoding: 48 48 19
Width: 299
GlyphClass: 2
Flags: W
LayerCount: 2
Fore
SplineSet
36 92 m 2,0,-1
 36 554 l 2,1,2
 36 604 36 604 67 632 c 128,-1,3
 98 660 98 660 151 660 c 128,-1,4
 204 660 204 660 233.5 634 c 128,-1,5
 263 608 263 608 263 558 c 2,6,-1
 263 96 l 2,7,8
 263 46 263 46 231.5 18 c 128,-1,9
 200 -10 200 -10 147 -10 c 128,-1,10
 94 -10 94 -10 65 16 c 128,-1,11
 36 42 36 42 36 92 c 2,0,-1
111 558 m 2,12,-1
 111 92 l 2,13,14
 111 75 111 75 122 63.5 c 128,-1,15
 133 52 133 52 149.5 52 c 128,-1,16
 166 52 166 52 177 63.5 c 128,-1,17
 188 75 188 75 188 92 c 2,18,-1
 188 558 l 2,19,20
 188 575 188 575 177 586.5 c 128,-1,21
 166 598 166 598 149.5 598 c 128,-1,22
 133 598 133 598 122 586.5 c 128,-1,23
 111 575 111 575 111 558 c 2,12,-1
EndSplineSet
EndChar

StartChar: one
Encoding: 49 49 20
Width: 259
GlyphClass: 2
Flags: W
LayerCount: 2
Fore
SplineSet
163 653 m 0,0,1
 193 653 193 653 193 632 c 2,2,-1
 193 60 l 1,3,-1
 194 60 l 1,4,-1
 246 65 l 1,5,6
 251 39 251 39 251 19.5 c 128,-1,7
 251 0 251 0 238 0 c 2,8,-1
 78 0 l 1,9,-1
 26 -5 l 1,10,11
 21 21 21 21 21 40.5 c 128,-1,12
 21 60 21 60 34 60 c 2,13,-1
 118 60 l 1,14,-1
 118 580 l 1,15,-1
 90 575 l 2,16,17
 55 569 55 569 33 554 c 1,18,19
 19 570 19 570 14 601 c 0,20,21
 14 604 14 604 14 606 c 0,22,23
 14 617 14 617 26 620 c 2,24,-1
 153 652 l 2,25,26
 158 653 158 653 163 653 c 0,0,1
EndSplineSet
EndChar

StartChar: two
Encoding: 50 50 21
Width: 287
GlyphClass: 2
Flags: W
LayerCount: 2
Fore
SplineSet
108 60 m 1,0,-1
 212 60 l 1,1,-1
 264 65 l 1,2,3
 269 39 269 39 269 19.5 c 128,-1,4
 269 0 269 0 256 0 c 2,5,-1
 55 0 l 2,6,7
 42 0 42 0 32 10.5 c 128,-1,8
 22 21 22 21 22 59.5 c 128,-1,9
 22 98 22 98 39 150.5 c 128,-1,10
 56 203 56 203 80 247.5 c 128,-1,11
 104 292 104 292 128 338 c 0,12,13
 186 447 186 447 186 555 c 0,14,15
 186 596 186 596 144 596 c 0,16,17
 124 596 124 596 113 585.5 c 128,-1,18
 102 575 102 575 102 556 c 2,19,-1
 102 509 l 1,20,-1
 105 458 l 1,21,22
 92 455 92 455 78.5 455 c 128,-1,23
 65 455 65 455 52 459 c 0,24,25
 27 466 27 466 27 484 c 2,26,-1
 27 566 l 2,27,28
 27 609 27 609 58 634.5 c 128,-1,29
 89 660 89 660 142 660 c 0,30,31
 262 660 262 660 262 572 c 0,32,33
 262 443 262 443 208 334 c 0,34,35
 185 289 185 289 162 248 c 0,36,37
 108 147 108 147 108 60 c 1,0,-1
EndSplineSet
EndChar

StartChar: three
Encoding: 51 51 22
Width: 287
GlyphClass: 2
Flags: W
LayerCount: 2
Fore
SplineSet
137 279 m 2,0,-1
 87 279 l 2,1,2
 74 279 74 279 74 293 c 0,3,4
 74 314 74 314 81 347 c 1,5,6
 97 342 97 342 130 342 c 2,7,-1
 143 342 l 2,8,9
 160 342 160 342 170 353 c 128,-1,10
 180 364 180 364 180 382 c 2,11,-1
 180 555 l 2,12,13
 180 596 180 596 140.5 596 c 128,-1,14
 101 596 101 596 101 556 c 2,15,-1
 101 509 l 1,16,-1
 104 458 l 1,17,18
 91 455 91 455 77.5 455 c 128,-1,19
 64 455 64 455 51 459 c 0,20,21
 26 466 26 466 26 484 c 2,22,-1
 26 566 l 2,23,24
 26 610 26 610 54.5 635 c 128,-1,25
 83 660 83 660 135 660 c 0,26,27
 253 660 253 660 253 572 c 2,28,-1
 253 380 l 2,29,30
 253 335 253 335 226 311 c 1,31,32
 253 287 253 287 253 242 c 2,33,-1
 253 96 l 2,34,35
 253 46 253 46 222 18 c 128,-1,36
 191 -10 191 -10 139.5 -10 c 128,-1,37
 88 -10 88 -10 57 16.5 c 128,-1,38
 26 43 26 43 26 84 c 2,39,-1
 26 146 l 2,40,41
 26 164 26 164 50 171 c 0,42,43
 64 175 64 175 77 175 c 128,-1,44
 90 175 90 175 103 172 c 1,45,46
 101 148 101 148 101 121 c 2,47,-1
 101 92 l 2,48,49
 101 74 101 74 112 63 c 128,-1,50
 123 52 123 52 139.5 52 c 128,-1,51
 156 52 156 52 167 63 c 128,-1,52
 178 74 178 74 178 92 c 2,53,-1
 178 239 l 2,54,55
 178 258 178 258 167 268.5 c 128,-1,56
 156 279 156 279 137 279 c 2,0,-1
EndSplineSet
EndChar

StartChar: four
Encoding: 52 52 23
Width: 318
GlyphClass: 2
Flags: W
LayerCount: 2
Fore
SplineSet
196 568 m 2,0,1
 196 606 196 606 189 650 c 1,2,3
 219 654 219 654 254 654 c 0,4,5
 271 654 271 654 271 639 c 2,6,-1
 271 83 l 2,7,8
 271 62 271 62 278.5 53 c 128,-1,9
 286 44 286 44 307 44 c 1,10,11
 308 18 308 18 293.5 4 c 128,-1,12
 279 -10 279 -10 251 -10 c 128,-1,13
 223 -10 223 -10 209.5 7 c 128,-1,14
 196 24 196 24 196 63 c 2,15,-1
 196 242 l 1,16,-1
 44 242 l 1,17,-1
 44 567 l 2,18,19
 44 588 44 588 36.5 597 c 128,-1,20
 29 606 29 606 8 606 c 1,21,22
 7 631 7 631 22.5 645.5 c 128,-1,23
 38 660 38 660 66 660 c 128,-1,24
 94 660 94 660 106.5 644 c 128,-1,25
 119 628 119 628 119 591 c 2,26,-1
 119 302 l 1,27,-1
 196 302 l 1,28,-1
 196 568 l 2,0,1
EndSplineSet
EndChar

StartChar: five
Encoding: 53 53 24
Width: 280
GlyphClass: 2
Flags: W
LayerCount: 2
Fore
SplineSet
112 384 m 1,0,-1
 141 384 l 2,1,2
 194 384 194 384 223.5 358 c 128,-1,3
 253 332 253 332 253 282 c 2,4,-1
 253 96 l 2,5,6
 253 46 253 46 222 18 c 128,-1,7
 191 -10 191 -10 139.5 -10 c 128,-1,8
 88 -10 88 -10 57 16.5 c 128,-1,9
 26 43 26 43 26 84 c 2,10,-1
 26 146 l 2,11,12
 26 164 26 164 50 171 c 0,13,14
 64 175 64 175 77 175 c 128,-1,15
 90 175 90 175 103 172 c 1,16,17
 101 148 101 148 101 121 c 2,18,-1
 101 92 l 2,19,20
 101 74 101 74 112 63 c 128,-1,21
 123 52 123 52 139.5 52 c 128,-1,22
 156 52 156 52 167 63 c 128,-1,23
 178 74 178 74 178 92 c 2,24,-1
 178 279 l 2,25,26
 178 298 178 298 167 308.5 c 128,-1,27
 156 319 156 319 137 319 c 2,28,-1
 96 319 l 1,29,-1
 37 316 l 1,30,-1
 37 585 l 1,31,32
 32 611 32 611 32 630.5 c 128,-1,33
 32 650 32 650 45 650 c 2,34,-1
 190 650 l 1,35,-1
 242 655 l 1,36,37
 247 629 247 629 247 609.5 c 128,-1,38
 247 590 247 590 234 590 c 2,39,-1
 112 590 l 1,40,-1
 112 384 l 1,0,-1
EndSplineSet
EndChar

StartChar: six
Encoding: 54 54 25
Width: 294
GlyphClass: 2
Flags: W
LayerCount: 2
Fore
SplineSet
122 63.5 m 128,-1,1
 133 52 133 52 150 52 c 128,-1,2
 167 52 167 52 177.5 63 c 128,-1,3
 188 74 188 74 188 92 c 2,4,-1
 188 305 l 2,5,6
 188 339 188 339 158 339 c 128,-1,7
 128 339 128 339 111 308 c 1,8,-1
 111 92 l 2,9,0
 111 75 111 75 122 63.5 c 128,-1,1
111 554 m 2,10,-1
 111 382 l 1,11,12
 142 408 142 408 175 408 c 0,13,14
 263 408 263 408 263 306 c 2,15,-1
 263 96 l 2,16,17
 263 46 263 46 232 18 c 128,-1,18
 201 -10 201 -10 148 -10 c 128,-1,19
 95 -10 95 -10 65.5 16 c 128,-1,20
 36 42 36 42 36 92 c 2,21,-1
 36 561 l 2,22,23
 36 660 36 660 148 660 c 0,24,25
 200 660 200 660 231.5 637.5 c 128,-1,26
 263 615 263 615 263 575 c 2,27,-1
 263 493 l 2,28,29
 263 476 263 476 239 470 c 0,30,31
 227 466 227 466 213.5 466 c 128,-1,32
 200 466 200 466 187 469 c 1,33,34
 190 491 190 491 190 516 c 2,35,-1
 190 549 l 2,36,37
 190 596 190 596 150.5 596 c 128,-1,38
 111 596 111 596 111 554 c 2,10,-1
EndSplineSet
EndChar

StartChar: seven
Encoding: 55 55 26
Width: 272
GlyphClass: 2
Flags: W
LayerCount: 2
Fore
SplineSet
83 590 m 2,0,1
 45 590 45 590 21 584 c 1,2,3
 12 602 12 602 12 634 c 0,4,5
 12 650 12 650 28 650 c 2,6,-1
 256 650 l 1,7,8
 261 621 261 621 261 581.5 c 128,-1,9
 261 542 261 542 245 475 c 128,-1,10
 229 408 229 408 200 348 c 0,11,12
 117 180 117 180 117 84 c 0,13,14
 117 62 117 62 123.5 54.5 c 128,-1,15
 130 47 130 47 151 47 c 1,16,17
 151 -10 151 -10 84 -10 c 0,18,19
 59 -10 59 -10 45 8.5 c 128,-1,20
 31 27 31 27 31 59 c 0,21,22
 31 122 31 122 54.5 195 c 128,-1,23
 78 268 78 268 105.5 324.5 c 128,-1,24
 133 381 133 381 156.5 454 c 128,-1,25
 180 527 180 527 180 590 c 1,26,-1
 83 590 l 2,0,1
EndSplineSet
EndChar

StartChar: eight
Encoding: 56 56 27
Width: 294
GlyphClass: 2
Flags: W
LayerCount: 2
Fore
SplineSet
35 379 m 2,0,-1
 35 554 l 2,1,2
 35 604 35 604 65.5 632 c 128,-1,3
 96 660 96 660 149 660 c 128,-1,4
 202 660 202 660 231 634 c 128,-1,5
 260 608 260 608 260 558 c 2,6,-1
 260 383 l 2,7,8
 260 338 260 338 229 310 c 1,9,10
 261 285 261 285 261 237 c 2,11,-1
 261 96 l 2,12,13
 261 46 261 46 229.5 18 c 128,-1,14
 198 -10 198 -10 145 -10 c 128,-1,15
 92 -10 92 -10 63 16 c 128,-1,16
 34 42 34 42 34 92 c 2,17,-1
 34 233 l 2,18,19
 34 282 34 282 64 306 c 1,20,21
 35 333 35 333 35 379 c 2,0,-1
110 558 m 2,22,-1
 110 378 l 2,23,24
 110 361 110 361 121 349.5 c 128,-1,25
 132 338 132 338 148 338 c 128,-1,26
 164 338 164 338 174.5 349.5 c 128,-1,27
 185 361 185 361 185 378 c 2,28,-1
 185 558 l 2,29,30
 185 575 185 575 174 586.5 c 128,-1,31
 163 598 163 598 147 598 c 128,-1,32
 131 598 131 598 120.5 586.5 c 128,-1,33
 110 575 110 575 110 558 c 2,22,-1
109 238 m 2,34,-1
 109 92 l 2,35,36
 109 75 109 75 120 63.5 c 128,-1,37
 131 52 131 52 147.5 52 c 128,-1,38
 164 52 164 52 175 63.5 c 128,-1,39
 186 75 186 75 186 92 c 2,40,-1
 186 238 l 2,41,42
 186 255 186 255 175 266.5 c 128,-1,43
 164 278 164 278 147.5 278 c 128,-1,44
 131 278 131 278 120 266.5 c 128,-1,45
 109 255 109 255 109 238 c 2,34,-1
EndSplineSet
EndChar

StartChar: nine
Encoding: 57 57 28
Width: 294
GlyphClass: 2
Flags: W
LayerCount: 2
Fore
SplineSet
172 586.5 m 128,-1,1
 161 598 161 598 144 598 c 128,-1,2
 127 598 127 598 116.5 587 c 128,-1,3
 106 576 106 576 106 558 c 2,4,-1
 106 345 l 2,5,6
 106 311 106 311 135 311 c 0,7,8
 166 311 166 311 183 342 c 1,9,-1
 183 558 l 2,10,0
 183 575 183 575 172 586.5 c 128,-1,1
183 96 m 2,11,-1
 183 268 l 1,12,13
 155 242 155 242 117 242 c 0,14,15
 31 242 31 242 31 344 c 2,16,-1
 31 554 l 2,17,18
 31 604 31 604 62 632 c 128,-1,19
 93 660 93 660 146 660 c 128,-1,20
 199 660 199 660 228.5 634 c 128,-1,21
 258 608 258 608 258 558 c 2,22,-1
 258 89 l 2,23,24
 258 -10 258 -10 146 -10 c 0,25,26
 94 -10 94 -10 62.5 12.5 c 128,-1,27
 31 35 31 35 31 75 c 2,28,-1
 31 157 l 2,29,30
 31 174 31 174 55 180 c 0,31,32
 67 184 67 184 80.5 184 c 128,-1,33
 94 184 94 184 107 181 c 1,34,35
 104 159 104 159 104 134 c 2,36,-1
 104 101 l 2,37,38
 104 54 104 54 143.5 54 c 128,-1,39
 183 54 183 54 183 96 c 2,11,-1
EndSplineSet
EndChar

StartChar: colon
Encoding: 58 58 29
Width: 152
GlyphClass: 2
Flags: W
LayerCount: 2
Fore
SplineSet
33 357 m 128,-1,1
 33 414 33 414 76 414 c 128,-1,2
 119 414 119 414 119 357 c 128,-1,3
 119 300 119 300 76 300 c 128,-1,0
 33 300 33 300 33 357 c 128,-1,1
33 132 m 128,-1,5
 33 189 33 189 76 189 c 128,-1,6
 119 189 119 189 119 132 c 128,-1,7
 119 75 119 75 76 75 c 128,-1,4
 33 75 33 75 33 132 c 128,-1,5
EndSplineSet
EndChar

StartChar: semicolon
Encoding: 59 59 30
Width: 170
GlyphClass: 2
Flags: W
LayerCount: 2
Fore
SplineSet
53 357 m 128,-1,1
 53 414 53 414 96 414 c 128,-1,2
 139 414 139 414 139 357 c 128,-1,3
 139 300 139 300 96 300 c 128,-1,0
 53 300 53 300 53 357 c 128,-1,1
139 129 m 0,4,5
 139 85 139 85 119 52 c 128,-1,6
 99 19 99 19 72 19 c 0,7,8
 16 19 16 19 18 61 c 1,9,10
 53 61 53 61 53 132 c 0,11,12
 53 189 53 189 96 189 c 128,-1,13
 139 189 139 189 139 129 c 0,4,5
EndSplineSet
EndChar

StartChar: less
Encoding: 60 60 31
Width: 384
GlyphClass: 2
Flags: W
LayerCount: 2
Fore
SplineSet
363 50 m 1,0,1
 353 18 353 18 338.5 4 c 128,-1,2
 324 -10 324 -10 318 -10 c 128,-1,3
 312 -10 312 -10 308 -6 c 2,4,-1
 11 282 l 1,5,-1
 264 525 l 2,6,7
 281 542 281 542 301 575 c 1,8,9
 333 565 333 565 350.5 547.5 c 128,-1,10
 368 530 368 530 357 520 c 2,11,-1
 105 281 l 1,12,-1
 313 87 l 2,13,14
 336 66 336 66 363 50 c 1,0,1
EndSplineSet
EndChar

StartChar: equal
Encoding: 61 61 32
Width: 264
GlyphClass: 2
Flags: W
LayerCount: 2
Fore
SplineSet
90 220 m 2,0,1
 57 220 57 220 40 215 c 1,2,3
 33 241 33 241 33 260.5 c 128,-1,4
 33 280 33 280 46 280 c 2,5,-1
 174 280 l 1,6,-1
 226 285 l 1,7,8
 231 259 231 259 231 239.5 c 128,-1,9
 231 220 231 220 218 220 c 2,10,-1
 90 220 l 2,0,1
90 330 m 2,11,12
 57 330 57 330 40 325 c 1,13,14
 33 351 33 351 33 370.5 c 128,-1,15
 33 390 33 390 46 390 c 2,16,-1
 174 390 l 1,17,-1
 226 395 l 1,18,19
 231 369 231 369 231 349.5 c 128,-1,20
 231 330 231 330 218 330 c 2,21,-1
 90 330 l 2,11,12
EndSplineSet
EndChar

StartChar: greater
Encoding: 62 62 33
Width: 383
GlyphClass: 2
Flags: W
LayerCount: 2
Fore
SplineSet
21 512 m 1,0,1
 31 544 31 544 45.5 558 c 128,-1,2
 60 572 60 572 66 572 c 128,-1,3
 72 572 72 572 76 568 c 2,4,-1
 373 280 l 1,5,-1
 120 37 l 2,6,7
 102 20 102 20 83 -13 c 1,8,9
 51 -3 51 -3 33.5 14.5 c 128,-1,10
 16 32 16 32 27 42 c 2,11,-1
 279 281 l 1,12,-1
 71 475 l 2,13,14
 48 496 48 496 21 512 c 1,0,1
EndSplineSet
EndChar

StartChar: question
Encoding: 63 63 34
Width: 260
GlyphClass: 2
Flags: W
LayerCount: 2
Fore
SplineSet
62 -92 m 128,-1,1
 62 -35 62 -35 105 -35 c 128,-1,2
 148 -35 148 -35 148 -92 c 128,-1,3
 148 -149 148 -149 105 -149 c 128,-1,0
 62 -149 62 -149 62 -92 c 128,-1,1
65 14 m 2,4,-1
 65 120 l 2,5,6
 65 178 65 178 108 202 c 2,7,-1
 144 222 l 2,8,9
 166 234 166 234 166 269 c 2,10,-1
 166 394 l 2,11,12
 166 436 166 436 126 436 c 0,13,14
 88 436 88 436 88 389 c 2,15,-1
 88 374 l 1,16,-1
 91 327 l 1,17,18
 78 324 78 324 64.5 324 c 128,-1,19
 51 324 51 324 39 328 c 0,20,21
 15 334 15 334 15 351 c 2,22,-1
 15 414 l 2,23,24
 15 454 15 454 44 477 c 128,-1,25
 73 500 73 500 128.5 500 c 128,-1,26
 184 500 184 500 212.5 472.5 c 128,-1,27
 241 445 241 445 241 401 c 2,28,-1
 241 252 l 2,29,30
 241 195 241 195 202 171 c 2,31,-1
 166 149 l 2,32,33
 140 133 140 133 140 96 c 1,34,-1
 144 2 l 1,35,36
 114 -3 114 -3 81 -3 c 0,37,38
 65 -3 65 -3 65 14 c 2,4,-1
EndSplineSet
EndChar

StartChar: at
Encoding: 64 64 35
Width: 525
GlyphClass: 2
Flags: W
LayerCount: 2
Fore
SplineSet
276 422 m 2,0,1
 261 422 261 422 250.5 413 c 128,-1,2
 240 404 240 404 239 389 c 2,3,-1
 221 102 l 2,4,5
 220 72 220 72 246 72 c 0,6,7
 259 72 259 72 271.5 82 c 128,-1,8
 284 92 284 92 288 103 c 1,9,-1
 309 422 l 1,10,-1
 276 422 l 2,0,1
125 -82 m 2,11,-1
 367 -82 l 1,12,-1
 415 -77 l 1,13,-1
 417 -123 l 1,14,15
 415 -137 415 -137 404 -137 c 2,16,-1
 119 -137 l 2,17,18
 70 -137 70 -137 46 -116.5 c 128,-1,19
 22 -96 22 -96 22 -61 c 0,20,21
 22 -56 22 -56 22 -52 c 2,22,-1
 61 562 l 2,23,24
 64 604 64 604 94 627 c 128,-1,25
 124 650 124 650 172 650 c 2,26,-1
 408 650 l 2,27,28
 456 650 456 650 481.5 628 c 128,-1,29
 507 606 507 606 507 568 c 0,30,31
 507 565 507 565 507 562 c 2,32,-1
 478 89 l 1,33,34
 474 4 474 4 380 4 c 0,35,36
 323 4 323 4 302 44 c 1,37,38
 273 12 273 12 233 12 c 128,-1,39
 193 12 193 12 174.5 33.5 c 128,-1,40
 156 55 156 55 156 90 c 0,41,42
 156 95 156 95 156 101 c 2,43,-1
 174 386 l 2,44,45
 177 430 177 430 205.5 454 c 128,-1,46
 234 478 234 478 280 478 c 2,47,-1
 378 478 l 1,48,-1
 353 93 l 2,49,50
 353 90 353 90 353 87 c 0,51,52
 353 59 353 59 381.5 59 c 128,-1,53
 410 59 410 59 412 92 c 2,54,-1
 442 562 l 2,55,56
 443 578 443 578 433 586.5 c 128,-1,57
 423 595 423 595 405 595 c 2,58,-1
 167 595 l 2,59,60
 128 595 128 595 126 562 c 2,61,-1
 88 -49 l 2,62,63
 87 -65 87 -65 97 -73.5 c 128,-1,64
 107 -82 107 -82 125 -82 c 2,11,-1
EndSplineSet
EndChar

StartChar: A
Encoding: 65 65 36
Width: 327
GlyphClass: 2
Flags: W
LayerCount: 2
Fore
SplineSet
36 12 m 2,0,-1
 36 554 l 2,1,2
 36 604 36 604 70 632 c 128,-1,3
 104 660 104 660 163 660 c 128,-1,4
 222 660 222 660 254.5 634 c 128,-1,5
 287 608 287 608 287 558 c 2,6,-1
 287 85 l 2,7,8
 287 64 287 64 295.5 55.5 c 128,-1,9
 304 47 304 47 325 47 c 1,10,11
 325 -10 325 -10 261 -10 c 0,12,13
 208 -10 208 -10 208 59 c 2,14,-1
 208 250 l 1,15,-1
 115 250 l 1,16,-1
 115 94 l 1,17,-1
 119 0 l 1,18,19
 85 -5 85 -5 52 -5 c 0,20,21
 36 -5 36 -5 36 12 c 2,0,-1
115 554 m 2,22,-1
 115 316 l 1,23,-1
 208 316 l 1,24,-1
 208 554 l 2,25,26
 208 573 208 573 195 583.5 c 128,-1,27
 182 594 182 594 161 594 c 128,-1,28
 140 594 140 594 127.5 583.5 c 128,-1,29
 115 573 115 573 115 554 c 2,22,-1
EndSplineSet
EndChar

StartChar: B
Encoding: 66 66 37
Width: 329
GlyphClass: 2
Flags: W
LayerCount: 2
Fore
SplineSet
43 0 m 1,0,-1
 43 553 l 2,1,2
 43 575 43 575 35 584.5 c 128,-1,3
 27 594 27 594 6 594 c 1,4,5
 5 620 5 620 20 635 c 128,-1,6
 35 650 35 650 68.5 650 c 128,-1,7
 102 650 102 650 115 617 c 1,8,9
 154 650 154 650 195 650 c 0,10,11
 294 650 294 650 294 552 c 2,12,-1
 294 377 l 2,13,14
 294 331 294 331 265 307 c 1,15,16
 299 284 299 284 299 231 c 2,17,-1
 299 106 l 2,18,19
 299 56 299 56 264.5 28 c 128,-1,20
 230 0 230 0 171 0 c 2,21,-1
 43 0 l 1,0,-1
176 584 m 0,22,23
 149 584 149 584 122 557 c 1,24,-1
 122 337 l 1,25,-1
 171 337 l 2,26,27
 191 337 191 337 203 348 c 128,-1,28
 215 359 215 359 215 377 c 2,29,-1
 215 546 l 2,30,31
 215 584 215 584 176 584 c 0,22,23
122 271 m 1,32,-1
 122 66 l 1,33,-1
 173 66 l 2,34,35
 194 66 194 66 207 76.5 c 128,-1,36
 220 87 220 87 220 106 c 2,37,-1
 220 231 l 2,38,39
 220 250 220 250 207 260.5 c 128,-1,40
 194 271 194 271 173 271 c 2,41,-1
 122 271 l 1,32,-1
EndSplineSet
EndChar

StartChar: C
Encoding: 67 67 38
Width: 311
GlyphClass: 2
Flags: W
LayerCount: 2
Fore
SplineSet
248.5 18 m 128,-1,1
 213 -10 213 -10 156 -10 c 128,-1,2
 99 -10 99 -10 66 16 c 128,-1,3
 33 42 33 42 33 92 c 2,4,-1
 33 554 l 2,5,6
 33 604 33 604 67 632 c 128,-1,7
 101 660 101 660 158.5 660 c 128,-1,8
 216 660 216 660 250 634.5 c 128,-1,9
 284 609 284 609 284 568 c 2,10,-1
 284 444 l 2,11,12
 284 426 284 426 258 419 c 0,13,14
 244 415 244 415 230 415 c 128,-1,15
 216 415 216 415 202 418 c 1,16,17
 205 442 205 442 205 469 c 2,18,-1
 205 554 l 2,19,20
 205 573 205 573 192 583.5 c 128,-1,21
 179 594 179 594 158 594 c 128,-1,22
 137 594 137 594 124.5 583.5 c 128,-1,23
 112 573 112 573 112 554 c 2,24,-1
 112 96 l 2,25,26
 112 78 112 78 124.5 67 c 128,-1,27
 137 56 137 56 158 56 c 128,-1,28
 179 56 179 56 192 66.5 c 128,-1,29
 205 77 205 77 205 96 c 2,30,-1
 205 118 l 1,31,-1
 202 169 l 1,32,33
 216 172 216 172 230 172 c 128,-1,34
 244 172 244 172 258 168 c 0,35,36
 284 161 284 161 284 143 c 2,37,-1
 284 88 l 2,38,0
 284 46 284 46 248.5 18 c 128,-1,1
EndSplineSet
EndChar

StartChar: D
Encoding: 68 68 39
Width: 327
GlyphClass: 2
Flags: W
LayerCount: 2
Fore
SplineSet
176 584 m 0,0,1
 149 584 149 584 122 557 c 1,2,-1
 122 66 l 1,3,-1
 168 66 l 2,4,5
 189 66 189 66 202 76.5 c 128,-1,6
 215 87 215 87 215 106 c 2,7,-1
 215 546 l 2,8,9
 215 584 215 584 176 584 c 0,0,1
195 650 m 0,10,11
 294 650 294 650 294 552 c 2,12,-1
 294 106 l 2,13,14
 294 56 294 56 259.5 28 c 128,-1,15
 225 0 225 0 166 0 c 2,16,-1
 43 0 l 1,17,-1
 43 553 l 2,18,19
 43 575 43 575 35 584.5 c 128,-1,20
 27 594 27 594 6 594 c 1,21,22
 5 620 5 620 20 635 c 128,-1,23
 35 650 35 650 68.5 650 c 128,-1,24
 102 650 102 650 115 617 c 1,25,26
 154 650 154 650 195 650 c 0,10,11
EndSplineSet
EndChar

StartChar: E
Encoding: 69 69 40
Width: 306
GlyphClass: 2
Flags: W
LayerCount: 2
Fore
SplineSet
168 338 m 2,0,1
 204 338 204 338 222 343 c 1,2,3
 230 315 230 315 230 288 c 0,4,5
 230 272 230 272 216 272 c 2,6,-1
 157 272 l 2,7,8
 136 272 136 272 123.5 261 c 128,-1,9
 111 250 111 250 111 232 c 2,10,-1
 111 96 l 2,11,12
 111 77 111 77 123.5 66.5 c 128,-1,13
 136 56 136 56 157 56 c 128,-1,14
 178 56 178 56 191 66.5 c 128,-1,15
 204 77 204 77 204 96 c 2,16,-1
 204 121 l 1,17,-1
 201 172 l 1,18,19
 215 175 215 175 229 175 c 128,-1,20
 243 175 243 175 257 171 c 0,21,22
 283 164 283 164 283 146 c 2,23,-1
 283 82 l 2,24,25
 283 41 283 41 249 15.5 c 128,-1,26
 215 -10 215 -10 157.5 -10 c 128,-1,27
 100 -10 100 -10 66 18 c 128,-1,28
 32 46 32 46 32 96 c 2,29,-1
 32 236 l 2,30,31
 32 281 32 281 61 305 c 1,32,33
 32 329 32 329 32 374 c 2,34,-1
 32 554 l 2,35,36
 32 604 32 604 66 632 c 128,-1,37
 100 660 100 660 156.5 660 c 128,-1,38
 213 660 213 660 246 634.5 c 128,-1,39
 279 609 279 609 279 568 c 2,40,-1
 279 484 l 2,41,42
 279 466 279 466 253 459 c 0,43,44
 239 455 239 455 225 455 c 128,-1,45
 211 455 211 455 197 458 c 1,46,47
 200 482 200 482 200 509 c 2,48,-1
 200 554 l 2,49,50
 200 594 200 594 156 594 c 0,51,52
 135 594 135 594 123 583.5 c 128,-1,53
 111 573 111 573 111 554 c 2,54,-1
 111 378 l 2,55,56
 111 360 111 360 122.5 349 c 128,-1,57
 134 338 134 338 153 338 c 2,58,-1
 168 338 l 2,0,1
EndSplineSet
EndChar

StartChar: F
Encoding: 70 70 41
Width: 260
GlyphClass: 2
Flags: W
LayerCount: 2
Fore
SplineSet
171 348 m 2,0,1
 207 348 207 348 225 353 c 1,2,3
 233 325 233 325 233 298 c 0,4,5
 233 282 233 282 219 282 c 2,6,-1
 121 282 l 1,7,-1
 121 85 l 2,8,9
 121 64 121 64 129.5 55.5 c 128,-1,10
 138 47 138 47 159 47 c 1,11,12
 159 -10 159 -10 95 -10 c 0,13,14
 42 -10 42 -10 42 59 c 2,15,-1
 42 553 l 2,16,17
 42 575 42 575 34 584.5 c 128,-1,18
 26 594 26 594 5 594 c 1,19,20
 4 620 4 620 19 635 c 128,-1,21
 34 650 34 650 62 650 c 2,22,-1
 189 650 l 1,23,-1
 239 655 l 1,24,25
 247 627 247 627 247 600 c 0,26,27
 247 584 247 584 233 584 c 2,28,-1
 121 584 l 1,29,-1
 121 348 l 1,30,-1
 171 348 l 2,0,1
EndSplineSet
EndChar

StartChar: G
Encoding: 71 71 42
Width: 327
GlyphClass: 2
Flags: W
LayerCount: 2
Fore
SplineSet
207 241 m 1,0,1
 180 241 180 241 153 236 c 1,2,3
 145 264 145 264 145 291 c 0,4,5
 145 307 145 307 159 307 c 2,6,-1
 286 307 l 1,7,-1
 286 85 l 2,8,9
 286 64 286 64 294 55 c 128,-1,10
 302 46 302 46 323 46 c 1,11,12
 324 20 324 20 309.5 5 c 128,-1,13
 295 -10 295 -10 268 -10 c 0,14,15
 226 -10 226 -10 214 21 c 1,16,17
 186 -10 186 -10 137 -10 c 0,18,19
 35 -10 35 -10 35 86 c 2,20,-1
 35 554 l 2,21,22
 35 604 35 604 69 632 c 128,-1,23
 103 660 103 660 160.5 660 c 128,-1,24
 218 660 218 660 252 634.5 c 128,-1,25
 286 609 286 609 286 568 c 2,26,-1
 286 454 l 2,27,28
 286 436 286 436 260 429 c 0,29,30
 246 425 246 425 232 425 c 128,-1,31
 218 425 218 425 204 428 c 1,32,33
 207 452 207 452 207 479 c 2,34,-1
 207 554 l 2,35,36
 207 573 207 573 194 583.5 c 128,-1,37
 181 594 181 594 160 594 c 128,-1,38
 139 594 139 594 126.5 583.5 c 128,-1,39
 114 573 114 573 114 554 c 2,40,-1
 114 92 l 2,41,42
 114 56 114 56 150.5 56 c 128,-1,43
 187 56 187 56 207 91 c 1,44,-1
 207 241 l 1,0,1
EndSplineSet
EndChar

StartChar: H
Encoding: 72 72 43
Width: 337
GlyphClass: 2
Flags: W
LayerCount: 2
Fore
SplineSet
43 12 m 2,0,-1
 43 564 l 2,1,2
 43 585 43 585 34.5 593.5 c 128,-1,3
 26 602 26 602 5 602 c 1,4,5
 5 659 5 659 69 659 c 0,6,7
 122 659 122 659 122 590 c 2,8,-1
 122 329 l 1,9,-1
 215 329 l 1,10,-1
 215 556 l 1,11,-1
 211 650 l 1,12,13
 245 655 245 655 278 655 c 0,14,15
 294 655 294 655 294 638 c 2,16,-1
 294 85 l 2,17,18
 294 64 294 64 302.5 55.5 c 128,-1,19
 311 47 311 47 332 47 c 1,20,21
 332 -10 332 -10 268 -10 c 0,22,23
 215 -10 215 -10 215 59 c 2,24,-1
 215 263 l 1,25,-1
 122 263 l 1,26,-1
 122 94 l 1,27,-1
 126 0 l 1,28,29
 92 -5 92 -5 59 -5 c 0,30,31
 43 -5 43 -5 43 12 c 2,0,-1
EndSplineSet
EndChar

StartChar: I
Encoding: 73 73 44
Width: 153
GlyphClass: 2
Flags: W
LayerCount: 2
Fore
SplineSet
37 12 m 2,0,-1
 37 556 l 1,1,-1
 33 650 l 1,2,3
 67 655 67 655 100 655 c 0,4,5
 116 655 116 655 116 638 c 2,6,-1
 116 94 l 1,7,-1
 120 0 l 1,8,9
 86 -5 86 -5 53 -5 c 0,10,11
 37 -5 37 -5 37 12 c 2,0,-1
EndSplineSet
EndChar

StartChar: J
Encoding: 74 74 45
Width: 317
GlyphClass: 2
Flags: W
LayerCount: 2
Fore
SplineSet
102 584 m 2,0,1
 66 584 66 584 48 579 c 1,2,3
 40 607 40 607 40 634 c 0,4,5
 40 650 40 650 54 650 c 2,6,-1
 281 650 l 1,7,-1
 281 96 l 2,8,9
 281 46 281 46 247 18 c 128,-1,10
 213 -10 213 -10 155.5 -10 c 128,-1,11
 98 -10 98 -10 64 15.5 c 128,-1,12
 30 41 30 41 30 82 c 2,13,-1
 30 206 l 2,14,15
 30 224 30 224 56 231 c 0,16,17
 70 235 70 235 84 235 c 128,-1,18
 98 235 98 235 112 232 c 1,19,20
 109 208 109 208 109 181 c 2,21,-1
 109 96 l 2,22,23
 109 77 109 77 122 66.5 c 128,-1,24
 135 56 135 56 156 56 c 128,-1,25
 177 56 177 56 189.5 66.5 c 128,-1,26
 202 77 202 77 202 96 c 2,27,-1
 202 584 l 1,28,-1
 102 584 l 2,0,1
EndSplineSet
EndChar

StartChar: K
Encoding: 75 75 46
Width: 338
GlyphClass: 2
Flags: W
LayerCount: 2
Fore
SplineSet
215 568 m 2,0,1
 215 617 215 617 208 650 c 1,2,3
 242 654 242 654 277 654 c 0,4,5
 294 654 294 654 294 639 c 2,6,-1
 294 380 l 2,7,8
 294 335 294 335 262 309 c 1,9,10
 294 284 294 284 294 238 c 2,11,-1
 294 85 l 2,12,13
 294 64 294 64 302.5 55.5 c 128,-1,14
 311 47 311 47 332 47 c 1,15,16
 332 -10 332 -10 268 -10 c 0,17,18
 215 -10 215 -10 215 59 c 2,19,-1
 215 234 l 2,20,21
 215 252 215 252 201.5 263 c 128,-1,22
 188 274 188 274 167 274 c 2,23,-1
 122 274 l 1,24,-1
 122 82 l 2,25,26
 122 44 122 44 129 0 c 1,27,28
 95 -4 95 -4 60 -4 c 0,29,30
 43 -4 43 -4 43 11 c 2,31,-1
 43 565 l 2,32,33
 43 586 43 586 34.5 594.5 c 128,-1,34
 26 603 26 603 5 603 c 1,35,36
 5 660 5 660 69 660 c 0,37,38
 122 660 122 660 122 591 c 2,39,-1
 122 340 l 1,40,-1
 167 340 l 2,41,42
 187 340 187 340 201 351 c 128,-1,43
 215 362 215 362 215 380 c 2,44,-1
 215 568 l 2,0,1
EndSplineSet
EndChar

StartChar: L
Encoding: 76 76 47
Width: 252
GlyphClass: 2
Flags: W
LayerCount: 2
Fore
SplineSet
186 66 m 2,0,1
 222 66 222 66 240 71 c 1,2,3
 248 43 248 43 248 16 c 0,4,5
 248 0 248 0 234 0 c 2,6,-1
 37 0 l 1,7,-1
 37 556 l 1,8,-1
 33 650 l 1,9,10
 67 655 67 655 100 655 c 0,11,12
 116 655 116 655 116 638 c 2,13,-1
 116 66 l 1,14,-1
 186 66 l 2,0,1
EndSplineSet
EndChar

StartChar: M
Encoding: 77 77 48
Width: 504
GlyphClass: 2
Flags: W
LayerCount: 2
Fore
SplineSet
175 584 m 0,0,1
 148 584 148 584 121 557 c 1,2,-1
 121 94 l 1,3,-1
 125 0 l 1,4,5
 91 -5 91 -5 58 -5 c 0,6,7
 42 -5 42 -5 42 12 c 2,8,-1
 42 553 l 2,9,10
 42 575 42 575 34 584.5 c 128,-1,11
 26 594 26 594 5 594 c 1,12,13
 4 620 4 620 19 635 c 128,-1,14
 34 650 34 650 67 650 c 128,-1,15
 100 650 100 650 114 617 c 1,16,17
 153 650 153 650 194 650 c 0,18,19
 255 650 255 650 278 612 c 1,20,21
 319 650 319 650 364 650 c 0,22,23
 463 650 463 650 463 552 c 2,24,-1
 463 85 l 2,25,26
 463 64 463 64 471.5 55.5 c 128,-1,27
 480 47 480 47 501 47 c 1,28,29
 501 -10 501 -10 437 -10 c 0,30,31
 384 -10 384 -10 384 59 c 2,32,-1
 384 546 l 2,33,34
 384 584 384 584 345 584 c 0,35,36
 314 584 314 584 293 559 c 1,37,-1
 293 94 l 1,38,-1
 297 0 l 1,39,40
 263 -5 263 -5 230 -5 c 0,41,42
 214 -5 214 -5 214 12 c 2,43,-1
 214 546 l 2,44,45
 214 584 214 584 175 584 c 0,0,1
EndSplineSet
EndChar

StartChar: N
Encoding: 78 78 49
Width: 334
GlyphClass: 2
Flags: W
LayerCount: 2
Fore
SplineSet
175 584 m 0,0,1
 148 584 148 584 121 557 c 1,2,-1
 121 94 l 1,3,-1
 125 0 l 1,4,5
 91 -5 91 -5 58 -5 c 0,6,7
 42 -5 42 -5 42 12 c 2,8,-1
 42 553 l 2,9,10
 42 575 42 575 34 584.5 c 128,-1,11
 26 594 26 594 5 594 c 1,12,13
 4 620 4 620 19 635 c 128,-1,14
 34 650 34 650 67 650 c 128,-1,15
 100 650 100 650 114 617 c 1,16,17
 153 650 153 650 194 650 c 0,18,19
 293 650 293 650 293 552 c 2,20,-1
 293 85 l 2,21,22
 293 64 293 64 301.5 55.5 c 128,-1,23
 310 47 310 47 331 47 c 1,24,25
 331 -10 331 -10 267 -10 c 0,26,27
 214 -10 214 -10 214 59 c 2,28,-1
 214 546 l 2,29,30
 214 584 214 584 175 584 c 0,0,1
EndSplineSet
EndChar

StartChar: O
Encoding: 79 79 50
Width: 317
GlyphClass: 2
Flags: W
LayerCount: 2
Fore
SplineSet
33 92 m 2,0,-1
 33 554 l 2,1,2
 33 604 33 604 67 632 c 128,-1,3
 101 660 101 660 160 660 c 128,-1,4
 219 660 219 660 251.5 634 c 128,-1,5
 284 608 284 608 284 558 c 2,6,-1
 284 96 l 2,7,8
 284 46 284 46 249.5 18 c 128,-1,9
 215 -10 215 -10 156 -10 c 128,-1,10
 97 -10 97 -10 65 16 c 128,-1,11
 33 42 33 42 33 92 c 2,0,-1
112 554 m 2,12,-1
 112 96 l 2,13,14
 112 78 112 78 124.5 67 c 128,-1,15
 137 56 137 56 158 56 c 128,-1,16
 179 56 179 56 192 66.5 c 128,-1,17
 205 77 205 77 205 96 c 2,18,-1
 205 554 l 2,19,20
 205 573 205 573 192 583.5 c 128,-1,21
 179 594 179 594 158 594 c 128,-1,22
 137 594 137 594 124.5 583.5 c 128,-1,23
 112 573 112 573 112 554 c 2,12,-1
EndSplineSet
EndChar

StartChar: P
Encoding: 80 80 51
Width: 318
GlyphClass: 2
Flags: W
LayerCount: 2
Fore
SplineSet
42 12 m 2,0,-1
 42 553 l 2,1,2
 42 575 42 575 34 584.5 c 128,-1,3
 26 594 26 594 5 594 c 1,4,5
 4 620 4 620 19 635 c 128,-1,6
 34 650 34 650 67 650 c 128,-1,7
 100 650 100 650 114 617 c 1,8,9
 153 650 153 650 194 650 c 0,10,11
 293 650 293 650 293 552 c 2,12,-1
 293 306 l 2,13,14
 293 256 293 256 258.5 228 c 128,-1,15
 224 200 224 200 165 200 c 2,16,-1
 121 200 l 1,17,-1
 121 94 l 1,18,-1
 125 0 l 1,19,20
 91 -5 91 -5 58 -5 c 0,21,22
 42 -5 42 -5 42 12 c 2,0,-1
175 584 m 0,23,24
 148 584 148 584 121 557 c 1,25,-1
 121 266 l 1,26,-1
 167 266 l 2,27,28
 188 266 188 266 201 276.5 c 128,-1,29
 214 287 214 287 214 306 c 2,30,-1
 214 546 l 2,31,32
 214 584 214 584 175 584 c 0,23,24
EndSplineSet
EndChar

StartChar: Q
Encoding: 81 81 52
Width: 317
GlyphClass: 2
Flags: W
LayerCount: 2
Fore
SplineSet
33 92 m 2,0,-1
 33 554 l 2,1,2
 33 604 33 604 67 632 c 128,-1,3
 101 660 101 660 160 660 c 128,-1,4
 219 660 219 660 251.5 634 c 128,-1,5
 284 608 284 608 284 558 c 2,6,-1
 284 96 l 2,7,8
 284 13 284 13 198 -5 c 1,9,-1
 206 -52 l 2,10,11
 211 -84 211 -84 237 -84 c 0,12,13
 245 -84 245 -84 256 -80 c 1,14,15
 260 -92 260 -92 260 -108.5 c 128,-1,16
 260 -125 260 -125 243.5 -141.5 c 128,-1,17
 227 -158 227 -158 202 -158 c 0,18,19
 142 -158 142 -158 134 -107 c 2,20,-1
 117 -7 l 1,21,22
 33 9 33 9 33 92 c 2,0,-1
112 554 m 2,23,-1
 112 96 l 2,24,25
 112 78 112 78 124.5 67 c 128,-1,26
 137 56 137 56 158 56 c 128,-1,27
 179 56 179 56 192 66.5 c 128,-1,28
 205 77 205 77 205 96 c 2,29,-1
 205 554 l 2,30,31
 205 573 205 573 192 583.5 c 128,-1,32
 179 594 179 594 158 594 c 128,-1,33
 137 594 137 594 124.5 583.5 c 128,-1,34
 112 573 112 573 112 554 c 2,23,-1
EndSplineSet
EndChar

StartChar: R
Encoding: 82 82 53
Width: 331
GlyphClass: 2
Flags: W
LayerCount: 2
Fore
SplineSet
42 12 m 2,0,-1
 42 553 l 2,1,2
 42 575 42 575 34 584.5 c 128,-1,3
 26 594 26 594 5 594 c 1,4,5
 4 620 4 620 19 635 c 128,-1,6
 34 650 34 650 67 650 c 128,-1,7
 100 650 100 650 114 617 c 1,8,9
 153 650 153 650 194 650 c 0,10,11
 293 650 293 650 293 552 c 2,12,-1
 293 320 l 2,13,14
 293 257 293 257 240 230 c 1,15,-1
 261 96 l 2,16,17
 266 64 266 64 292 64 c 0,18,19
 300 64 300 64 311 68 c 1,20,21
 315 56 315 56 315 39.5 c 128,-1,22
 315 23 315 23 298.5 6.5 c 128,-1,23
 282 -10 282 -10 256 -10 c 0,24,25
 197 -10 197 -10 189 41 c 2,26,-1
 160 214 l 1,27,-1
 121 214 l 1,28,-1
 121 94 l 1,29,-1
 125 0 l 1,30,31
 91 -5 91 -5 58 -5 c 0,32,33
 42 -5 42 -5 42 12 c 2,0,-1
175 584 m 0,34,35
 148 584 148 584 121 557 c 1,36,-1
 121 280 l 1,37,-1
 167 280 l 2,38,39
 188 280 188 280 201 290.5 c 128,-1,40
 214 301 214 301 214 320 c 2,41,-1
 214 546 l 2,42,43
 214 584 214 584 175 584 c 0,34,35
EndSplineSet
EndChar

StartChar: S
Encoding: 83 83 54
Width: 314
GlyphClass: 2
Flags: W
LayerCount: 2
Fore
SplineSet
31 419 m 2,0,-1
 31 554 l 2,1,2
 31 604 31 604 65 632 c 128,-1,3
 99 660 99 660 156.5 660 c 128,-1,4
 214 660 214 660 248 634.5 c 128,-1,5
 282 609 282 609 282 568 c 2,6,-1
 282 444 l 2,7,8
 282 426 282 426 256 419 c 0,9,10
 242 415 242 415 228 415 c 128,-1,11
 214 415 214 415 200 418 c 1,12,13
 203 442 203 442 203 469 c 2,14,-1
 203 554 l 2,15,16
 203 573 203 573 190 583.5 c 128,-1,17
 177 594 177 594 156 594 c 128,-1,18
 135 594 135 594 122.5 583.5 c 128,-1,19
 110 573 110 573 110 554 c 2,20,-1
 110 437 l 2,21,22
 110 402 110 402 133 388 c 2,23,-1
 239 320 l 2,24,25
 284 292 284 292 284 234 c 2,26,-1
 284 96 l 2,27,28
 284 46 284 46 249 18 c 128,-1,29
 214 -10 214 -10 156.5 -10 c 128,-1,30
 99 -10 99 -10 64 15.5 c 128,-1,31
 29 41 29 41 29 82 c 2,32,-1
 29 206 l 2,33,34
 29 224 29 224 55 231 c 0,35,36
 69 235 69 235 83 235 c 128,-1,37
 97 235 97 235 111 232 c 1,38,39
 108 208 108 208 108 181 c 2,40,-1
 108 96 l 2,41,42
 108 78 108 78 122 67 c 128,-1,43
 136 56 136 56 157 56 c 128,-1,44
 178 56 178 56 191.5 67 c 128,-1,45
 205 78 205 78 205 96 c 2,46,-1
 205 209 l 2,47,48
 205 248 205 248 178 265 c 2,49,-1
 72 334 l 2,50,51
 31 360 31 360 31 419 c 2,0,-1
EndSplineSet
EndChar

StartChar: T
Encoding: 84 84 55
Width: 279
GlyphClass: 2
Flags: W
LayerCount: 2
Fore
SplineSet
209 650 m 2,0,1
 245 650 245 650 263 655 c 1,2,3
 271 627 271 627 271 600 c 0,4,5
 271 584 271 584 257 584 c 2,6,-1
 179 584 l 1,7,-1
 179 94 l 1,8,-1
 183 0 l 1,9,10
 149 -5 149 -5 116 -5 c 0,11,12
 100 -5 100 -5 100 12 c 2,13,-1
 100 584 l 1,14,-1
 70 584 l 2,15,16
 34 584 34 584 16 579 c 1,17,18
 8 607 8 607 8 634 c 0,19,20
 8 650 8 650 22 650 c 2,21,-1
 209 650 l 2,0,1
EndSplineSet
EndChar

StartChar: U
Encoding: 85 85 56
Width: 334
GlyphClass: 2
Flags: W
LayerCount: 2
Fore
SplineSet
213 568 m 2,0,1
 213 617 213 617 206 650 c 1,2,3
 240 654 240 654 275 654 c 0,4,5
 292 654 292 654 292 639 c 2,6,-1
 292 85 l 2,7,8
 292 64 292 64 300 55 c 128,-1,9
 308 46 308 46 329 46 c 1,10,11
 330 20 330 20 315.5 5 c 128,-1,12
 301 -10 301 -10 274 -10 c 0,13,14
 232 -10 232 -10 220 21 c 1,15,16
 192 -10 192 -10 143 -10 c 0,17,18
 41 -10 41 -10 41 86 c 2,19,-1
 41 565 l 2,20,21
 41 586 41 586 32.5 594.5 c 128,-1,22
 24 603 24 603 3 603 c 1,23,24
 3 660 3 660 67 660 c 0,25,26
 120 660 120 660 120 591 c 2,27,-1
 120 92 l 2,28,29
 120 56 120 56 156.5 56 c 128,-1,30
 193 56 193 56 213 91 c 1,31,-1
 213 568 l 2,0,1
EndSplineSet
EndChar

StartChar: V
Encoding: 86 86 57
Width: 326
GlyphClass: 2
Flags: W
LayerCount: 2
Fore
SplineSet
203.5 314 m 128,-1,1
 221 469 221 469 221 543 c 128,-1,2
 221 617 221 617 214 650 c 1,3,4
 251 654 251 654 284 654 c 0,5,6
 303 654 303 654 303 634 c 0,7,8
 303 507 303 507 282 327.5 c 128,-1,9
 261 148 261 148 233 48 c 0,10,11
 219 0 219 0 191 0 c 2,12,-1
 132 0 l 2,13,14
 101 0 101 0 90 48 c 0,15,16
 36 280 36 280 36 565 c 0,17,18
 36 586 36 586 27.5 594.5 c 128,-1,19
 19 603 19 603 -2 603 c 1,20,21
 -2 660 -2 660 64 660 c 0,22,23
 117 660 117 660 117 591 c 0,24,25
 117 458 117 458 129.5 304 c 128,-1,26
 142 150 142 150 164 60 c 1,27,0
 186 159 186 159 203.5 314 c 128,-1,1
EndSplineSet
EndChar

StartChar: W
Encoding: 87 87 58
Width: 496
GlyphClass: 2
Flags: W
LayerCount: 2
Fore
SplineSet
381 568 m 2,0,1
 381 617 381 617 374 650 c 1,2,3
 408 654 408 654 443 654 c 0,4,5
 460 654 460 654 460 639 c 2,6,-1
 460 96 l 2,7,8
 460 46 460 46 426 18 c 128,-1,9
 392 -10 392 -10 333.5 -10 c 128,-1,10
 275 -10 275 -10 247 18 c 1,11,12
 219 -10 219 -10 161.5 -10 c 128,-1,13
 104 -10 104 -10 72.5 16 c 128,-1,14
 41 42 41 42 41 92 c 2,15,-1
 41 565 l 2,16,17
 41 586 41 586 32.5 594.5 c 128,-1,18
 24 603 24 603 3 603 c 1,19,20
 3 660 3 660 67 660 c 0,21,22
 120 660 120 660 120 591 c 2,23,-1
 120 96 l 2,24,25
 120 77 120 77 132.5 66.5 c 128,-1,26
 145 56 145 56 165 56 c 128,-1,27
 185 56 185 56 198 65.5 c 128,-1,28
 211 75 211 75 211 92 c 2,29,-1
 211 568 l 2,30,31
 211 617 211 617 204 650 c 1,32,33
 238 654 238 654 273 654 c 0,34,35
 290 654 290 654 290 639 c 2,36,-1
 290 96 l 2,37,38
 290 77 290 77 302.5 66.5 c 128,-1,39
 315 56 315 56 335.5 56 c 128,-1,40
 356 56 356 56 368.5 66.5 c 128,-1,41
 381 77 381 77 381 96 c 2,42,-1
 381 568 l 2,0,1
EndSplineSet
EndChar

StartChar: X
Encoding: 88 88 59
Width: 339
GlyphClass: 2
Flags: W
LayerCount: 2
Fore
SplineSet
216 568 m 2,0,1
 216 606 216 606 209 650 c 1,2,3
 243 654 243 654 278 654 c 0,4,5
 295 654 295 654 295 639 c 2,6,-1
 295 379 l 2,7,8
 295 334 295 334 263 308 c 1,9,10
 295 283 295 283 295 237 c 2,11,-1
 295 85 l 2,12,13
 295 64 295 64 303.5 55.5 c 128,-1,14
 312 47 312 47 333 47 c 1,15,16
 333 -10 333 -10 269 -10 c 0,17,18
 216 -10 216 -10 216 59 c 2,19,-1
 216 233 l 2,20,21
 216 251 216 251 202.5 262 c 128,-1,22
 189 273 189 273 169 273 c 128,-1,23
 149 273 149 273 136 261.5 c 128,-1,24
 123 250 123 250 123 233 c 2,25,-1
 123 82 l 2,26,27
 123 33 123 33 130 0 c 1,28,29
 96 -4 96 -4 61 -4 c 0,30,31
 44 -4 44 -4 44 11 c 2,32,-1
 44 233 l 2,33,34
 44 279 44 279 74 304 c 1,35,36
 44 327 44 327 44 375 c 2,37,-1
 44 565 l 2,38,39
 44 586 44 586 35.5 594.5 c 128,-1,40
 27 603 27 603 6 603 c 1,41,42
 6 660 6 660 70 660 c 0,43,44
 123 660 123 660 123 591 c 2,45,-1
 123 379 l 2,46,47
 123 361 123 361 136 350 c 128,-1,48
 149 339 149 339 168.5 339 c 128,-1,49
 188 339 188 339 202 350 c 128,-1,50
 216 361 216 361 216 379 c 2,51,-1
 216 568 l 2,0,1
EndSplineSet
EndChar

StartChar: Y
Encoding: 89 89 60
Width: 330
GlyphClass: 2
Flags: W
LayerCount: 2
Fore
SplineSet
215 568 m 2,0,1
 215 617 215 617 208 650 c 1,2,3
 242 654 242 654 277 654 c 0,4,5
 294 654 294 654 294 639 c 2,6,-1
 294 96 l 2,7,8
 294 46 294 46 260 18 c 128,-1,9
 226 -10 226 -10 168.5 -10 c 128,-1,10
 111 -10 111 -10 77 15.5 c 128,-1,11
 43 41 43 41 43 82 c 2,12,-1
 43 150 l 2,13,14
 43 168 43 168 69 175 c 0,15,16
 83 179 83 179 97 179 c 128,-1,17
 111 179 111 179 125 176 c 1,18,19
 122 152 122 152 122 125 c 2,20,-1
 122 96 l 2,21,22
 122 77 122 77 135 66.5 c 128,-1,23
 148 56 148 56 169 56 c 128,-1,24
 190 56 190 56 202.5 66.5 c 128,-1,25
 215 77 215 77 215 96 c 2,26,-1
 215 252 l 1,27,28
 189 226 189 226 145 226 c 0,29,30
 43 226 43 226 43 322 c 2,31,-1
 43 565 l 2,32,33
 43 586 43 586 34.5 594.5 c 128,-1,34
 26 603 26 603 5 603 c 1,35,36
 5 660 5 660 69 660 c 0,37,38
 122 660 122 660 122 591 c 2,39,-1
 122 328 l 2,40,41
 122 292 122 292 158.5 292 c 128,-1,42
 195 292 195 292 215 327 c 1,43,-1
 215 568 l 2,0,1
EndSplineSet
EndChar

StartChar: Z
Encoding: 90 90 61
Width: 285
GlyphClass: 2
Flags: W
LayerCount: 2
Fore
SplineSet
197 66 m 2,0,1
 235 66 235 66 261 72 c 1,2,3
 267 52 267 52 267 20 c 0,4,5
 267 0 267 0 251 0 c 2,6,-1
 22 0 l 1,7,8
 17 28 17 28 17 59 c 128,-1,9
 17 90 17 90 26 139 c 128,-1,10
 35 188 35 188 61 245.5 c 128,-1,11
 87 303 87 303 114 358 c 0,12,13
 181 496 181 496 181 584 c 1,14,-1
 93 584 l 2,15,16
 55 584 55 584 31 578 c 1,17,18
 22 598 22 598 22 630 c 0,19,20
 22 650 22 650 38 650 c 2,21,-1
 262 650 l 1,22,23
 266 624 266 624 266 584.5 c 128,-1,24
 266 545 266 545 247.5 475 c 128,-1,25
 229 405 229 405 196 342 c 0,26,27
 105 167 105 167 102 66 c 1,28,-1
 197 66 l 2,0,1
EndSplineSet
EndChar

StartChar: bracketleft
Encoding: 91 91 62
Width: 221
GlyphClass: 2
Flags: W
LayerCount: 2
Fore
SplineSet
147 697 m 2,0,1
 173 697 173 697 201 702 c 1,2,3
 209 678 209 678 209 651 c 0,4,5
 209 635 209 635 195 635 c 2,6,-1
 113 635 l 1,7,-1
 113 -90 l 1,8,-1
 147 -90 l 2,9,10
 183 -90 183 -90 201 -85 c 1,11,12
 209 -109 209 -109 209 -136 c 0,13,14
 209 -152 209 -152 195 -152 c 2,15,-1
 38 -152 l 1,16,-1
 38 697 l 1,17,-1
 147 697 l 2,0,1
EndSplineSet
EndChar

StartChar: backslash
Encoding: 92 92 63
Width: 468
GlyphClass: 2
Flags: W
LayerCount: 2
Fore
SplineSet
8 681 m 1,0,1
 32 697 32 697 58 697 c 128,-1,2
 84 697 84 697 92 682 c 1,3,-1
 425 -75 l 2,4,5
 434 -95 434 -95 454 -128 c 1,6,-1
 460 -136 l 1,7,8
 438 -152 438 -152 410.5 -152 c 128,-1,9
 383 -152 383 -152 377 -137 c 2,10,-1
 44 620 l 2,11,12
 33 645 33 645 14 672 c 2,13,-1
 8 681 l 1,0,1
EndSplineSet
EndChar

StartChar: bracketright
Encoding: 93 93 64
Width: 221
GlyphClass: 2
Flags: W
LayerCount: 2
Fore
SplineSet
108 -90 m 1,0,-1
 108 635 l 1,1,-1
 26 635 l 2,2,3
 12 635 12 635 12 649 c 0,4,5
 12 674 12 674 20 702 c 1,6,7
 37 697 37 697 74 697 c 2,8,-1
 183 697 l 1,9,-1
 183 -152 l 1,10,-1
 26 -152 l 2,11,12
 12 -152 12 -152 12 -138 c 0,13,14
 12 -111 12 -111 20 -85 c 1,15,16
 37 -90 37 -90 74 -90 c 2,17,-1
 108 -90 l 1,0,-1
EndSplineSet
EndChar

StartChar: asciicircum
Encoding: 94 94 65
Width: 259
GlyphClass: 2
Flags: W
LayerCount: 2
Fore
SplineSet
62 513 m 1,0,1
 20 528 20 528 20 539 c 0,2,3
 20 542 20 542 22 545 c 2,4,-1
 75 642 l 1,5,-1
 90 676 l 1,6,7
 100 684 100 684 127 684 c 128,-1,8
 154 684 154 684 168 677 c 1,9,10
 173 662 173 662 184 642 c 2,11,-1
 237 545 l 2,12,13
 239 542 239 542 239 538 c 128,-1,14
 239 534 239 534 234 531 c 2,15,-1
 197 513 l 1,16,17
 192 526 192 526 180 543 c 2,18,-1
 129 618 l 1,19,-1
 79 543 l 1,20,-1
 62 513 l 1,0,1
EndSplineSet
EndChar

StartChar: underscore
Encoding: 95 95 66
Width: 270
GlyphClass: 2
Flags: W
LayerCount: 2
Fore
SplineSet
80 -9 m 2,0,1
 47 -9 47 -9 30 -14 c 1,2,3
 23 8 23 8 23 27.5 c 128,-1,4
 23 47 23 47 36 47 c 2,5,-1
 190 47 l 1,6,-1
 242 52 l 1,7,8
 247 30 247 30 247 10.5 c 128,-1,9
 247 -9 247 -9 234 -9 c 2,10,-1
 80 -9 l 2,0,1
EndSplineSet
EndChar

StartChar: grave
Encoding: 96 96 67
Width: 287
GlyphClass: 2
Flags: W
LayerCount: 2
Fore
SplineSet
233 560 m 2,0,1
 235 557 235 557 235 553 c 128,-1,2
 235 549 235 549 230 546 c 2,3,-1
 194 528 l 1,4,5
 187 541 187 541 176 558 c 2,6,-1
 118 643 l 2,7,8
 115 648 115 648 115 652 c 0,9,10
 115 659 115 659 140.5 669.5 c 128,-1,11
 166 680 166 680 176 683 c 2,12,-1
 186 686 l 1,13,14
 190 663 190 663 199 642 c 2,15,-1
 233 560 l 2,0,1
EndSplineSet
EndChar

StartChar: a
Encoding: 97 97 68
Width: 296
GlyphClass: 2
Flags: W
LayerCount: 2
Fore
SplineSet
133 183 m 2,0,1
 100 161 100 161 100 109.5 c 128,-1,2
 100 58 100 58 131.5 58 c 128,-1,3
 163 58 163 58 181 94 c 1,4,-1
 181 215 l 1,5,-1
 133 183 l 2,0,1
144 500 m 0,6,7
 256 500 256 500 256 401 c 2,8,-1
 256 83 l 2,9,10
 256 62 256 62 263.5 53 c 128,-1,11
 271 44 271 44 292 44 c 1,12,13
 293 18 293 18 278.5 4 c 128,-1,14
 264 -10 264 -10 237 -10 c 0,15,16
 195 -10 195 -10 186 21 c 1,17,18
 155 -10 155 -10 113 -10 c 128,-1,19
 71 -10 71 -10 46 22 c 128,-1,20
 21 54 21 54 21 108 c 0,21,22
 21 190 21 190 90 232 c 2,23,-1
 181 286 l 1,24,-1
 181 394 l 2,25,26
 181 436 181 436 141.5 436 c 128,-1,27
 102 436 102 436 102 389 c 2,28,-1
 102 356 l 1,29,-1
 105 309 l 1,30,31
 92 306 92 306 78.5 306 c 128,-1,32
 65 306 65 306 53 310 c 0,33,34
 29 316 29 316 29 333 c 2,35,-1
 29 415 l 2,36,37
 29 455 29 455 60.5 477.5 c 128,-1,38
 92 500 92 500 144 500 c 0,6,7
EndSplineSet
EndChar

StartChar: b
Encoding: 98 98 69
Width: 295
GlyphClass: 2
Flags: W
LayerCount: 2
Fore
SplineSet
36 620 m 2,0,1
 36 650 36 650 27 681 c 1,2,3
 57 697 57 697 91 697 c 0,4,5
 111 697 111 697 111 682 c 2,6,-1
 111 474 l 1,7,8
 142 500 142 500 175 500 c 0,9,10
 263 500 263 500 263 398 c 2,11,-1
 263 106 l 2,12,13
 263 56 263 56 232 28 c 128,-1,14
 201 0 201 0 148 0 c 2,15,-1
 36 0 l 1,16,-1
 36 620 l 2,0,1
111 64 m 1,17,-1
 150 64 l 2,18,19
 167 64 167 64 177.5 74.5 c 128,-1,20
 188 85 188 85 188 102 c 2,21,-1
 188 397 l 2,22,23
 188 431 188 431 158 431 c 128,-1,24
 128 431 128 431 111 400 c 1,25,-1
 111 64 l 1,17,-1
EndSplineSet
EndChar

StartChar: c
Encoding: 99 99 70
Width: 280
GlyphClass: 2
Flags: W
LayerCount: 2
Fore
SplineSet
224 101 m 1,0,1
 264 83 264 83 264 49 c 0,2,3
 264 38 264 38 255 31 c 1,4,5
 215 -10 215 -10 134 -10 c 0,6,7
 32 -10 32 -10 32 102 c 2,8,-1
 32 402 l 2,9,10
 32 500 32 500 148 500 c 0,11,12
 199 500 199 500 228 477 c 128,-1,13
 257 454 257 454 257 415 c 2,14,-1
 257 333 l 2,15,16
 257 316 257 316 233 310 c 0,17,18
 221 306 221 306 207.5 306 c 128,-1,19
 194 306 194 306 181 309 c 1,20,21
 184 331 184 331 184 356 c 2,22,-1
 184 389 l 2,23,24
 184 414 184 414 175 425 c 128,-1,25
 166 436 166 436 144 436 c 0,26,27
 107 436 107 436 107 405 c 2,28,-1
 107 114 l 2,29,30
 107 83 107 83 117 69 c 128,-1,31
 127 55 127 55 150.5 55 c 128,-1,32
 174 55 174 55 196 70 c 128,-1,33
 218 85 218 85 224 101 c 1,0,1
EndSplineSet
EndChar

StartChar: d
Encoding: 100 100 71
Width: 302
GlyphClass: 2
Flags: W
LayerCount: 2
Fore
SplineSet
184 426 m 1,0,-1
 145 426 l 2,1,2
 128 426 128 426 117.5 415.5 c 128,-1,3
 107 405 107 405 107 388 c 2,4,-1
 107 93 l 2,5,6
 107 58 107 58 136 58 c 0,7,8
 151 58 151 58 164.5 69.5 c 128,-1,9
 178 81 178 81 184 94 c 1,10,-1
 184 426 l 1,0,-1
184 620 m 2,11,12
 184 650 184 650 175 681 c 1,13,14
 205 697 205 697 239 697 c 0,15,16
 259 697 259 697 259 682 c 2,17,-1
 259 83 l 2,18,19
 259 62 259 62 266.5 53 c 128,-1,20
 274 44 274 44 295 44 c 1,21,22
 296 18 296 18 281.5 4 c 128,-1,23
 267 -10 267 -10 240 -10 c 0,24,25
 200 -10 200 -10 189 21 c 1,26,27
 158 -10 158 -10 119 -10 c 128,-1,28
 80 -10 80 -10 56 16.5 c 128,-1,29
 32 43 32 43 32 92 c 2,30,-1
 32 384 l 2,31,32
 32 434 32 434 63 462 c 128,-1,33
 94 490 94 490 147 490 c 2,34,-1
 184 490 l 1,35,-1
 184 620 l 2,11,12
EndSplineSet
EndChar

StartChar: e
Encoding: 101 101 72
Width: 285
GlyphClass: 2
Flags: W
LayerCount: 2
Fore
SplineSet
186 393 m 0,0,1
 186 413 186 413 174 424.5 c 128,-1,2
 162 436 162 436 144 436 c 0,3,4
 107 436 107 436 107 405 c 2,5,-1
 107 262 l 1,6,-1
 155 298 l 2,7,8
 186 321 186 321 186 393 c 0,0,1
32 89 m 2,9,-1
 32 402 l 2,10,11
 32 500 32 500 147.5 500 c 128,-1,12
 263 500 263 500 263 390 c 0,13,14
 263 346 263 346 247 309 c 128,-1,15
 231 272 231 272 203 253 c 2,16,-1
 107 187 l 1,17,-1
 107 96 l 2,18,19
 107 54 107 54 146.5 54 c 128,-1,20
 186 54 186 54 186 101 c 2,21,-1
 186 124 l 1,22,-1
 183 171 l 1,23,24
 196 174 196 174 209.5 174 c 128,-1,25
 223 174 223 174 235 170 c 0,26,27
 259 164 259 164 259 147 c 2,28,-1
 259 75 l 2,29,30
 259 35 259 35 227.5 12.5 c 128,-1,31
 196 -10 196 -10 144 -10 c 0,32,33
 32 -10 32 -10 32 89 c 2,9,-1
EndSplineSet
EndChar

StartChar: f
Encoding: 102 102 73
Width: 248
GlyphClass: 2
Flags: W
LayerCount: 2
Fore
SplineSet
124 82 m 2,0,1
 124 44 124 44 131 2 c 1,2,3
 101 -4 101 -4 66 -4 c 0,4,5
 49 -4 49 -4 49 11 c 2,6,-1
 49 410 l 1,7,-1
 18 405 l 1,8,9
 11 431 11 431 11 450.5 c 128,-1,10
 11 470 11 470 24 470 c 2,11,-1
 49 470 l 1,12,-1
 49 601 l 2,13,14
 49 646 49 646 76 673 c 128,-1,15
 103 700 103 700 155 700 c 128,-1,16
 207 700 207 700 237.5 677.5 c 128,-1,17
 268 655 268 655 268 615 c 2,18,-1
 268 564 l 2,19,20
 268 547 268 547 244 540 c 0,21,22
 232 537 232 537 218.5 537 c 128,-1,23
 205 537 205 537 192 540 c 1,24,25
 195 562 195 562 195 587 c 2,26,-1
 195 593 l 2,27,28
 195 615 195 615 187 625.5 c 128,-1,29
 179 636 179 636 158.5 636 c 128,-1,30
 138 636 138 636 131 625 c 128,-1,31
 124 614 124 614 124 591 c 2,32,-1
 124 470 l 1,33,-1
 174 470 l 1,34,-1
 226 475 l 1,35,36
 231 449 231 449 231 429.5 c 128,-1,37
 231 410 231 410 218 410 c 2,38,-1
 124 410 l 1,39,-1
 124 82 l 2,0,1
EndSplineSet
EndChar

StartChar: g
Encoding: 103 103 74
Width: 287
GlyphClass: 2
Flags: W
LayerCount: 2
Fore
SplineSet
150 67 m 1,0,-1
 170 67 l 2,1,2
 220 67 220 67 246 38 c 128,-1,3
 272 9 272 9 272 -44 c 0,4,5
 272 -152 272 -152 174 -152 c 2,6,-1
 124 -152 l 2,7,8
 74 -152 74 -152 48 -122.5 c 128,-1,9
 22 -93 22 -93 22 -40 c 0,10,11
 22 33 22 33 75 57 c 1,12,-1
 75 127 l 1,13,14
 28 152 28 152 28 216 c 2,15,-1
 28 384 l 2,16,17
 28 434 28 434 59 462 c 128,-1,18
 90 490 90 490 143 490 c 2,19,-1
 194 490 l 1,20,-1
 255 494 l 1,21,-1
 255 220 l 2,22,23
 255 172 255 172 226.5 144.5 c 128,-1,24
 198 117 198 117 150 114 c 1,25,-1
 150 67 l 1,0,-1
103 388 m 2,26,-1
 103 216 l 2,27,28
 103 199 103 199 114 187.5 c 128,-1,29
 125 176 125 176 141.5 176 c 128,-1,30
 158 176 158 176 169 187.5 c 128,-1,31
 180 199 180 199 180 216 c 2,32,-1
 180 426 l 1,33,-1
 141 426 l 2,34,35
 124 426 124 426 113.5 415.5 c 128,-1,36
 103 405 103 405 103 388 c 2,26,-1
173 4 m 2,37,-1
 121 4 l 2,38,39
 94 4 94 4 94 -42.5 c 128,-1,40
 94 -89 94 -89 121 -89 c 2,41,-1
 173 -89 l 2,42,43
 200 -89 200 -89 200 -42.5 c 128,-1,44
 200 4 200 4 173 4 c 2,37,-1
EndSplineSet
EndChar

StartChar: h
Encoding: 104 104 75
Width: 304
GlyphClass: 2
Flags: W
LayerCount: 2
Fore
SplineSet
36 620 m 2,0,1
 36 650 36 650 27 681 c 1,2,3
 57 697 57 697 91 697 c 0,4,5
 111 697 111 697 111 682 c 2,6,-1
 111 474 l 1,7,8
 142 500 142 500 179 500 c 128,-1,9
 216 500 216 500 239.5 475 c 128,-1,10
 263 450 263 450 263 404 c 2,11,-1
 263 83 l 2,12,13
 263 62 263 62 270.5 53 c 128,-1,14
 278 44 278 44 299 44 c 1,15,16
 300 18 300 18 285.5 4 c 128,-1,17
 271 -10 271 -10 243 -10 c 128,-1,18
 215 -10 215 -10 201.5 7 c 128,-1,19
 188 24 188 24 188 63 c 2,20,-1
 188 398 l 2,21,22
 188 431 188 431 154 431 c 0,23,24
 126 431 126 431 111 400 c 1,25,-1
 111 82 l 2,26,27
 111 34 111 34 118 2 c 1,28,29
 88 -4 88 -4 53 -4 c 0,30,31
 36 -4 36 -4 36 11 c 2,32,-1
 36 620 l 2,0,1
EndSplineSet
EndChar

StartChar: i
Encoding: 105 105 76
Width: 163
GlyphClass: 2
Flags: W
LayerCount: 2
Fore
SplineSet
38 638 m 128,-1,1
 38 695 38 695 81 695 c 128,-1,2
 124 695 124 695 124 638 c 128,-1,3
 124 581 124 581 81 581 c 128,-1,0
 38 581 38 581 38 638 c 128,-1,1
19 490 m 2,4,-1
 119 490 l 1,5,-1
 119 83 l 2,6,7
 119 62 119 62 126.5 53 c 128,-1,8
 134 44 134 44 155 44 c 1,9,10
 156 18 156 18 141.5 4 c 128,-1,11
 127 -10 127 -10 99 -10 c 128,-1,12
 71 -10 71 -10 57.5 7 c 128,-1,13
 44 24 44 24 44 63 c 2,14,-1
 44 430 l 1,15,-1
 13 425 l 1,16,17
 6 451 6 451 6 470.5 c 128,-1,18
 6 490 6 490 19 490 c 2,4,-1
EndSplineSet
EndChar

StartChar: j
Encoding: 106 106 77
Width: 229
GlyphClass: 2
Flags: W
LayerCount: 2
Fore
SplineSet
112 643 m 128,-1,1
 112 700 112 700 155 700 c 128,-1,2
 198 700 198 700 198 643 c 128,-1,3
 198 586 198 586 155 586 c 128,-1,0
 112 586 112 586 112 643 c 128,-1,1
87 -162 m 0,4,5
 -18 -162 -18 -162 -18 -86 c 2,6,-1
 -18 -44 l 2,7,8
 -18 -27 -18 -27 6 -20 c 0,9,10
 18 -17 18 -17 31.5 -17 c 128,-1,11
 45 -17 45 -17 58 -20 c 1,12,13
 55 -42 55 -42 55 -67 c 2,14,-1
 55 -72 l 2,15,16
 55 -98 55 -98 86.5 -98 c 128,-1,17
 118 -98 118 -98 118 -63 c 2,18,-1
 118 430 l 1,19,-1
 11 425 l 1,20,21
 4 451 4 451 4 470.5 c 128,-1,22
 4 490 4 490 17 490 c 2,23,-1
 193 490 l 1,24,-1
 193 -71 l 2,25,26
 193 -116 193 -116 163.5 -139 c 128,-1,27
 134 -162 134 -162 87 -162 c 0,4,5
EndSplineSet
EndChar

StartChar: k
Encoding: 107 107 78
Width: 306
GlyphClass: 2
Flags: W
LayerCount: 2
Fore
SplineSet
188 408 m 2,0,1
 188 446 188 446 181 490 c 1,2,3
 211 494 211 494 246 494 c 0,4,5
 263 494 263 494 263 479 c 2,6,-1
 263 297 l 2,7,8
 263 251 263 251 233 224 c 1,9,10
 263 199 263 199 263 151 c 2,11,-1
 263 83 l 2,12,13
 263 62 263 62 270.5 53 c 128,-1,14
 278 44 278 44 299 44 c 1,15,16
 300 19 300 19 284.5 4.5 c 128,-1,17
 269 -10 269 -10 241 -10 c 128,-1,18
 213 -10 213 -10 200.5 6 c 128,-1,19
 188 22 188 22 188 59 c 2,20,-1
 188 152 l 2,21,22
 188 170 188 170 176.5 181 c 128,-1,23
 165 192 165 192 148 192 c 2,24,-1
 111 192 l 1,25,-1
 111 82 l 2,26,27
 111 34 111 34 118 2 c 1,28,29
 88 -4 88 -4 53 -4 c 0,30,31
 36 -4 36 -4 36 11 c 2,32,-1
 36 620 l 2,33,34
 36 650 36 650 27 681 c 1,35,36
 57 697 57 697 91 697 c 0,37,38
 111 697 111 697 111 682 c 2,39,-1
 111 252 l 1,40,-1
 150 252 l 2,41,42
 165 252 165 252 176.5 263.5 c 128,-1,43
 188 275 188 275 188 292 c 2,44,-1
 188 408 l 2,0,1
EndSplineSet
EndChar

StartChar: l
Encoding: 108 108 79
Width: 156
GlyphClass: 2
Flags: W
LayerCount: 2
Fore
SplineSet
37 620 m 2,0,1
 37 643 37 643 28 681 c 1,2,3
 58 697 58 697 92 697 c 0,4,5
 112 697 112 697 112 682 c 2,6,-1
 112 83 l 2,7,8
 112 62 112 62 119.5 53 c 128,-1,9
 127 44 127 44 148 44 c 1,10,11
 149 18 149 18 134.5 4 c 128,-1,12
 120 -10 120 -10 92 -10 c 128,-1,13
 64 -10 64 -10 50.5 7 c 128,-1,14
 37 24 37 24 37 63 c 2,15,-1
 37 620 l 2,0,1
EndSplineSet
EndChar

StartChar: m
Encoding: 109 109 80
Width: 456
GlyphClass: 2
Flags: W
LayerCount: 2
Fore
SplineSet
119 82 m 2,0,1
 119 33 119 33 126 0 c 1,2,3
 96 -4 96 -4 61 -4 c 0,4,5
 44 -4 44 -4 44 11 c 2,6,-1
 44 407 l 2,7,8
 44 428 44 428 36.5 437 c 128,-1,9
 29 446 29 446 8 446 c 1,10,11
 7 472 7 472 21.5 486 c 128,-1,12
 36 500 36 500 68.5 500 c 128,-1,13
 101 500 101 500 114 469 c 1,14,15
 145 500 145 500 188.5 500 c 128,-1,16
 232 500 232 500 254 461 c 1,17,18
 288 500 288 500 329.5 500 c 128,-1,19
 371 500 371 500 393 475 c 128,-1,20
 415 450 415 450 415 404 c 2,21,-1
 415 83 l 2,22,23
 415 62 415 62 422.5 53 c 128,-1,24
 430 44 430 44 451 44 c 1,25,26
 452 18 452 18 437.5 4 c 128,-1,27
 423 -10 423 -10 395 -10 c 128,-1,28
 367 -10 367 -10 353.5 7 c 128,-1,29
 340 24 340 24 340 63 c 2,30,-1
 340 398 l 2,31,32
 340 431 340 431 309 431 c 0,33,34
 282 431 282 431 267 400 c 1,35,-1
 267 82 l 2,36,37
 267 33 267 33 274 0 c 1,38,39
 244 -4 244 -4 209 -4 c 0,40,41
 192 -4 192 -4 192 11 c 2,42,-1
 192 398 l 2,43,44
 192 431 192 431 161 431 c 0,45,46
 134 431 134 431 119 400 c 1,47,-1
 119 82 l 2,0,1
EndSplineSet
EndChar

StartChar: n
Encoding: 110 110 81
Width: 312
GlyphClass: 2
Flags: W
LayerCount: 2
Fore
SplineSet
119 82 m 2,0,1
 119 33 119 33 126 0 c 1,2,3
 96 -4 96 -4 61 -4 c 0,4,5
 44 -4 44 -4 44 11 c 2,6,-1
 44 407 l 2,7,8
 44 428 44 428 36.5 437 c 128,-1,9
 29 446 29 446 8 446 c 1,10,11
 7 472 7 472 21.5 486 c 128,-1,12
 36 500 36 500 68 500 c 128,-1,13
 100 500 100 500 114 469 c 1,14,15
 147 500 147 500 185.5 500 c 128,-1,16
 224 500 224 500 247.5 475 c 128,-1,17
 271 450 271 450 271 404 c 2,18,-1
 271 83 l 2,19,20
 271 62 271 62 278.5 53 c 128,-1,21
 286 44 286 44 307 44 c 1,22,23
 308 18 308 18 293.5 4 c 128,-1,24
 279 -10 279 -10 251 -10 c 128,-1,25
 223 -10 223 -10 209.5 7 c 128,-1,26
 196 24 196 24 196 63 c 2,27,-1
 196 398 l 2,28,29
 196 431 196 431 162 431 c 0,30,31
 134 431 134 431 119 400 c 1,32,-1
 119 82 l 2,0,1
EndSplineSet
EndChar

StartChar: o
Encoding: 111 111 82
Width: 291
GlyphClass: 2
Flags: W
LayerCount: 2
Fore
SplineSet
32 92 m 2,0,-1
 32 394 l 2,1,2
 32 444 32 444 63 472 c 128,-1,3
 94 500 94 500 147 500 c 128,-1,4
 200 500 200 500 229.5 474 c 128,-1,5
 259 448 259 448 259 398 c 2,6,-1
 259 96 l 2,7,8
 259 46 259 46 227.5 18 c 128,-1,9
 196 -10 196 -10 143 -10 c 128,-1,10
 90 -10 90 -10 61 16 c 128,-1,11
 32 42 32 42 32 92 c 2,0,-1
107 398 m 2,12,-1
 107 92 l 2,13,14
 107 75 107 75 118 63.5 c 128,-1,15
 129 52 129 52 145.5 52 c 128,-1,16
 162 52 162 52 173 63.5 c 128,-1,17
 184 75 184 75 184 92 c 2,18,-1
 184 398 l 2,19,20
 184 415 184 415 173 426.5 c 128,-1,21
 162 438 162 438 145.5 438 c 128,-1,22
 129 438 129 438 118 426.5 c 128,-1,23
 107 415 107 415 107 398 c 2,12,-1
EndSplineSet
EndChar

StartChar: p
Encoding: 112 112 83
Width: 303
GlyphClass: 2
Flags: W
LayerCount: 2
Fore
SplineSet
119 64 m 1,0,-1
 158 64 l 2,1,2
 175 64 175 64 185.5 74.5 c 128,-1,3
 196 85 196 85 196 102 c 2,4,-1
 196 397 l 2,5,6
 196 432 196 432 167 432 c 0,7,8
 152 432 152 432 138.5 420.5 c 128,-1,9
 125 409 125 409 119 396 c 1,10,-1
 119 64 l 1,0,-1
119 0 m 1,11,-1
 119 -80 l 1,12,-1
 126 -146 l 1,13,14
 99 -157 99 -157 64 -157 c 0,15,16
 44 -157 44 -157 44 -142 c 2,17,-1
 44 407 l 2,18,19
 44 428 44 428 36.5 437 c 128,-1,20
 29 446 29 446 8 446 c 1,21,22
 7 472 7 472 21.5 486 c 128,-1,23
 36 500 36 500 68.5 500 c 128,-1,24
 101 500 101 500 114 469 c 1,25,26
 145 500 145 500 184 500 c 128,-1,27
 223 500 223 500 247 473.5 c 128,-1,28
 271 447 271 447 271 398 c 2,29,-1
 271 106 l 2,30,31
 271 56 271 56 240 28 c 128,-1,32
 209 0 209 0 156 0 c 2,33,-1
 119 0 l 1,11,-1
EndSplineSet
EndChar

StartChar: q
Encoding: 113 113 84
Width: 295
GlyphClass: 2
Flags: W
LayerCount: 2
Fore
SplineSet
184 426 m 1,0,-1
 145 426 l 2,1,2
 128 426 128 426 117.5 415.5 c 128,-1,3
 107 405 107 405 107 388 c 2,4,-1
 107 93 l 2,5,6
 107 59 107 59 137 59 c 128,-1,7
 167 59 167 59 184 90 c 1,8,-1
 184 426 l 1,0,-1
259 490 m 1,9,-1
 259 -80 l 1,10,-1
 266 -146 l 1,11,12
 239 -157 239 -157 204 -157 c 0,13,14
 184 -157 184 -157 184 -142 c 2,15,-1
 184 16 l 1,16,17
 153 -10 153 -10 120 -10 c 0,18,19
 32 -10 32 -10 32 92 c 2,20,-1
 32 384 l 2,21,22
 32 434 32 434 63 462 c 128,-1,23
 94 490 94 490 147 490 c 2,24,-1
 259 490 l 1,9,-1
EndSplineSet
EndChar

StartChar: r
Encoding: 114 114 85
Width: 280
GlyphClass: 2
Flags: W
LayerCount: 2
Fore
SplineSet
119 82 m 2,0,1
 119 34 119 34 126 2 c 1,2,3
 96 -4 96 -4 61 -4 c 0,4,5
 44 -4 44 -4 44 11 c 2,6,-1
 44 407 l 2,7,8
 44 428 44 428 36.5 437 c 128,-1,9
 29 446 29 446 8 446 c 1,10,11
 7 472 7 472 21.5 486 c 128,-1,12
 36 500 36 500 63 500 c 0,13,14
 103 500 103 500 113 460 c 1,15,16
 138 500 138 500 184 500 c 0,17,18
 266 500 266 500 266 421 c 2,19,-1
 266 321 l 2,20,21
 266 304 266 304 242 298 c 0,22,23
 230 294 230 294 216.5 294 c 128,-1,24
 203 294 203 294 190 297 c 1,25,26
 193 319 193 319 193 344 c 2,27,-1
 193 395 l 2,28,29
 193 428 193 428 163 428 c 0,30,31
 149 428 149 428 137 415 c 128,-1,32
 125 402 125 402 119 386 c 1,33,-1
 119 82 l 2,0,1
EndSplineSet
EndChar

StartChar: s
Encoding: 115 115 86
Width: 279
GlyphClass: 2
Flags: W
LayerCount: 2
Fore
SplineSet
98 99 m 2,0,1
 98 54 98 54 138.5 54 c 128,-1,2
 179 54 179 54 179 103 c 2,3,-1
 179 144 l 2,4,5
 179 181 179 181 153 197 c 2,6,-1
 65 250 l 2,7,8
 26 274 26 274 26 331 c 2,9,-1
 26 401 l 2,10,11
 26 445 26 445 54.5 472.5 c 128,-1,12
 83 500 83 500 138.5 500 c 128,-1,13
 194 500 194 500 223 477 c 128,-1,14
 252 454 252 454 252 414 c 2,15,-1
 252 351 l 2,16,17
 252 334 252 334 228 328 c 0,18,19
 216 324 216 324 202.5 324 c 128,-1,20
 189 324 189 324 176 327 c 1,21,22
 179 349 179 349 179 374 c 2,23,-1
 179 389 l 2,24,25
 179 436 179 436 141 436 c 0,26,27
 101 436 101 436 101 394 c 2,28,-1
 101 348 l 2,29,30
 101 313 101 313 123 301 c 2,31,-1
 211 250 l 2,32,33
 254 226 254 226 254 168 c 2,34,-1
 254 93 l 2,35,36
 254 45 254 45 225.5 17.5 c 128,-1,37
 197 -10 197 -10 142 -10 c 128,-1,38
 87 -10 87 -10 56 12 c 128,-1,39
 25 34 25 34 25 75 c 2,40,-1
 25 141 l 2,41,42
 25 158 25 158 49 164 c 0,43,44
 61 168 61 168 74.5 168 c 128,-1,45
 88 168 88 168 101 165 c 1,46,47
 98 143 98 143 98 118 c 2,48,-1
 98 99 l 2,0,1
EndSplineSet
EndChar

StartChar: t
Encoding: 116 116 87
Width: 283
GlyphClass: 2
Flags: W
LayerCount: 2
Fore
SplineSet
237 12.5 m 128,-1,1
 205 -10 205 -10 155.5 -10 c 128,-1,2
 106 -10 106 -10 76.5 15.5 c 128,-1,3
 47 41 47 41 47 84 c 2,4,-1
 47 430 l 1,5,-1
 16 425 l 1,6,7
 9 451 9 451 9 470.5 c 128,-1,8
 9 490 9 490 22 490 c 2,9,-1
 49 490 l 1,10,-1
 63 584 l 2,11,12
 67 606 67 606 100 606 c 0,13,14
 110 606 110 606 122 604 c 1,15,-1
 122 490 l 1,16,-1
 209 490 l 1,17,-1
 261 495 l 1,18,19
 266 469 266 469 266 449.5 c 128,-1,20
 266 430 266 430 253 430 c 2,21,-1
 122 430 l 1,22,-1
 122 96 l 2,23,24
 122 75 122 75 132.5 63.5 c 128,-1,25
 143 52 143 52 159 52 c 0,26,27
 196 52 196 52 196 101 c 2,28,-1
 196 174 l 1,29,-1
 193 221 l 1,30,31
 206 224 206 224 219.5 224 c 128,-1,32
 233 224 233 224 245 220 c 0,33,34
 269 214 269 214 269 197 c 2,35,-1
 269 77 l 2,36,0
 269 35 269 35 237 12.5 c 128,-1,1
EndSplineSet
EndChar

StartChar: u
Encoding: 117 117 88
Width: 311
GlyphClass: 2
Flags: W
LayerCount: 2
Fore
SplineSet
192 408 m 2,0,1
 192 446 192 446 185 490 c 1,2,3
 215 494 215 494 250 494 c 0,4,5
 267 494 267 494 267 479 c 2,6,-1
 267 83 l 2,7,8
 267 62 267 62 274.5 53 c 128,-1,9
 282 44 282 44 303 44 c 1,10,11
 304 18 304 18 289.5 4 c 128,-1,12
 275 -10 275 -10 248 -10 c 0,13,14
 208 -10 208 -10 197 21 c 1,15,16
 166 -10 166 -10 127 -10 c 128,-1,17
 88 -10 88 -10 64 16.5 c 128,-1,18
 40 43 40 43 40 92 c 2,19,-1
 40 407 l 2,20,21
 40 428 40 428 32.5 437 c 128,-1,22
 25 446 25 446 4 446 c 1,23,24
 3 471 3 471 18.5 485.5 c 128,-1,25
 34 500 34 500 62 500 c 128,-1,26
 90 500 90 500 102.5 484 c 128,-1,27
 115 468 115 468 115 431 c 2,28,-1
 115 93 l 2,29,30
 115 58 115 58 144 58 c 0,31,32
 159 58 159 58 172.5 69.5 c 128,-1,33
 186 81 186 81 192 94 c 1,34,-1
 192 408 l 2,0,1
EndSplineSet
EndChar

StartChar: v
Encoding: 118 118 89
Width: 301
GlyphClass: 2
Flags: W
LayerCount: 2
Fore
SplineSet
95.5 484 m 128,-1,1
 108 468 108 468 108 412.5 c 128,-1,2
 108 357 108 357 122 246 c 128,-1,3
 136 135 136 135 153 64 c 1,4,5
 199 269 199 269 199 427 c 1,6,-1
 197 492 l 1,7,8
 216 496 216 496 233.5 496 c 128,-1,9
 251 496 251 496 265.5 492 c 128,-1,10
 280 488 280 488 280 472 c 0,11,12
 280 387 280 387 260 252 c 128,-1,13
 240 117 240 117 215 36 c 0,14,15
 204 0 204 0 179 0 c 2,16,-1
 120 0 l 2,17,18
 95 0 95 0 84 36 c 0,19,20
 62 112 62 112 47.5 222.5 c 128,-1,21
 33 333 33 333 33 407 c 0,22,23
 33 428 33 428 25.5 437 c 128,-1,24
 18 446 18 446 -3 446 c 1,25,26
 -4 471 -4 471 11.5 485.5 c 128,-1,27
 27 500 27 500 55 500 c 128,-1,0
 83 500 83 500 95.5 484 c 128,-1,1
EndSplineSet
EndChar

StartChar: w
Encoding: 119 119 90
Width: 453
GlyphClass: 2
Flags: W
LayerCount: 2
Fore
SplineSet
344 408 m 2,0,1
 344 446 344 446 337 490 c 1,2,3
 367 494 367 494 402 494 c 0,4,5
 419 494 419 494 419 479 c 2,6,-1
 419 96 l 2,7,8
 419 46 419 46 387.5 18 c 128,-1,9
 356 -10 356 -10 304.5 -10 c 128,-1,10
 253 -10 253 -10 226 17 c 1,11,12
 199 -10 199 -10 148.5 -10 c 128,-1,13
 98 -10 98 -10 69 16 c 128,-1,14
 40 42 40 42 40 92 c 2,15,-1
 40 407 l 2,16,17
 40 428 40 428 32.5 437 c 128,-1,18
 25 446 25 446 4 446 c 1,19,20
 3 471 3 471 18.5 485.5 c 128,-1,21
 34 500 34 500 62 500 c 128,-1,22
 90 500 90 500 102.5 484 c 128,-1,23
 115 468 115 468 115 431 c 2,24,-1
 115 92 l 2,25,26
 115 75 115 75 126 63.5 c 128,-1,27
 137 52 137 52 153 52 c 128,-1,28
 169 52 169 52 180.5 61.5 c 128,-1,29
 192 71 192 71 192 86 c 2,30,-1
 192 408 l 2,31,32
 192 446 192 446 185 490 c 1,33,34
 215 494 215 494 250 494 c 0,35,36
 267 494 267 494 267 479 c 2,37,-1
 267 86 l 2,38,39
 267 71 267 71 277.5 61.5 c 128,-1,40
 288 52 288 52 305 52 c 128,-1,41
 322 52 322 52 333 63.5 c 128,-1,42
 344 75 344 75 344 92 c 2,43,-1
 344 408 l 2,0,1
EndSplineSet
EndChar

StartChar: x
Encoding: 120 120 91
Width: 313
GlyphClass: 2
Flags: W
LayerCount: 2
Fore
SplineSet
195 408 m 2,0,1
 195 457 195 457 188 490 c 1,2,3
 218 494 218 494 253 494 c 0,4,5
 270 494 270 494 270 479 c 2,6,-1
 270 297 l 2,7,8
 270 251 270 251 240 224 c 1,9,10
 270 199 270 199 270 151 c 2,11,-1
 270 83 l 2,12,13
 270 62 270 62 277.5 53 c 128,-1,14
 285 44 285 44 306 44 c 1,15,16
 307 19 307 19 291.5 4.5 c 128,-1,17
 276 -10 276 -10 248 -10 c 128,-1,18
 220 -10 220 -10 207.5 6 c 128,-1,19
 195 22 195 22 195 59 c 2,20,-1
 195 152 l 2,21,22
 195 170 195 170 183.5 181 c 128,-1,23
 172 192 172 192 155.5 192 c 128,-1,24
 139 192 139 192 128.5 181 c 128,-1,25
 118 170 118 170 118 152 c 2,26,-1
 118 82 l 2,27,28
 118 44 118 44 125 0 c 1,29,30
 95 -4 95 -4 60 -4 c 0,31,32
 43 -4 43 -4 43 11 c 2,33,-1
 43 147 l 2,34,35
 43 195 43 195 73 220 c 1,36,37
 43 247 43 247 43 293 c 2,38,-1
 43 407 l 2,39,40
 43 428 43 428 35.5 437 c 128,-1,41
 28 446 28 446 7 446 c 1,42,43
 6 471 6 471 21.5 485.5 c 128,-1,44
 37 500 37 500 65 500 c 128,-1,45
 93 500 93 500 105.5 484 c 128,-1,46
 118 468 118 468 118 431 c 2,47,-1
 118 292 l 2,48,49
 118 274 118 274 129 263 c 128,-1,50
 140 252 140 252 156.5 252.5 c 128,-1,51
 173 253 173 253 184 264 c 128,-1,52
 195 275 195 275 195 292 c 2,53,-1
 195 408 l 2,0,1
EndSplineSet
EndChar

StartChar: y
Encoding: 121 121 92
Width: 304
GlyphClass: 2
Flags: W
LayerCount: 2
Fore
SplineSet
193 408 m 2,0,1
 193 457 193 457 186 490 c 1,2,3
 216 494 216 494 251 494 c 0,4,5
 268 494 268 494 268 479 c 2,6,-1
 268 -71 l 2,7,8
 268 -116 268 -116 236.5 -139 c 128,-1,9
 205 -162 205 -162 152 -162 c 128,-1,10
 99 -162 99 -162 70 -142 c 128,-1,11
 41 -122 41 -122 41 -87 c 2,12,-1
 41 -50 l 2,13,14
 41 -33 41 -33 65 -26 c 0,15,16
 77 -23 77 -23 90.5 -23 c 128,-1,17
 104 -23 104 -23 117 -26 c 1,18,19
 114 -50 114 -50 114 -68 c 2,20,-1
 114 -73 l 2,21,22
 114 -98 114 -98 153.5 -98 c 128,-1,23
 193 -98 193 -98 193 -63 c 2,24,-1
 193 36 l 1,25,26
 168 11 168 11 128.5 11 c 128,-1,27
 89 11 89 11 65 36.5 c 128,-1,28
 41 62 41 62 41 111 c 2,29,-1
 41 407 l 2,30,31
 41 428 41 428 33.5 437 c 128,-1,32
 26 446 26 446 5 446 c 1,33,34
 4 471 4 471 19.5 485.5 c 128,-1,35
 35 500 35 500 63 500 c 128,-1,36
 91 500 91 500 103.5 484 c 128,-1,37
 116 468 116 468 116 431 c 2,38,-1
 116 112 l 2,39,40
 116 79 116 79 142 79 c 0,41,42
 156 79 156 79 171 88.5 c 128,-1,43
 186 98 186 98 193 110 c 1,44,-1
 193 408 l 2,0,1
EndSplineSet
EndChar

StartChar: z
Encoding: 122 122 93
Width: 254
GlyphClass: 2
Flags: W
LayerCount: 2
Fore
SplineSet
77 430 m 2,0,1
 44 430 44 430 27 425 c 1,2,3
 20 451 20 451 20 470.5 c 128,-1,4
 20 490 20 490 33 490 c 2,5,-1
 232 490 l 1,6,7
 237 470 237 470 237 442.5 c 128,-1,8
 237 415 237 415 222.5 365.5 c 128,-1,9
 208 316 208 316 180 267 c 0,10,11
 100 131 100 131 97 60 c 1,12,-1
 179 60 l 1,13,-1
 231 65 l 1,14,15
 236 39 236 39 236 19.5 c 128,-1,16
 236 0 236 0 223 0 c 2,17,-1
 20 0 l 1,18,19
 15 19 15 19 15 46 c 128,-1,20
 15 73 15 73 30 122.5 c 128,-1,21
 45 172 45 172 74 221 c 0,22,23
 154 356 154 356 154 430 c 1,24,-1
 77 430 l 2,0,1
EndSplineSet
EndChar

StartChar: braceleft
Encoding: 123 123 94
Width: 241
GlyphClass: 2
Flags: W
LayerCount: 2
Fore
SplineSet
231 651 m 0,0,1
 231 635 231 635 213.5 635 c 128,-1,2
 196 635 196 635 183.5 624.5 c 128,-1,3
 171 614 171 614 171 595 c 2,4,-1
 171 319 l 2,5,6
 171 274 171 274 144 250 c 1,7,8
 171 226 171 226 171 181 c 2,9,-1
 171 -50 l 2,10,11
 171 -69 171 -69 183.5 -79.5 c 128,-1,12
 196 -90 196 -90 217 -90 c 1,13,14
 224 -112 224 -112 224 -132 c 128,-1,15
 224 -152 224 -152 211 -152 c 0,16,17
 158 -152 158 -152 127 -124 c 128,-1,18
 96 -96 96 -96 96 -46 c 2,19,-1
 96 178 l 2,20,21
 96 197 96 197 85 207.5 c 128,-1,22
 74 218 74 218 55 218 c 2,23,-1
 18 218 l 2,24,25
 5 218 5 218 5 232 c 0,26,27
 5 262 5 262 12 286 c 1,28,29
 28 281 28 281 62 281 c 128,-1,30
 96 281 96 281 96 321 c 2,31,-1
 96 591 l 2,32,33
 96 697 96 697 222 697 c 1,34,35
 231 678 231 678 231 651 c 0,0,1
EndSplineSet
EndChar

StartChar: bar
Encoding: 124 124 95
Width: 145
GlyphClass: 2
Flags: W
LayerCount: 2
Fore
SplineSet
107 -75 m 2,0,1
 107 -98 107 -98 116 -136 c 1,2,3
 86 -152 86 -152 62 -152 c 128,-1,4
 38 -152 38 -152 38 -137 c 2,5,-1
 38 620 l 2,6,7
 38 650 38 650 29 681 c 1,8,9
 59 697 59 697 83 697 c 128,-1,10
 107 697 107 697 107 682 c 2,11,-1
 107 -75 l 2,0,1
EndSplineSet
EndChar

StartChar: braceright
Encoding: 125 125 96
Width: 240
GlyphClass: 2
Flags: W
LayerCount: 2
Fore
SplineSet
24 635 m 0,0,1
 10 635 10 635 10 656 c 128,-1,2
 10 677 10 677 19 697 c 1,3,4
 145 697 145 697 145 591 c 2,5,-1
 145 321 l 2,6,7
 145 281 145 281 180 281 c 1,8,-1
 229 286 l 1,9,10
 236 261 236 261 236 239.5 c 128,-1,11
 236 218 236 218 223 218 c 2,12,-1
 186 218 l 2,13,14
 167 218 167 218 156 207.5 c 128,-1,15
 145 197 145 197 145 178 c 2,16,-1
 145 -46 l 2,17,18
 145 -96 145 -96 114 -124 c 128,-1,19
 83 -152 83 -152 30 -152 c 0,20,21
 17 -152 17 -152 17 -137 c 0,22,23
 17 -111 17 -111 24 -90 c 1,24,25
 45 -90 45 -90 57.5 -79.5 c 128,-1,26
 70 -69 70 -69 70 -50 c 2,27,-1
 70 181 l 2,28,29
 70 226 70 226 97 250 c 1,30,31
 70 274 70 274 70 319 c 2,32,-1
 70 595 l 2,33,34
 70 614 70 614 57.5 624.5 c 128,-1,35
 45 635 45 635 24 635 c 0,0,1
EndSplineSet
EndChar

StartChar: asciitilde
Encoding: 126 126 97
Width: 339
GlyphClass: 2
Flags: W
LayerCount: 2
Fore
SplineSet
64 255 m 1,0,1
 26 259 26 259 26 294 c 0,2,3
 26 298 26 298 27 303 c 0,4,5
 32 340 32 340 73 340 c 0,6,7
 79 340 79 340 87 339 c 2,8,-1
 245 318 l 2,9,10
 248 318 248 318 251 318 c 0,11,12
 272 318 272 318 276 343 c 1,13,14
 295 342 295 342 304 330 c 128,-1,15
 313 318 313 318 313 308 c 0,16,17
 313 258 313 258 266 258 c 0,18,19
 260 258 260 258 252 259 c 2,20,-1
 95 281 l 2,21,22
 92 281 92 281 89 281 c 0,23,24
 69 281 69 281 64 255 c 1,0,1
EndSplineSet
EndChar

StartChar: exclamdown
Encoding: 161 161 99
Width: 147
GlyphClass: 2
Flags: W
LayerCount: 2
Fore
SplineSet
49 -5 m 0,0,1
 33 -5 33 -5 33 12 c 2,2,-1
 43 400 l 1,3,-1
 39 494 l 1,4,5
 53 499 53 499 86 499 c 0,6,7
 102 499 102 499 102 482 c 2,8,-1
 112 94 l 1,9,-1
 116 0 l 1,10,11
 82 -5 82 -5 49 -5 c 0,0,1
113 609 m 128,-1,13
 113 558 113 558 71 558 c 128,-1,14
 29 558 29 558 29 609 c 128,-1,15
 29 660 29 660 71 660 c 128,-1,12
 113 660 113 660 113 609 c 128,-1,13
EndSplineSet
EndChar

StartChar: cent
Encoding: 162 162 100
Width: 273
GlyphClass: 2
Flags: W
LayerCount: 2
Fore
SplineSet
180 -55 m 2,0,1
 180 -85 180 -85 189 -116 c 1,2,3
 159 -132 159 -132 135 -132 c 128,-1,4
 111 -132 111 -132 111 -117 c 2,5,-1
 111 -9 l 1,6,7
 25 -1 25 -1 25 102 c 2,8,-1
 25 402 l 2,9,10
 25 487 25 487 111 498 c 1,11,-1
 111 550 l 2,12,13
 111 573 111 573 102 611 c 1,14,15
 132 627 132 627 156 627 c 128,-1,16
 180 627 180 627 180 612 c 2,17,-1
 180 495 l 1,18,19
 213 488 213 488 231.5 466.5 c 128,-1,20
 250 445 250 445 250 415 c 2,21,-1
 250 333 l 2,22,23
 250 316 250 316 226 310 c 0,24,25
 214 306 214 306 200.5 306 c 128,-1,26
 187 306 187 306 174 309 c 1,27,28
 177 331 177 331 177 356 c 2,29,-1
 177 389 l 2,30,31
 177 414 177 414 168 425 c 128,-1,32
 159 436 159 436 137 436 c 0,33,34
 100 436 100 436 100 405 c 2,35,-1
 100 114 l 2,36,37
 100 83 100 83 110 69 c 128,-1,38
 120 55 120 55 143.5 55 c 128,-1,39
 167 55 167 55 189 70 c 128,-1,40
 211 85 211 85 217 101 c 1,41,42
 257 83 257 83 257 49 c 0,43,44
 257 38 257 38 248 31 c 1,45,46
 221 4 221 4 180 -5 c 1,47,-1
 180 -55 l 2,0,1
EndSplineSet
EndChar

StartChar: sterling
Encoding: 163 163 101
Width: 311
GlyphClass: 2
Flags: W
LayerCount: 2
Fore
SplineSet
75 294 m 1,0,1
 42 294 42 294 25 289 c 1,2,3
 18 315 18 315 18 334.5 c 128,-1,4
 18 354 18 354 31 354 c 2,5,-1
 75 354 l 1,6,-1
 75 561 l 2,7,8
 75 606 75 606 102 633 c 128,-1,9
 129 660 129 660 181 660 c 128,-1,10
 233 660 233 660 263.5 637.5 c 128,-1,11
 294 615 294 615 294 575 c 2,12,-1
 294 524 l 2,13,14
 294 507 294 507 270 500 c 0,15,16
 258 497 258 497 244.5 497 c 128,-1,17
 231 497 231 497 218 500 c 1,18,19
 221 522 221 522 221 547 c 2,20,-1
 221 553 l 2,21,22
 221 575 221 575 213 585.5 c 128,-1,23
 205 596 205 596 184.5 596 c 128,-1,24
 164 596 164 596 157 585 c 128,-1,25
 150 574 150 574 150 551 c 2,26,-1
 150 354 l 1,27,-1
 177 354 l 1,28,-1
 229 359 l 1,29,30
 234 333 234 333 234 313.5 c 128,-1,31
 234 294 234 294 221 294 c 2,32,-1
 150 294 l 1,33,-1
 150 66 l 1,34,-1
 220 66 l 2,35,36
 256 66 256 66 274 71 c 1,37,38
 282 43 282 43 282 16 c 0,39,40
 282 0 282 0 268 0 c 2,41,-1
 75 0 l 2,42,43
 42 0 42 0 25 -5 c 1,44,45
 18 21 18 21 18 40.5 c 128,-1,46
 18 60 18 60 31 60 c 2,47,-1
 75 60 l 1,48,-1
 75 294 l 1,0,1
EndSplineSet
EndChar

StartChar: currency
Encoding: 164 164 102
Width: 350
GlyphClass: 2
Flags: W
LayerCount: 2
Fore
SplineSet
281 206 m 1,0,1
 300 189 300 189 328 173 c 1,2,3
 318 141 318 141 301 123.5 c 128,-1,4
 284 106 284 106 273 117 c 2,5,-1
 239 151 l 1,6,7
 213 135 213 135 174 135 c 128,-1,8
 135 135 135 135 109 149 c 1,9,-1
 84 112 l 1,10,11
 49 123 49 123 31 141 c 1,12,13
 18 156 18 156 28 166 c 2,14,-1
 68 206 l 1,15,16
 66 222 66 222 66 233 c 2,17,-1
 66 369 l 2,18,19
 66 384 66 384 69 398 c 1,20,21
 53 414 53 414 22 434 c 1,22,23
 33 469 33 469 51 487 c 1,24,25
 66 500 66 500 76 490 c 2,26,-1
 111 455 l 1,27,28
 140 471 140 471 177 471 c 128,-1,29
 214 471 214 471 240 457 c 1,30,-1
 267 496 l 1,31,32
 299 486 299 486 316.5 469 c 128,-1,33
 334 452 334 452 323 441 c 2,34,-1
 282 400 l 1,35,36
 285 386 285 386 285 373 c 2,37,-1
 285 237 l 2,38,39
 285 219 285 219 281 206 c 1,0,1
131 377 m 2,40,-1
 131 229 l 2,41,42
 131 210 131 210 143.5 198 c 128,-1,43
 156 186 156 186 175 186 c 128,-1,44
 194 186 194 186 206.5 198 c 128,-1,45
 219 210 219 210 219 229 c 2,46,-1
 219 377 l 2,47,48
 219 396 219 396 206.5 408 c 128,-1,49
 194 420 194 420 175 420 c 128,-1,50
 156 420 156 420 143.5 408 c 128,-1,51
 131 396 131 396 131 377 c 2,40,-1
EndSplineSet
EndChar

StartChar: yen
Encoding: 165 165 103
Width: 327
GlyphClass: 2
Flags: W
LayerCount: 2
Fore
SplineSet
130 69 m 2,0,1
 105 69 105 69 80 64 c 1,2,3
 73 90 73 90 73 109.5 c 128,-1,4
 73 129 73 129 86 129 c 2,5,-1
 132 129 l 1,6,-1
 132 163 l 1,7,-1
 130 163 l 2,8,9
 105 163 105 163 80 158 c 1,10,11
 73 184 73 184 73 203.5 c 128,-1,12
 73 223 73 223 86 223 c 2,13,-1
 132 223 l 1,14,-1
 132 257 l 1,15,16
 115 262 115 262 104 292 c 0,17,18
 81 351 81 351 65 427.5 c 128,-1,19
 49 504 49 504 49 545 c 128,-1,20
 49 586 49 586 41.5 595 c 128,-1,21
 34 604 34 604 13 604 c 1,22,23
 12 629 12 629 30 643.5 c 128,-1,24
 48 658 48 658 76.5 658 c 128,-1,25
 105 658 105 658 117.5 642 c 128,-1,26
 130 626 130 626 130 589 c 0,27,28
 130 449 130 449 175 322 c 1,29,30
 221 478 221 478 221 585 c 1,31,-1
 219 650 l 1,32,33
 234 654 234 654 258.5 654 c 128,-1,34
 283 654 283 654 295.5 650 c 128,-1,35
 308 646 308 646 308 630 c 0,36,37
 308 549 308 549 288 455 c 128,-1,38
 268 361 268 361 239 292 c 0,39,40
 226 261 226 261 211 257 c 1,41,-1
 211 223 l 1,42,-1
 213 223 l 1,43,-1
 265 228 l 1,44,45
 270 202 270 202 270 182.5 c 128,-1,46
 270 163 270 163 257 163 c 2,47,-1
 211 163 l 1,48,-1
 211 129 l 1,49,-1
 213 129 l 1,50,-1
 265 134 l 1,51,52
 270 108 270 108 270 88.5 c 128,-1,53
 270 69 270 69 257 69 c 2,54,-1
 211 69 l 1,55,-1
 215 0 l 1,56,57
 181 -5 181 -5 148 -5 c 0,58,59
 132 -5 132 -5 132 12 c 2,60,-1
 132 69 l 1,61,-1
 130 69 l 2,0,1
EndSplineSet
EndChar

StartChar: brokenbar
Encoding: 166 166 104
Width: 147
GlyphClass: 2
Flags: W
LayerCount: 2
Fore
SplineSet
108 419 m 2,0,1
 108 389 108 389 117 358 c 1,2,3
 87 342 87 342 63 342 c 128,-1,4
 39 342 39 342 39 357 c 2,5,-1
 39 620 l 2,6,7
 39 643 39 643 30 681 c 1,8,9
 60 697 60 697 84 697 c 128,-1,10
 108 697 108 697 108 682 c 2,11,-1
 108 419 l 2,0,1
108 -75 m 2,12,13
 108 -105 108 -105 117 -136 c 1,14,15
 87 -152 87 -152 63 -152 c 128,-1,16
 39 -152 39 -152 39 -137 c 2,17,-1
 39 126 l 2,18,19
 39 149 39 149 30 187 c 1,20,21
 60 203 60 203 84 203 c 128,-1,22
 108 203 108 203 108 188 c 2,23,-1
 108 -75 l 2,12,13
EndSplineSet
EndChar

StartChar: section
Encoding: 167 167 105
Width: 290
GlyphClass: 2
Flags: W
LayerCount: 2
Fore
SplineSet
103 -43 m 2,0,1
 103 -88 103 -88 143.5 -88 c 128,-1,2
 184 -88 184 -88 184 -39 c 2,3,-1
 184 2 l 2,4,5
 184 39 184 39 158 55 c 2,6,-1
 70 108 l 2,7,8
 31 132 31 132 31 189 c 2,9,-1
 31 259 l 2,10,11
 31 291 31 291 47 317 c 128,-1,12
 63 343 63 343 88 353 c 1,13,-1
 71 364 l 2,14,15
 32 389 32 389 32 445 c 2,16,-1
 32 515 l 2,17,18
 32 559 32 559 60.5 586.5 c 128,-1,19
 89 614 89 614 144.5 614 c 128,-1,20
 200 614 200 614 229 591 c 128,-1,21
 258 568 258 568 258 528 c 2,22,-1
 258 465 l 2,23,24
 258 448 258 448 234 442 c 0,25,26
 222 438 222 438 208.5 438 c 128,-1,27
 195 438 195 438 182 441 c 1,28,29
 185 463 185 463 185 488 c 2,30,-1
 185 503 l 2,31,32
 185 550 185 550 147 550 c 0,33,34
 107 550 107 550 107 508 c 2,35,-1
 107 462 l 2,36,37
 107 427 107 427 129 415 c 2,38,-1
 217 364 l 2,39,40
 260 340 260 340 260 282 c 2,41,-1
 260 207 l 2,42,43
 260 140 260 140 208 112 c 1,44,-1
 216 108 l 2,45,46
 259 86 259 86 259 26 c 2,47,-1
 259 -49 l 2,48,49
 259 -97 259 -97 230.5 -124.5 c 128,-1,50
 202 -152 202 -152 147 -152 c 128,-1,51
 92 -152 92 -152 61 -130 c 128,-1,52
 30 -108 30 -108 30 -67 c 2,53,-1
 30 -1 l 2,54,55
 30 16 30 16 54 22 c 0,56,57
 66 26 66 26 79.5 26 c 128,-1,58
 93 26 93 26 106 23 c 1,59,60
 103 1 103 1 103 -24 c 2,61,-1
 103 -43 l 2,0,1
185 221 m 2,63,-1
 185 267 l 2,64,65
 185 303 185 303 138 322 c 1,66,67
 106 302 106 302 106 252 c 2,68,-1
 106 192 l 2,69,70
 106 164 106 164 157 138 c 1,71,62
 185 167 185 167 185 221 c 2,63,-1
EndSplineSet
EndChar

StartChar: dieresis
Encoding: 168 168 106
Width: 265
GlyphClass: 2
Flags: W
LayerCount: 2
Fore
SplineSet
33 598 m 128,-1,1
 33 655 33 655 76 655 c 128,-1,2
 119 655 119 655 119 598 c 128,-1,3
 119 541 119 541 76 541 c 128,-1,0
 33 541 33 541 33 598 c 128,-1,1
146 598 m 128,-1,5
 146 655 146 655 189 655 c 128,-1,6
 232 655 232 655 232 598 c 128,-1,7
 232 541 232 541 189 541 c 128,-1,4
 146 541 146 541 146 598 c 128,-1,5
EndSplineSet
EndChar

StartChar: copyright
Encoding: 169 169 107
Width: 481
GlyphClass: 2
Flags: W
LayerCount: 2
Fore
SplineSet
330 433 m 2,0,1
 330 413 330 413 285 413 c 0,2,3
 277 413 277 413 268 414 c 1,4,5
 270 432 270 432 270 450 c 2,6,-1
 270 505 l 2,7,8
 270 531 270 531 240.5 531 c 128,-1,9
 211 531 211 531 211 505 c 2,10,-1
 211 192 l 2,11,12
 211 166 211 166 240.5 166 c 128,-1,13
 270 166 270 166 270 192 c 2,14,-1
 270 205 l 1,15,-1
 268 240 l 1,16,17
 278 242 278 242 288 242 c 0,18,19
 330 242 330 242 330 223 c 2,20,-1
 330 184 l 2,21,22
 330 154 330 154 305 134.5 c 128,-1,23
 280 115 280 115 239 115 c 128,-1,24
 198 115 198 115 174.5 133.5 c 128,-1,25
 151 152 151 152 151 187 c 2,26,-1
 151 507 l 2,27,28
 151 543 151 543 175.5 562.5 c 128,-1,29
 200 582 200 582 241 582 c 128,-1,30
 282 582 282 582 306 564 c 128,-1,31
 330 546 330 546 330 517 c 2,32,-1
 330 433 l 2,0,1
343 0 m 2,33,-1
 138 0 l 2,34,35
 36 0 36 0 36 85 c 2,36,-1
 36 609 l 2,37,38
 36 651 36 651 64 674 c 128,-1,39
 92 697 92 697 141 697 c 2,40,-1
 340 697 l 2,41,42
 389 697 389 697 417 674 c 128,-1,43
 445 651 445 651 445 609 c 2,44,-1
 445 85 l 2,45,46
 445 0 445 0 343 0 c 2,33,-1
140 55 m 2,47,-1
 341 55 l 2,48,49
 359 55 359 55 369.5 64 c 128,-1,50
 380 73 380 73 380 88 c 2,51,-1
 380 609 l 2,52,53
 380 642 380 642 341 642 c 2,54,-1
 140 642 l 2,55,56
 101 642 101 642 101 609 c 2,57,-1
 101 88 l 2,58,59
 101 73 101 73 111.5 64 c 128,-1,60
 122 55 122 55 140 55 c 2,47,-1
EndSplineSet
EndChar

StartChar: ordfeminine
Encoding: 170 170 108
Width: 251
GlyphClass: 2
Flags: W
LayerCount: 2
Fore
SplineSet
111 416 m 2,0,1
 85 399 85 399 85 359.5 c 128,-1,2
 85 320 85 320 109.5 320 c 128,-1,3
 134 320 134 320 148 348 c 1,4,-1
 148 440 l 1,5,-1
 111 416 l 2,0,1
70 511 m 0,6,7
 31 511 31 511 31 531 c 2,8,-1
 31 595 l 2,9,10
 31 626 31 626 55 643 c 128,-1,11
 79 660 79 660 120 660 c 0,12,13
 206 660 206 660 206 584 c 2,14,-1
 206 339 l 2,15,16
 206 323 206 323 211.5 316 c 128,-1,17
 217 309 217 309 233 309 c 1,18,19
 234 289 234 289 223 278 c 128,-1,20
 212 267 212 267 185.5 267 c 128,-1,21
 159 267 159 267 151 292 c 1,22,23
 128 267 128 267 95.5 267 c 128,-1,24
 63 267 63 267 43.5 291.5 c 128,-1,25
 24 316 24 316 24 358 c 0,26,27
 24 420 24 420 78 454 c 1,28,-1
 148 495 l 1,29,-1
 148 578 l 2,30,31
 148 611 148 611 117.5 611 c 128,-1,32
 87 611 87 611 87 575 c 2,33,-1
 87 549 l 1,34,-1
 89 513 l 1,35,36
 79 511 79 511 70 511 c 0,6,7
EndSplineSet
EndChar

StartChar: guillemotleft
Encoding: 171 171 109
Width: 404
GlyphClass: 2
Flags: W
LayerCount: 2
Fore
SplineSet
173 -5 m 0,0,1
 165 -9 165 -9 158.5 -9 c 128,-1,2
 152 -9 152 -9 148 -2 c 2,3,-1
 8 242 l 1,4,-1
 123 441 l 2,5,6
 135 462 135 462 146 499 c 1,7,8
 180 497 180 497 200.5 485 c 128,-1,9
 221 473 221 473 214 460 c 2,10,-1
 86 241 l 1,11,-1
 177 86 l 2,12,13
 191 62 191 62 216 37 c 1,14,15
 196 8 196 8 173 -5 c 0,0,1
316 499 m 1,16,17
 350 497 350 497 368 486.5 c 128,-1,18
 386 476 386 476 386 470 c 128,-1,19
 386 464 386 464 384 460 c 2,20,-1
 256 241 l 1,21,-1
 347 86 l 2,22,23
 361 62 361 62 386 37 c 1,24,25
 366 8 366 8 343 -5 c 0,26,27
 335 -9 335 -9 328.5 -9 c 128,-1,28
 322 -9 322 -9 318 -2 c 2,29,-1
 178 242 l 1,30,-1
 293 441 l 2,31,32
 305 462 305 462 316 499 c 1,16,17
EndSplineSet
EndChar

StartChar: logicalnot
Encoding: 172 172 110
Width: 405
GlyphClass: 2
Flags: W
LayerCount: 2
Fore
SplineSet
73 430 m 2,0,1
 40 430 40 430 23 425 c 1,2,3
 16 451 16 451 16 470.5 c 128,-1,4
 16 490 16 490 29 490 c 2,5,-1
 306 490 l 1,6,7
 332 495 332 495 351.5 495 c 128,-1,8
 371 495 371 495 371 482 c 1,9,10
 374 469 374 469 374 453.5 c 128,-1,11
 374 438 374 438 371 433 c 1,12,-1
 371 324 l 2,13,14
 371 299 371 299 376 274 c 1,15,16
 350 267 350 267 330.5 267 c 128,-1,17
 311 267 311 267 311 280 c 2,18,-1
 311 430 l 1,19,-1
 73 430 l 2,0,1
EndSplineSet
EndChar

StartChar: uni00AD
Encoding: 173 173 111
Width: 268
GlyphClass: 2
Flags: W
LayerCount: 2
Fore
SplineSet
87 274 m 2,0,1
 54 274 54 274 37 269 c 1,2,3
 30 295 30 295 30 314.5 c 128,-1,4
 30 334 30 334 43 334 c 2,5,-1
 181 334 l 1,6,-1
 233 339 l 1,7,8
 238 313 238 313 238 293.5 c 128,-1,9
 238 274 238 274 225 274 c 2,10,-1
 87 274 l 2,0,1
EndSplineSet
EndChar

StartChar: registered
Encoding: 174 174 112
Width: 481
GlyphClass: 2
Flags: W
LayerCount: 2
Fore
SplineSet
343 0 m 2,0,-1
 138 0 l 2,1,2
 36 0 36 0 36 85 c 2,3,-1
 36 609 l 2,4,5
 36 651 36 651 64 674 c 128,-1,6
 92 697 92 697 141 697 c 2,7,-1
 340 697 l 2,8,9
 389 697 389 697 417 674 c 128,-1,10
 445 651 445 651 445 609 c 2,11,-1
 445 85 l 2,12,13
 445 0 445 0 343 0 c 2,0,-1
140 55 m 2,14,-1
 341 55 l 2,15,16
 359 55 359 55 369.5 64 c 128,-1,17
 380 73 380 73 380 88 c 2,18,-1
 380 609 l 2,19,20
 380 642 380 642 341 642 c 2,21,-1
 140 642 l 2,22,23
 101 642 101 642 101 609 c 2,24,-1
 101 88 l 2,25,26
 101 73 101 73 111.5 64 c 128,-1,27
 122 55 122 55 140 55 c 2,14,-1
151 130 m 2,28,-1
 151 515 l 2,29,30
 151 531 151 531 145.5 538 c 128,-1,31
 140 545 140 545 125 545 c 1,32,33
 124 563 124 563 135 573.5 c 128,-1,34
 146 584 146 584 171 584 c 128,-1,35
 196 584 196 584 207 561 c 1,36,37
 234 584 234 584 260 584 c 0,38,39
 330 584 330 584 330 514 c 2,40,-1
 330 349 l 2,41,42
 330 306 330 306 291 286 c 1,43,-1
 307 191 l 2,44,45
 310 168 310 168 327 168 c 0,46,47
 334 168 334 168 342 171 c 1,48,49
 345 160 345 160 345 149.5 c 128,-1,50
 345 139 345 139 332 127 c 128,-1,51
 319 115 319 115 299 115 c 0,52,53
 260 115 260 115 253 151 c 2,54,-1
 232 274 l 1,55,-1
 211 274 l 1,56,-1
 211 188 l 1,57,-1
 214 122 l 1,58,59
 186 118 186 118 162 118 c 0,60,61
 151 118 151 118 151 130 c 2,28,-1
245 535 m 0,62,63
 224 535 224 535 211 516 c 1,64,-1
 211 323 l 1,65,-1
 236 323 l 2,66,67
 251 323 251 323 260.5 330.5 c 128,-1,68
 270 338 270 338 270 351 c 2,69,-1
 270 509 l 2,70,71
 270 535 270 535 245 535 c 0,62,63
EndSplineSet
EndChar

StartChar: macron
Encoding: 175 175 113
Width: 272
GlyphClass: 2
Flags: W
LayerCount: 2
Fore
SplineSet
96 586 m 2,0,1
 63 586 63 586 46 581 c 1,2,3
 39 603 39 603 39 622.5 c 128,-1,4
 39 642 39 642 52 642 c 2,5,-1
 176 642 l 1,6,-1
 228 647 l 1,7,8
 233 625 233 625 233 605.5 c 128,-1,9
 233 586 233 586 220 586 c 2,10,-1
 96 586 l 2,0,1
EndSplineSet
EndChar

StartChar: degree
Encoding: 176 176 114
Width: 250
GlyphClass: 2
Flags: W
LayerCount: 2
Fore
SplineSet
22 577 m 2,0,-1
 22 634 l 2,1,2
 22 707 22 707 125 707 c 128,-1,3
 228 707 228 707 228 636 c 2,4,-1
 228 579 l 2,5,6
 228 548 228 548 204 527 c 128,-1,7
 180 506 180 506 123 506 c 0,8,9
 22 506 22 506 22 577 c 2,0,-1
79 631 m 2,10,-1
 79 582 l 2,11,12
 79 552 79 552 125 552 c 0,13,14
 145 552 145 552 158 560 c 128,-1,15
 171 568 171 568 171 582 c 2,16,-1
 171 631 l 2,17,18
 171 645 171 645 158 653 c 128,-1,19
 145 661 145 661 125 661 c 0,20,21
 79 661 79 661 79 631 c 2,10,-1
EndSplineSet
EndChar

StartChar: plusminus
Encoding: 177 177 115
Width: 280
GlyphClass: 2
Flags: W
LayerCount: 2
Fore
SplineSet
87 154 m 2,0,1
 54 154 54 154 37 149 c 1,2,3
 30 175 30 175 30 194.5 c 128,-1,4
 30 214 30 214 43 214 c 2,5,-1
 193 214 l 1,6,-1
 245 219 l 1,7,8
 250 193 250 193 250 173.5 c 128,-1,9
 250 154 250 154 237 154 c 2,10,-1
 87 154 l 2,0,1
87 345 m 2,11,12
 62 345 62 345 37 340 c 1,13,14
 30 364 30 364 30 383.5 c 128,-1,15
 30 403 30 403 43 403 c 2,16,-1
 108 403 l 1,17,-1
 108 435 l 1,18,-1
 103 487 l 1,19,20
 133 492 133 492 152.5 492 c 128,-1,21
 172 492 172 492 172 479 c 2,22,-1
 172 403 l 1,23,-1
 193 403 l 1,24,-1
 245 408 l 1,25,26
 250 384 250 384 250 364.5 c 128,-1,27
 250 345 250 345 237 345 c 2,28,-1
 172 345 l 1,29,-1
 172 313 l 2,30,31
 172 280 172 280 177 263 c 1,32,33
 147 256 147 256 127.5 256 c 128,-1,34
 108 256 108 256 108 269 c 2,35,-1
 108 345 l 1,36,-1
 87 345 l 2,11,12
EndSplineSet
EndChar

StartChar: twosuperior
Encoding: 178 178 116
Width: 242
GlyphClass: 2
Flags: W
LayerCount: 2
Fore
SplineSet
93 313 m 1,0,-1
 172 313 l 1,1,-1
 212 318 l 1,2,3
 217 297 217 297 217 282 c 128,-1,4
 217 267 217 267 207 267 c 2,5,-1
 52 267 l 2,6,7
 42 267 42 267 34 275.5 c 128,-1,8
 26 284 26 284 26 308 c 128,-1,9
 26 332 26 332 39 361.5 c 128,-1,10
 52 391 52 391 70.5 415.5 c 128,-1,11
 89 440 89 440 108 465 c 0,12,13
 152 525 152 525 152 579 c 0,14,15
 152 611 152 611 121 611 c 0,16,17
 106 611 106 611 97 602.5 c 128,-1,18
 88 594 88 594 88 580 c 2,19,-1
 88 559 l 1,20,-1
 91 520 l 1,21,22
 81 518 81 518 70.5 518 c 128,-1,23
 60 518 60 518 50 520 c 0,24,25
 30 526 30 526 30 540 c 2,26,-1
 30 587 l 2,27,28
 30 621 30 621 54 640.5 c 128,-1,29
 78 660 78 660 119 660 c 0,30,31
 211 660 211 660 211 592 c 0,32,33
 211 544 211 544 192.5 502 c 128,-1,34
 174 460 174 460 152 435 c 0,35,36
 93 368 93 368 93 313 c 1,0,-1
EndSplineSet
EndChar

StartChar: threesuperior
Encoding: 179 179 117
Width: 233
GlyphClass: 2
Flags: W
LayerCount: 2
Fore
SplineSet
114 424 m 2,0,-1
 75 424 l 2,1,2
 65 424 65 424 65 437 c 1,3,-1
 70 477 l 1,4,5
 83 473 83 473 109 473 c 2,6,-1
 118 473 l 2,7,8
 147 473 147 473 147 504 c 2,9,-1
 147 579 l 2,10,11
 147 611 147 611 116.5 611 c 128,-1,12
 86 611 86 611 86 580 c 2,13,-1
 86 559 l 1,14,-1
 89 520 l 1,15,16
 79 518 79 518 68.5 518 c 128,-1,17
 58 518 58 518 48 520 c 0,18,19
 28 526 28 526 28 540 c 2,20,-1
 28 587 l 2,21,22
 28 621 28 621 50 640.5 c 128,-1,23
 72 660 72 660 112 660 c 0,24,25
 203 660 203 660 203 592 c 2,26,-1
 203 502 l 2,27,28
 203 466 203 466 182 449 c 1,29,30
 203 433 203 433 203 396 c 2,31,-1
 203 341 l 2,32,33
 203 303 203 303 179 281.5 c 128,-1,34
 155 260 155 260 115.5 260 c 128,-1,35
 76 260 76 260 52 280 c 128,-1,36
 28 300 28 300 28 332 c 2,37,-1
 28 370 l 2,38,39
 28 384 28 384 48 390 c 0,40,41
 58 393 58 393 68 393 c 1,42,-1
 88 390 l 1,43,44
 86 372 86 372 86 351 c 2,45,-1
 86 338 l 2,46,47
 86 324 86 324 94.5 316 c 128,-1,48
 103 308 103 308 115.5 308 c 128,-1,49
 128 308 128 308 136.5 316 c 128,-1,50
 145 324 145 324 145 338 c 2,51,-1
 145 394 l 2,52,53
 145 424 145 424 114 424 c 2,0,-1
EndSplineSet
EndChar

StartChar: acute
Encoding: 180 180 118
Width: 287
GlyphClass: 2
Flags: W
LayerCount: 2
Fore
SplineSet
165 686 m 1,0,1
 236 664 236 664 236 651 c 0,2,3
 236 648 236 648 233 643 c 2,4,-1
 175 558 l 1,5,-1
 157 528 l 1,6,7
 116 543 116 543 116 554 c 0,8,9
 116 557 116 557 118 560 c 2,10,-1
 152 642 l 1,11,-1
 165 686 l 1,0,1
EndSplineSet
EndChar

StartChar: mu
Encoding: 181 181 119
Width: 337
GlyphClass: 2
Flags: W
LayerCount: 2
Fore
SplineSet
213 408 m 2,0,1
 213 457 213 457 206 490 c 1,2,3
 236 494 236 494 271 494 c 0,4,5
 288 494 288 494 288 479 c 2,6,-1
 288 83 l 2,7,8
 288 62 288 62 295.5 53 c 128,-1,9
 303 44 303 44 324 44 c 1,10,11
 325 18 325 18 310.5 4 c 128,-1,12
 296 -10 296 -10 269 -10 c 0,13,14
 229 -10 229 -10 218 21 c 1,15,16
 187 -10 187 -10 149 -10 c 0,17,18
 142 -10 142 -10 130 -8 c 1,19,-1
 126 -89 l 2,20,21
 124 -126 124 -126 112.5 -142 c 128,-1,22
 101 -158 101 -158 73 -158 c 128,-1,23
 45 -158 45 -158 29.5 -143.5 c 128,-1,24
 14 -129 14 -129 15 -104 c 1,25,26
 38 -104 38 -104 47.5 -98.5 c 128,-1,27
 57 -93 57 -93 61 -74 c 2,28,-1
 80 22 l 1,29,30
 61 49 61 49 61 92 c 2,31,-1
 61 407 l 2,32,33
 61 428 61 428 53.5 437 c 128,-1,34
 46 446 46 446 25 446 c 1,35,36
 24 471 24 471 39.5 485.5 c 128,-1,37
 55 500 55 500 83 500 c 128,-1,38
 111 500 111 500 123.5 484 c 128,-1,39
 136 468 136 468 136 431 c 2,40,-1
 136 93 l 2,41,42
 136 58 136 58 165 58 c 0,43,44
 180 58 180 58 193.5 69.5 c 128,-1,45
 207 81 207 81 213 94 c 1,46,-1
 213 408 l 2,0,1
EndSplineSet
EndChar

StartChar: paragraph
Encoding: 182 182 120
Width: 381
GlyphClass: 2
Flags: W
LayerCount: 2
Fore
SplineSet
207 -154 m 1,0,-1
 193 -151 l 2,1,2
 192 -151 192 -151 191 -150 c 1,3,4
 195 -111 195 -111 195 -56 c 2,5,-1
 195 190 l 1,6,-1
 151 190 l 2,7,8
 92 190 92 190 57.5 218 c 128,-1,9
 23 246 23 246 23 296 c 2,10,-1
 23 552 l 2,11,12
 23 650 23 650 122 650 c 2,13,-1
 310 650 l 2,14,15
 338 650 338 650 353 635 c 128,-1,16
 368 620 368 620 367 594 c 1,17,18
 346 594 346 594 338 584.5 c 128,-1,19
 330 575 330 575 330 553 c 2,20,-1
 330 -138 l 2,21,22
 330 -155 330 -155 314 -155 c 2,23,-1
 292 -154 l 1,24,-1
 278 -151 l 2,25,26
 277 -151 277 -151 276 -150 c 1,27,28
 280 -111 280 -111 280 -56 c 2,29,-1
 280 594 l 1,30,-1
 245 594 l 1,31,-1
 245 -138 l 2,32,33
 245 -155 245 -155 229 -155 c 2,34,-1
 207 -154 l 1,0,-1
EndSplineSet
EndChar

StartChar: periodcentered
Encoding: 183 183 121
Width: 138
GlyphClass: 2
Flags: W
LayerCount: 2
Fore
SplineSet
26 316 m 128,-1,1
 26 373 26 373 69 373 c 128,-1,2
 112 373 112 373 112 316 c 128,-1,3
 112 259 112 259 69 259 c 128,-1,0
 26 259 26 259 26 316 c 128,-1,1
EndSplineSet
EndChar

StartChar: cedilla
Encoding: 184 184 122
Width: 347
GlyphClass: 2
Flags: W
LayerCount: 2
Fore
SplineSet
188 -152 m 2,0,-1
 142 -152 l 1,1,-1
 109 -155 l 1,2,3
 105 -138 105 -138 105 -125.5 c 128,-1,4
 105 -113 105 -113 114 -113 c 2,5,-1
 181 -113 l 2,6,7
 202 -113 202 -113 202 -91 c 128,-1,8
 202 -69 202 -69 181 -69 c 2,9,-1
 118 -69 l 1,10,-1
 118 7 l 1,11,-1
 170 7 l 1,12,-1
 170 -29 l 1,13,-1
 184 -29 l 2,14,15
 251 -29 251 -29 251 -91 c 0,16,17
 251 -123 251 -123 236 -137.5 c 128,-1,18
 221 -152 221 -152 188 -152 c 2,0,-1
EndSplineSet
EndChar

StartChar: onesuperior
Encoding: 185 185 123
Width: 221
GlyphClass: 2
Flags: W
LayerCount: 2
Fore
SplineSet
139 655 m 0,0,1
 160 655 160 655 160 638 c 2,2,-1
 160 317 l 1,3,-1
 161 317 l 1,4,-1
 201 321 l 1,5,6
 205 301 205 301 205 286 c 128,-1,7
 205 271 205 271 195 271 c 2,8,-1
 72 271 l 1,9,-1
 32 267 l 1,10,11
 28 287 28 287 28 302 c 128,-1,12
 28 317 28 317 38 317 c 2,13,-1
 103 317 l 1,14,-1
 103 598 l 1,15,-1
 81 595 l 1,16,17
 53 589 53 589 38 578 c 1,18,19
 27 591 27 591 22 615 c 1,20,21
 22 626 22 626 32 629 c 2,22,-1
 130 654 l 2,23,24
 134 655 134 655 139 655 c 0,0,1
EndSplineSet
EndChar

StartChar: ordmasculine
Encoding: 186 186 124
Width: 235
GlyphClass: 2
Flags: W
LayerCount: 2
Fore
SplineSet
30 346 m 2,0,-1
 30 578 l 2,1,2
 30 617 30 617 54 638.5 c 128,-1,3
 78 660 78 660 119 660 c 128,-1,4
 160 660 160 660 182.5 640 c 128,-1,5
 205 620 205 620 205 581 c 2,6,-1
 205 349 l 2,7,8
 205 310 205 310 180.5 288.5 c 128,-1,9
 156 267 156 267 115.5 267 c 128,-1,10
 75 267 75 267 52.5 287 c 128,-1,11
 30 307 30 307 30 346 c 2,0,-1
88 581 m 2,12,-1
 88 346 l 2,13,14
 88 332 88 332 96 323.5 c 128,-1,15
 104 315 104 315 117 315 c 128,-1,16
 130 315 130 315 138.5 324 c 128,-1,17
 147 333 147 333 147 346 c 2,18,-1
 147 581 l 2,19,20
 147 594 147 594 138.5 603 c 128,-1,21
 130 612 130 612 117 612 c 128,-1,22
 104 612 104 612 96 603.5 c 128,-1,23
 88 595 88 595 88 581 c 2,12,-1
EndSplineSet
EndChar

StartChar: guillemotright
Encoding: 187 187 125
Width: 405
GlyphClass: 2
Flags: W
LayerCount: 2
Fore
SplineSet
231 493 m 0,0,1
 239 497 239 497 245.5 497 c 128,-1,2
 252 497 252 497 256 490 c 2,3,-1
 396 246 l 1,4,-1
 281 47 l 2,5,6
 269 26 269 26 258 -11 c 1,7,8
 224 -9 224 -9 203.5 3 c 128,-1,9
 183 15 183 15 190 28 c 2,10,-1
 318 247 l 1,11,-1
 227 402 l 2,12,13
 213 426 213 426 188 451 c 1,14,15
 208 480 208 480 231 493 c 0,0,1
88 -11 m 1,16,17
 54 -9 54 -9 36 1.5 c 128,-1,18
 18 12 18 12 18 18 c 128,-1,19
 18 24 18 24 20 28 c 2,20,-1
 148 247 l 1,21,-1
 57 402 l 2,22,23
 43 426 43 426 18 451 c 1,24,25
 38 480 38 480 61 493 c 0,26,27
 69 497 69 497 75.5 497 c 128,-1,28
 82 497 82 497 86 490 c 2,29,-1
 226 246 l 1,30,-1
 111 47 l 2,31,32
 99 26 99 26 88 -11 c 1,16,17
EndSplineSet
EndChar

StartChar: onequarter
Encoding: 188 188 126
Width: 620
GlyphClass: 2
Flags: W
LayerCount: 2
Fore
SplineSet
607 31 m 1,0,1
 609 -10 609 -10 565 -10 c 0,2,3
 542 -10 542 -10 532 3 c 128,-1,4
 522 16 522 16 522 46 c 2,5,-1
 522 142 l 1,6,-1
 405 142 l 1,7,-1
 405 318 l 2,8,9
 405 335 405 335 399 341.5 c 128,-1,10
 393 348 393 348 378 348 c 1,11,12
 377 368 377 368 388.5 379 c 128,-1,13
 400 390 400 390 422 390 c 128,-1,14
 444 390 444 390 453.5 377.5 c 128,-1,15
 463 365 463 365 463 336 c 2,16,-1
 463 189 l 1,17,-1
 522 189 l 1,18,-1
 522 319 l 2,19,20
 522 353 522 353 516 383 c 1,21,22
 540 385 540 385 560 385 c 128,-1,23
 580 385 580 385 580 374 c 2,24,-1
 580 61 l 2,25,26
 580 45 580 45 586 38 c 128,-1,27
 592 31 592 31 607 31 c 1,0,1
426 737 m 1,28,29
 462 753 462 753 483 753 c 128,-1,30
 504 753 504 753 504 745 c 0,31,32
 504 742 504 742 502 738 c 2,33,-1
 207 68 l 2,34,35
 193 36 193 36 190 7 c 1,36,37
 152 -9 152 -9 127 -9 c 0,38,39
 107 -9 107 -9 113 6 c 2,40,-1
 408 676 l 2,41,42
 420 705 420 705 426 737 c 1,28,29
135 655 m 0,43,44
 156 655 156 655 156 638 c 2,45,-1
 156 317 l 1,46,-1
 157 317 l 1,47,-1
 197 321 l 1,48,49
 201 301 201 301 201 286 c 128,-1,50
 201 271 201 271 191 271 c 2,51,-1
 68 271 l 1,52,-1
 28 267 l 1,53,54
 24 287 24 287 24 302 c 128,-1,55
 24 317 24 317 34 317 c 2,56,-1
 99 317 l 1,57,-1
 99 598 l 1,58,-1
 77 595 l 1,59,60
 49 589 49 589 34 578 c 1,61,62
 23 591 23 591 18 615 c 1,63,64
 18 626 18 626 28 629 c 2,65,-1
 126 654 l 2,66,67
 130 655 130 655 135 655 c 0,43,44
EndSplineSet
EndChar

StartChar: onehalf
Encoding: 189 189 127
Width: 564
GlyphClass: 2
Flags: W
LayerCount: 2
Fore
SplineSet
488 753 m 0,0,1
 508 753 508 753 501 738 c 2,2,-1
 206 68 l 2,3,4
 192 36 192 36 189 7 c 1,5,6
 151 -9 151 -9 126 -9 c 0,7,8
 106 -9 106 -9 112 6 c 2,9,-1
 407 676 l 2,10,11
 419 705 419 705 425 737 c 1,12,13
 461 753 461 753 488 753 c 0,0,1
132 655 m 0,14,15
 153 655 153 655 153 638 c 2,16,-1
 153 317 l 1,17,-1
 154 317 l 1,18,-1
 194 321 l 1,19,20
 198 301 198 301 198 286 c 128,-1,21
 198 271 198 271 188 271 c 2,22,-1
 65 271 l 1,23,-1
 25 267 l 1,24,25
 21 287 21 287 21 302 c 128,-1,26
 21 317 21 317 31 317 c 2,27,-1
 96 317 l 1,28,-1
 96 598 l 1,29,-1
 74 595 l 1,30,31
 46 589 46 589 31 578 c 1,32,33
 20 591 20 591 15 615 c 1,34,35
 15 626 15 626 25 629 c 2,36,-1
 123 654 l 2,37,38
 127 655 127 655 132 655 c 0,14,15
425 46 m 1,39,-1
 504 46 l 1,40,-1
 544 51 l 1,41,42
 549 30 549 30 549 15 c 128,-1,43
 549 0 549 0 539 0 c 2,44,-1
 384 0 l 2,45,46
 374 0 374 0 366 8.5 c 128,-1,47
 358 17 358 17 358 41 c 128,-1,48
 358 65 358 65 371 94.5 c 128,-1,49
 384 124 384 124 402.5 148.5 c 128,-1,50
 421 173 421 173 440 198 c 0,51,52
 484 258 484 258 484 312 c 0,53,54
 484 344 484 344 453 344 c 0,55,56
 438 344 438 344 429 335.5 c 128,-1,57
 420 327 420 327 420 313 c 2,58,-1
 420 292 l 1,59,-1
 423 253 l 1,60,61
 413 251 413 251 402.5 251 c 128,-1,62
 392 251 392 251 382 254 c 0,63,64
 362 259 362 259 362 273 c 2,65,-1
 362 320 l 2,66,67
 362 354 362 354 386 373.5 c 128,-1,68
 410 393 410 393 451 393 c 0,69,70
 543 393 543 393 543 325 c 0,71,72
 543 277 543 277 524.5 235 c 128,-1,73
 506 193 506 193 484 168 c 0,74,75
 425 101 425 101 425 46 c 1,39,-1
EndSplineSet
EndChar

StartChar: threequarters
Encoding: 190 190 128
Width: 612
GlyphClass: 2
Flags: W
LayerCount: 2
Fore
SplineSet
599 31 m 1,0,1
 601 -10 601 -10 557 -10 c 0,2,3
 534 -10 534 -10 524 3 c 128,-1,4
 514 16 514 16 514 46 c 2,5,-1
 514 142 l 1,6,-1
 397 142 l 1,7,-1
 397 318 l 2,8,9
 397 335 397 335 391 341.5 c 128,-1,10
 385 348 385 348 370 348 c 1,11,12
 369 368 369 368 380.5 379 c 128,-1,13
 392 390 392 390 414 390 c 128,-1,14
 436 390 436 390 445.5 377.5 c 128,-1,15
 455 365 455 365 455 336 c 2,16,-1
 455 189 l 1,17,-1
 514 189 l 1,18,-1
 514 319 l 2,19,20
 514 353 514 353 508 383 c 1,21,22
 532 385 532 385 552 385 c 128,-1,23
 572 385 572 385 572 374 c 2,24,-1
 572 61 l 2,25,26
 572 45 572 45 578 38 c 128,-1,27
 584 31 584 31 599 31 c 1,0,1
417 737 m 1,28,29
 453 753 453 753 474 753 c 128,-1,30
 495 753 495 753 495 745 c 0,31,32
 495 742 495 742 493 738 c 2,33,-1
 198 68 l 2,34,35
 184 36 184 36 181 7 c 1,36,37
 143 -9 143 -9 118 -9 c 0,38,39
 98 -9 98 -9 104 6 c 2,40,-1
 399 676 l 2,41,42
 411 705 411 705 417 737 c 1,28,29
108 424 m 2,43,-1
 69 424 l 2,44,45
 59 424 59 424 59 437 c 1,46,-1
 64 477 l 1,47,48
 77 473 77 473 103 473 c 2,49,-1
 112 473 l 2,50,51
 141 473 141 473 141 504 c 2,52,-1
 141 579 l 2,53,54
 141 611 141 611 110.5 611 c 128,-1,55
 80 611 80 611 80 580 c 2,56,-1
 80 559 l 1,57,-1
 83 520 l 1,58,59
 73 518 73 518 62.5 518 c 128,-1,60
 52 518 52 518 42 520 c 0,61,62
 22 526 22 526 22 540 c 2,63,-1
 22 587 l 2,64,65
 22 621 22 621 44 640.5 c 128,-1,66
 66 660 66 660 106 660 c 0,67,68
 197 660 197 660 197 592 c 2,69,-1
 197 502 l 2,70,71
 197 466 197 466 176 449 c 1,72,73
 197 433 197 433 197 396 c 2,74,-1
 197 341 l 2,75,76
 197 303 197 303 173 281.5 c 128,-1,77
 149 260 149 260 109.5 260 c 128,-1,78
 70 260 70 260 46 280 c 128,-1,79
 22 300 22 300 22 332 c 2,80,-1
 22 370 l 2,81,82
 22 384 22 384 42 390 c 0,83,84
 52 393 52 393 62 393 c 1,85,-1
 82 390 l 1,86,87
 80 372 80 372 80 351 c 2,88,-1
 80 338 l 2,89,90
 80 324 80 324 88.5 316 c 128,-1,91
 97 308 97 308 109.5 308 c 128,-1,92
 122 308 122 308 130.5 316 c 128,-1,93
 139 324 139 324 139 338 c 2,94,-1
 139 394 l 2,95,96
 139 424 139 424 108 424 c 2,43,-1
EndSplineSet
EndChar

StartChar: questiondown
Encoding: 191 191 129
Width: 262
GlyphClass: 2
Flags: W
LayerCount: 2
Fore
SplineSet
199 582 m 128,-1,1
 199 525 199 525 156 525 c 128,-1,2
 113 525 113 525 113 582 c 128,-1,3
 113 639 113 639 156 639 c 128,-1,0
 199 639 199 639 199 582 c 128,-1,1
196 476 m 2,4,-1
 196 370 l 2,5,6
 196 312 196 312 153 288 c 2,7,-1
 117 268 l 2,8,9
 95 256 95 256 95 221 c 2,10,-1
 95 96 l 2,11,12
 95 54 95 54 135 54 c 0,13,14
 173 54 173 54 173 101 c 2,15,-1
 173 116 l 1,16,-1
 170 163 l 1,17,18
 183 166 183 166 196.5 166 c 128,-1,19
 210 166 210 166 222 162 c 0,20,21
 246 156 246 156 246 139 c 2,22,-1
 246 76 l 2,23,24
 246 36 246 36 217 13 c 128,-1,25
 188 -10 188 -10 132.5 -10 c 128,-1,26
 77 -10 77 -10 48.5 17.5 c 128,-1,27
 20 45 20 45 20 89 c 2,28,-1
 20 238 l 2,29,30
 20 295 20 295 59 319 c 2,31,-1
 95 341 l 2,32,33
 121 357 121 357 121 394 c 1,34,-1
 117 488 l 1,35,36
 147 493 147 493 180 493 c 0,37,38
 196 493 196 493 196 476 c 2,4,-1
EndSplineSet
EndChar

StartChar: Agrave
Encoding: 192 192 130
Width: 327
GlyphClass: 2
Flags: W
LayerCount: 2
Fore
SplineSet
36 12 m 2,0,-1
 36 554 l 2,1,2
 36 604 36 604 70 632 c 128,-1,3
 104 660 104 660 163 660 c 128,-1,4
 222 660 222 660 254.5 634 c 128,-1,5
 287 608 287 608 287 558 c 2,6,-1
 287 85 l 2,7,8
 287 64 287 64 295.5 55.5 c 128,-1,9
 304 47 304 47 325 47 c 1,10,11
 325 -10 325 -10 261 -10 c 0,12,13
 208 -10 208 -10 208 59 c 2,14,-1
 208 250 l 1,15,-1
 115 250 l 1,16,-1
 115 94 l 1,17,-1
 119 0 l 1,18,19
 85 -5 85 -5 52 -5 c 0,20,21
 36 -5 36 -5 36 12 c 2,0,-1
115 554 m 2,22,-1
 115 316 l 1,23,-1
 208 316 l 1,24,-1
 208 554 l 2,25,26
 208 573 208 573 195 583.5 c 128,-1,27
 182 594 182 594 161 594 c 128,-1,28
 140 594 140 594 127.5 583.5 c 128,-1,29
 115 573 115 573 115 554 c 2,22,-1
198 720 m 2,30,31
 200 717 200 717 200 713 c 128,-1,32
 200 709 200 709 195 706 c 2,33,-1
 159 688 l 1,34,35
 152 701 152 701 141 718 c 2,36,-1
 83 803 l 2,37,38
 80 808 80 808 80 812 c 0,39,40
 80 819 80 819 105.5 829.5 c 128,-1,41
 131 840 131 840 141 843 c 2,42,-1
 151 846 l 1,43,44
 155 823 155 823 164 802 c 2,45,-1
 198 720 l 2,30,31
EndSplineSet
EndChar

StartChar: Aacute
Encoding: 193 193 131
Width: 327
GlyphClass: 2
Flags: W
LayerCount: 2
Fore
SplineSet
36 12 m 2,0,-1
 36 554 l 2,1,2
 36 604 36 604 70 632 c 128,-1,3
 104 660 104 660 163 660 c 128,-1,4
 222 660 222 660 254.5 634 c 128,-1,5
 287 608 287 608 287 558 c 2,6,-1
 287 85 l 2,7,8
 287 64 287 64 295.5 55.5 c 128,-1,9
 304 47 304 47 325 47 c 1,10,11
 325 -10 325 -10 261 -10 c 0,12,13
 208 -10 208 -10 208 59 c 2,14,-1
 208 250 l 1,15,-1
 115 250 l 1,16,-1
 115 94 l 1,17,-1
 119 0 l 1,18,19
 85 -5 85 -5 52 -5 c 0,20,21
 36 -5 36 -5 36 12 c 2,0,-1
115 554 m 2,22,-1
 115 316 l 1,23,-1
 208 316 l 1,24,-1
 208 554 l 2,25,26
 208 573 208 573 195 583.5 c 128,-1,27
 182 594 182 594 161 594 c 128,-1,28
 140 594 140 594 127.5 583.5 c 128,-1,29
 115 573 115 573 115 554 c 2,22,-1
182 846 m 1,30,31
 253 824 253 824 253 811 c 0,32,33
 253 808 253 808 250 803 c 2,34,-1
 192 718 l 1,35,-1
 174 688 l 1,36,37
 133 703 133 703 133 714 c 0,38,39
 133 717 133 717 135 720 c 2,40,-1
 169 802 l 1,41,-1
 182 846 l 1,30,31
EndSplineSet
EndChar

StartChar: Acircumflex
Encoding: 194 194 132
Width: 327
GlyphClass: 2
Flags: W
LayerCount: 2
Fore
SplineSet
36 12 m 2,0,-1
 36 554 l 2,1,2
 36 604 36 604 70 632 c 128,-1,3
 104 660 104 660 163 660 c 128,-1,4
 222 660 222 660 254.5 634 c 128,-1,5
 287 608 287 608 287 558 c 2,6,-1
 287 85 l 2,7,8
 287 64 287 64 295.5 55.5 c 128,-1,9
 304 47 304 47 325 47 c 1,10,11
 325 -10 325 -10 261 -10 c 0,12,13
 208 -10 208 -10 208 59 c 2,14,-1
 208 250 l 1,15,-1
 115 250 l 1,16,-1
 115 94 l 1,17,-1
 119 0 l 1,18,19
 85 -5 85 -5 52 -5 c 0,20,21
 36 -5 36 -5 36 12 c 2,0,-1
115 554 m 2,22,-1
 115 316 l 1,23,-1
 208 316 l 1,24,-1
 208 554 l 2,25,26
 208 573 208 573 195 583.5 c 128,-1,27
 182 594 182 594 161 594 c 128,-1,28
 140 594 140 594 127.5 583.5 c 128,-1,29
 115 573 115 573 115 554 c 2,22,-1
105 688 m 1,30,31
 63 703 63 703 63 714 c 0,32,33
 63 717 63 717 65 720 c 2,34,-1
 109 802 l 1,35,-1
 124 836 l 1,36,37
 134 844 134 844 161 844 c 128,-1,38
 188 844 188 844 202 837 c 1,39,40
 207 822 207 822 218 802 c 2,41,-1
 262 720 l 2,42,43
 264 717 264 717 264 713 c 128,-1,44
 264 709 264 709 259 706 c 2,45,-1
 222 688 l 1,46,47
 217 701 217 701 205 718 c 2,48,-1
 163 778 l 1,49,-1
 122 718 l 1,50,-1
 105 688 l 1,30,31
EndSplineSet
EndChar

StartChar: Atilde
Encoding: 195 195 133
Width: 327
GlyphClass: 2
Flags: W
LayerCount: 2
Fore
SplineSet
36 12 m 2,0,-1
 36 554 l 2,1,2
 36 604 36 604 70 632 c 128,-1,3
 104 660 104 660 163 660 c 128,-1,4
 222 660 222 660 254.5 634 c 128,-1,5
 287 608 287 608 287 558 c 2,6,-1
 287 85 l 2,7,8
 287 64 287 64 295.5 55.5 c 128,-1,9
 304 47 304 47 325 47 c 1,10,11
 325 -10 325 -10 261 -10 c 0,12,13
 208 -10 208 -10 208 59 c 2,14,-1
 208 250 l 1,15,-1
 115 250 l 1,16,-1
 115 94 l 1,17,-1
 119 0 l 1,18,19
 85 -5 85 -5 52 -5 c 0,20,21
 36 -5 36 -5 36 12 c 2,0,-1
115 554 m 2,22,-1
 115 316 l 1,23,-1
 208 316 l 1,24,-1
 208 554 l 2,25,26
 208 573 208 573 195 583.5 c 128,-1,27
 182 594 182 594 161 594 c 128,-1,28
 140 594 140 594 127.5 583.5 c 128,-1,29
 115 573 115 573 115 554 c 2,22,-1
88 712 m 1,30,31
 50 716 50 716 50 751 c 0,32,33
 50 755 50 755 51 760 c 0,34,35
 56 797 56 797 98 797 c 0,36,37
 104 797 104 797 111 796 c 2,38,-1
 202 783 l 1,39,40
 217 782 217 782 223.5 787 c 128,-1,41
 230 792 230 792 233 808 c 1,42,43
 252 807 252 807 261 795 c 128,-1,44
 270 783 270 783 270 773 c 0,45,46
 270 723 270 723 222 723 c 0,47,48
 216 723 216 723 209 724 c 2,49,-1
 119 738 l 1,50,51
 104 738 104 738 97.5 732.5 c 128,-1,52
 91 727 91 727 88 712 c 1,30,31
EndSplineSet
EndChar

StartChar: Adieresis
Encoding: 196 196 134
Width: 327
GlyphClass: 2
Flags: W
LayerCount: 2
Fore
SplineSet
36 12 m 2,0,-1
 36 554 l 2,1,2
 36 604 36 604 70 632 c 128,-1,3
 104 660 104 660 163 660 c 128,-1,4
 222 660 222 660 254.5 634 c 128,-1,5
 287 608 287 608 287 558 c 2,6,-1
 287 85 l 2,7,8
 287 64 287 64 295.5 55.5 c 128,-1,9
 304 47 304 47 325 47 c 1,10,11
 325 -10 325 -10 261 -10 c 0,12,13
 208 -10 208 -10 208 59 c 2,14,-1
 208 250 l 1,15,-1
 115 250 l 1,16,-1
 115 94 l 1,17,-1
 119 0 l 1,18,19
 85 -5 85 -5 52 -5 c 0,20,21
 36 -5 36 -5 36 12 c 2,0,-1
115 554 m 2,22,-1
 115 316 l 1,23,-1
 208 316 l 1,24,-1
 208 554 l 2,25,26
 208 573 208 573 195 583.5 c 128,-1,27
 182 594 182 594 161 594 c 128,-1,28
 140 594 140 594 127.5 583.5 c 128,-1,29
 115 573 115 573 115 554 c 2,22,-1
63 758 m 128,-1,31
 63 815 63 815 106 815 c 128,-1,32
 149 815 149 815 149 758 c 128,-1,33
 149 701 149 701 106 701 c 128,-1,30
 63 701 63 701 63 758 c 128,-1,31
176 758 m 128,-1,35
 176 815 176 815 219 815 c 128,-1,36
 262 815 262 815 262 758 c 128,-1,37
 262 701 262 701 219 701 c 128,-1,34
 176 701 176 701 176 758 c 128,-1,35
EndSplineSet
EndChar

StartChar: Aring
Encoding: 197 197 135
Width: 327
GlyphClass: 2
Flags: W
LayerCount: 2
Fore
SplineSet
36 12 m 2,0,-1
 36 554 l 2,1,2
 36 604 36 604 70 632 c 128,-1,3
 104 660 104 660 163 660 c 128,-1,4
 222 660 222 660 254.5 634 c 128,-1,5
 287 608 287 608 287 558 c 2,6,-1
 287 85 l 2,7,8
 287 64 287 64 295.5 55.5 c 128,-1,9
 304 47 304 47 325 47 c 1,10,11
 325 -10 325 -10 261 -10 c 0,12,13
 208 -10 208 -10 208 59 c 2,14,-1
 208 250 l 1,15,-1
 115 250 l 1,16,-1
 115 94 l 1,17,-1
 119 0 l 1,18,19
 85 -5 85 -5 52 -5 c 0,20,21
 36 -5 36 -5 36 12 c 2,0,-1
115 554 m 2,22,-1
 115 316 l 1,23,-1
 208 316 l 1,24,-1
 208 554 l 2,25,26
 208 573 208 573 195 583.5 c 128,-1,27
 182 594 182 594 161 594 c 128,-1,28
 140 594 140 594 127.5 583.5 c 128,-1,29
 115 573 115 573 115 554 c 2,22,-1
78 738 m 2,30,-1
 78 772 l 2,31,32
 78 831 78 831 161 831 c 128,-1,33
 244 831 244 831 244 774 c 2,34,-1
 244 740 l 2,35,36
 244 681 244 681 161 681 c 128,-1,37
 78 681 78 681 78 738 c 2,30,-1
124 770 m 2,38,-1
 124 742 l 2,39,40
 124 718 124 718 161 718 c 128,-1,41
 198 718 198 718 198 742 c 2,42,-1
 198 770 l 2,43,44
 198 794 198 794 161 794 c 128,-1,45
 124 794 124 794 124 770 c 2,38,-1
EndSplineSet
EndChar

StartChar: AE
Encoding: 198 198 136
Width: 482
GlyphClass: 2
Flags: W
LayerCount: 2
Fore
SplineSet
345 328 m 2,0,1
 381 328 381 328 399 333 c 1,2,3
 407 305 407 305 407 278 c 0,4,5
 407 262 407 262 393 262 c 2,6,-1
 288 262 l 1,7,-1
 287 96 l 2,8,9
 287 77 287 77 299.5 66.5 c 128,-1,10
 312 56 312 56 333 56 c 128,-1,11
 354 56 354 56 367 66.5 c 128,-1,12
 380 77 380 77 380 96 c 2,13,-1
 380 121 l 1,14,-1
 377 172 l 1,15,16
 391 175 391 175 405 175 c 128,-1,17
 419 175 419 175 433 171 c 0,18,19
 459 164 459 164 459 146 c 2,20,-1
 459 82 l 2,21,22
 459 41 459 41 425 15.5 c 128,-1,23
 391 -10 391 -10 333.5 -10 c 128,-1,24
 276 -10 276 -10 242 18 c 128,-1,25
 208 46 208 46 208 96 c 2,26,-1
 209 262 l 1,27,-1
 116 262 l 1,28,-1
 115 94 l 1,29,-1
 119 0 l 1,30,31
 85 -5 85 -5 52 -5 c 0,32,33
 36 -5 36 -5 36 12 c 2,34,-1
 36 554 l 2,35,36
 36 604 36 604 70 632 c 128,-1,37
 104 660 104 660 161 660 c 128,-1,38
 218 660 218 660 249 638 c 1,39,40
 284 660 284 660 336.5 660 c 128,-1,41
 389 660 389 660 422 634.5 c 128,-1,42
 455 609 455 609 455 568 c 2,43,-1
 455 484 l 2,44,45
 455 466 455 466 429 459 c 0,46,47
 415 455 415 455 401 455 c 128,-1,48
 387 455 387 455 373 458 c 1,49,50
 376 482 376 482 376 509 c 2,51,-1
 376 554 l 2,52,53
 376 594 376 594 332 594 c 0,54,55
 311 594 311 594 299 583.5 c 128,-1,56
 287 573 287 573 287 554 c 2,57,-1
 288 328 l 1,58,-1
 345 328 l 2,0,1
161 594 m 128,-1,60
 140 594 140 594 127.5 583.5 c 128,-1,61
 115 573 115 573 115 554 c 2,62,-1
 116 328 l 1,63,-1
 209 328 l 1,64,-1
 208 554 l 2,65,66
 208 573 208 573 195 583.5 c 128,-1,59
 182 594 182 594 161 594 c 128,-1,60
EndSplineSet
EndChar

StartChar: Ccedilla
Encoding: 199 199 137
Width: 311
GlyphClass: 2
Flags: W
LayerCount: 2
Fore
SplineSet
216 -152 m 2,0,-1
 170 -152 l 1,1,-1
 137 -155 l 1,2,3
 133 -138 133 -138 133 -125.5 c 128,-1,4
 133 -113 133 -113 142 -113 c 2,5,-1
 209 -113 l 2,6,7
 230 -113 230 -113 230 -91 c 128,-1,8
 230 -69 230 -69 209 -69 c 2,9,-1
 146 -69 l 1,10,-1
 146 -9 l 1,11,12
 33 -4 33 -4 33 92 c 2,13,-1
 33 554 l 2,14,15
 33 604 33 604 67 632 c 128,-1,16
 101 660 101 660 158.5 660 c 128,-1,17
 216 660 216 660 250 634.5 c 128,-1,18
 284 609 284 609 284 568 c 2,19,-1
 284 444 l 2,20,21
 284 426 284 426 258 419 c 0,22,23
 244 415 244 415 230 415 c 128,-1,24
 216 415 216 415 202 418 c 1,25,26
 205 442 205 442 205 469 c 2,27,-1
 205 554 l 2,28,29
 205 573 205 573 192 583.5 c 128,-1,30
 179 594 179 594 158 594 c 128,-1,31
 137 594 137 594 124.5 583.5 c 128,-1,32
 112 573 112 573 112 554 c 2,33,-1
 112 96 l 2,34,35
 112 78 112 78 124.5 67 c 128,-1,36
 137 56 137 56 158 56 c 128,-1,37
 179 56 179 56 192 66.5 c 128,-1,38
 205 77 205 77 205 96 c 2,39,-1
 205 118 l 1,40,-1
 202 169 l 1,41,42
 216 172 216 172 230 172 c 128,-1,43
 244 172 244 172 258 168 c 0,44,45
 284 161 284 161 284 143 c 2,46,-1
 284 88 l 2,47,48
 284 54 284 54 260.5 29 c 128,-1,49
 237 4 237 4 198 -5 c 1,50,-1
 198 -29 l 1,51,-1
 212 -29 l 2,52,53
 279 -29 279 -29 279 -91 c 0,54,55
 279 -123 279 -123 264 -137.5 c 128,-1,56
 249 -152 249 -152 216 -152 c 2,0,-1
EndSplineSet
EndChar

StartChar: Egrave
Encoding: 200 200 138
Width: 306
GlyphClass: 2
Flags: W
LayerCount: 2
Fore
SplineSet
168 338 m 2,0,1
 204 338 204 338 222 343 c 1,2,3
 230 315 230 315 230 288 c 0,4,5
 230 272 230 272 216 272 c 2,6,-1
 157 272 l 2,7,8
 136 272 136 272 123.5 261 c 128,-1,9
 111 250 111 250 111 232 c 2,10,-1
 111 96 l 2,11,12
 111 77 111 77 123.5 66.5 c 128,-1,13
 136 56 136 56 157 56 c 128,-1,14
 178 56 178 56 191 66.5 c 128,-1,15
 204 77 204 77 204 96 c 2,16,-1
 204 121 l 1,17,-1
 201 172 l 1,18,19
 215 175 215 175 229 175 c 128,-1,20
 243 175 243 175 257 171 c 0,21,22
 283 164 283 164 283 146 c 2,23,-1
 283 82 l 2,24,25
 283 41 283 41 249 15.5 c 128,-1,26
 215 -10 215 -10 157.5 -10 c 128,-1,27
 100 -10 100 -10 66 18 c 128,-1,28
 32 46 32 46 32 96 c 2,29,-1
 32 236 l 2,30,31
 32 281 32 281 61 305 c 1,32,33
 32 329 32 329 32 374 c 2,34,-1
 32 554 l 2,35,36
 32 604 32 604 66 632 c 128,-1,37
 100 660 100 660 156.5 660 c 128,-1,38
 213 660 213 660 246 634.5 c 128,-1,39
 279 609 279 609 279 568 c 2,40,-1
 279 484 l 2,41,42
 279 466 279 466 253 459 c 0,43,44
 239 455 239 455 225 455 c 128,-1,45
 211 455 211 455 197 458 c 1,46,47
 200 482 200 482 200 509 c 2,48,-1
 200 554 l 2,49,50
 200 594 200 594 156 594 c 0,51,52
 135 594 135 594 123 583.5 c 128,-1,53
 111 573 111 573 111 554 c 2,54,-1
 111 378 l 2,55,56
 111 360 111 360 122.5 349 c 128,-1,57
 134 338 134 338 153 338 c 2,58,-1
 168 338 l 2,0,1
199 720 m 2,59,60
 201 717 201 717 201 713 c 128,-1,61
 201 709 201 709 196 706 c 2,62,-1
 160 688 l 1,63,64
 153 701 153 701 142 718 c 2,65,-1
 84 803 l 2,66,67
 81 808 81 808 81 812 c 0,68,69
 81 819 81 819 106.5 829.5 c 128,-1,70
 132 840 132 840 142 843 c 2,71,-1
 152 846 l 1,72,73
 156 823 156 823 165 802 c 2,74,-1
 199 720 l 2,59,60
EndSplineSet
EndChar

StartChar: Eacute
Encoding: 201 201 139
Width: 306
GlyphClass: 2
Flags: W
LayerCount: 2
Fore
SplineSet
168 338 m 2,0,1
 204 338 204 338 222 343 c 1,2,3
 230 315 230 315 230 288 c 0,4,5
 230 272 230 272 216 272 c 2,6,-1
 157 272 l 2,7,8
 136 272 136 272 123.5 261 c 128,-1,9
 111 250 111 250 111 232 c 2,10,-1
 111 96 l 2,11,12
 111 77 111 77 123.5 66.5 c 128,-1,13
 136 56 136 56 157 56 c 128,-1,14
 178 56 178 56 191 66.5 c 128,-1,15
 204 77 204 77 204 96 c 2,16,-1
 204 121 l 1,17,-1
 201 172 l 1,18,19
 215 175 215 175 229 175 c 128,-1,20
 243 175 243 175 257 171 c 0,21,22
 283 164 283 164 283 146 c 2,23,-1
 283 82 l 2,24,25
 283 41 283 41 249 15.5 c 128,-1,26
 215 -10 215 -10 157.5 -10 c 128,-1,27
 100 -10 100 -10 66 18 c 128,-1,28
 32 46 32 46 32 96 c 2,29,-1
 32 236 l 2,30,31
 32 281 32 281 61 305 c 1,32,33
 32 329 32 329 32 374 c 2,34,-1
 32 554 l 2,35,36
 32 604 32 604 66 632 c 128,-1,37
 100 660 100 660 156.5 660 c 128,-1,38
 213 660 213 660 246 634.5 c 128,-1,39
 279 609 279 609 279 568 c 2,40,-1
 279 484 l 2,41,42
 279 466 279 466 253 459 c 0,43,44
 239 455 239 455 225 455 c 128,-1,45
 211 455 211 455 197 458 c 1,46,47
 200 482 200 482 200 509 c 2,48,-1
 200 554 l 2,49,50
 200 594 200 594 156 594 c 0,51,52
 135 594 135 594 123 583.5 c 128,-1,53
 111 573 111 573 111 554 c 2,54,-1
 111 378 l 2,55,56
 111 360 111 360 122.5 349 c 128,-1,57
 134 338 134 338 153 338 c 2,58,-1
 168 338 l 2,0,1
175 846 m 1,59,60
 246 824 246 824 246 811 c 0,61,62
 246 808 246 808 243 803 c 2,63,-1
 185 718 l 1,64,-1
 167 688 l 1,65,66
 126 703 126 703 126 714 c 0,67,68
 126 717 126 717 128 720 c 2,69,-1
 162 802 l 1,70,-1
 175 846 l 1,59,60
EndSplineSet
EndChar

StartChar: Ecircumflex
Encoding: 202 202 140
Width: 306
GlyphClass: 2
Flags: W
LayerCount: 2
Fore
SplineSet
168 338 m 2,0,1
 204 338 204 338 222 343 c 1,2,3
 230 315 230 315 230 288 c 0,4,5
 230 272 230 272 216 272 c 2,6,-1
 157 272 l 2,7,8
 136 272 136 272 123.5 261 c 128,-1,9
 111 250 111 250 111 232 c 2,10,-1
 111 96 l 2,11,12
 111 77 111 77 123.5 66.5 c 128,-1,13
 136 56 136 56 157 56 c 128,-1,14
 178 56 178 56 191 66.5 c 128,-1,15
 204 77 204 77 204 96 c 2,16,-1
 204 121 l 1,17,-1
 201 172 l 1,18,19
 215 175 215 175 229 175 c 128,-1,20
 243 175 243 175 257 171 c 0,21,22
 283 164 283 164 283 146 c 2,23,-1
 283 82 l 2,24,25
 283 41 283 41 249 15.5 c 128,-1,26
 215 -10 215 -10 157.5 -10 c 128,-1,27
 100 -10 100 -10 66 18 c 128,-1,28
 32 46 32 46 32 96 c 2,29,-1
 32 236 l 2,30,31
 32 281 32 281 61 305 c 1,32,33
 32 329 32 329 32 374 c 2,34,-1
 32 554 l 2,35,36
 32 604 32 604 66 632 c 128,-1,37
 100 660 100 660 156.5 660 c 128,-1,38
 213 660 213 660 246 634.5 c 128,-1,39
 279 609 279 609 279 568 c 2,40,-1
 279 484 l 2,41,42
 279 466 279 466 253 459 c 0,43,44
 239 455 239 455 225 455 c 128,-1,45
 211 455 211 455 197 458 c 1,46,47
 200 482 200 482 200 509 c 2,48,-1
 200 554 l 2,49,50
 200 594 200 594 156 594 c 0,51,52
 135 594 135 594 123 583.5 c 128,-1,53
 111 573 111 573 111 554 c 2,54,-1
 111 378 l 2,55,56
 111 360 111 360 122.5 349 c 128,-1,57
 134 338 134 338 153 338 c 2,58,-1
 168 338 l 2,0,1
96 688 m 1,59,60
 54 703 54 703 54 714 c 0,61,62
 54 717 54 717 56 720 c 2,63,-1
 100 802 l 1,64,-1
 115 836 l 1,65,66
 125 844 125 844 152 844 c 128,-1,67
 179 844 179 844 193 837 c 1,68,69
 198 822 198 822 209 802 c 2,70,-1
 253 720 l 2,71,72
 255 717 255 717 255 713 c 128,-1,73
 255 709 255 709 250 706 c 2,74,-1
 213 688 l 1,75,76
 208 701 208 701 196 718 c 2,77,-1
 154 778 l 1,78,-1
 113 718 l 1,79,-1
 96 688 l 1,59,60
EndSplineSet
EndChar

StartChar: Edieresis
Encoding: 203 203 141
Width: 306
GlyphClass: 2
Flags: W
LayerCount: 2
Fore
SplineSet
168 338 m 2,0,1
 204 338 204 338 222 343 c 1,2,3
 230 315 230 315 230 288 c 0,4,5
 230 272 230 272 216 272 c 2,6,-1
 157 272 l 2,7,8
 136 272 136 272 123.5 261 c 128,-1,9
 111 250 111 250 111 232 c 2,10,-1
 111 96 l 2,11,12
 111 77 111 77 123.5 66.5 c 128,-1,13
 136 56 136 56 157 56 c 128,-1,14
 178 56 178 56 191 66.5 c 128,-1,15
 204 77 204 77 204 96 c 2,16,-1
 204 121 l 1,17,-1
 201 172 l 1,18,19
 215 175 215 175 229 175 c 128,-1,20
 243 175 243 175 257 171 c 0,21,22
 283 164 283 164 283 146 c 2,23,-1
 283 82 l 2,24,25
 283 41 283 41 249 15.5 c 128,-1,26
 215 -10 215 -10 157.5 -10 c 128,-1,27
 100 -10 100 -10 66 18 c 128,-1,28
 32 46 32 46 32 96 c 2,29,-1
 32 236 l 2,30,31
 32 281 32 281 61 305 c 1,32,33
 32 329 32 329 32 374 c 2,34,-1
 32 554 l 2,35,36
 32 604 32 604 66 632 c 128,-1,37
 100 660 100 660 156.5 660 c 128,-1,38
 213 660 213 660 246 634.5 c 128,-1,39
 279 609 279 609 279 568 c 2,40,-1
 279 484 l 2,41,42
 279 466 279 466 253 459 c 0,43,44
 239 455 239 455 225 455 c 128,-1,45
 211 455 211 455 197 458 c 1,46,47
 200 482 200 482 200 509 c 2,48,-1
 200 554 l 2,49,50
 200 594 200 594 156 594 c 0,51,52
 135 594 135 594 123 583.5 c 128,-1,53
 111 573 111 573 111 554 c 2,54,-1
 111 378 l 2,55,56
 111 360 111 360 122.5 349 c 128,-1,57
 134 338 134 338 153 338 c 2,58,-1
 168 338 l 2,0,1
56 758 m 128,-1,60
 56 815 56 815 99 815 c 128,-1,61
 142 815 142 815 142 758 c 128,-1,62
 142 701 142 701 99 701 c 128,-1,59
 56 701 56 701 56 758 c 128,-1,60
169 758 m 128,-1,64
 169 815 169 815 212 815 c 128,-1,65
 255 815 255 815 255 758 c 128,-1,66
 255 701 255 701 212 701 c 128,-1,63
 169 701 169 701 169 758 c 128,-1,64
EndSplineSet
EndChar

StartChar: Igrave
Encoding: 204 204 142
Width: 153
GlyphClass: 2
Flags: W
LayerCount: 2
Fore
SplineSet
36 12 m 2,0,-1
 36 556 l 1,1,-1
 32 650 l 1,2,3
 66 655 66 655 99 655 c 0,4,5
 115 655 115 655 115 638 c 2,6,-1
 115 94 l 1,7,-1
 119 0 l 1,8,9
 85 -5 85 -5 52 -5 c 0,10,11
 36 -5 36 -5 36 12 c 2,0,-1
113 720 m 2,12,13
 115 717 115 717 115 713 c 128,-1,14
 115 709 115 709 110 706 c 2,15,-1
 74 688 l 1,16,17
 67 701 67 701 56 718 c 2,18,-1
 -2 803 l 2,19,20
 -5 808 -5 808 -5 812 c 0,21,22
 -5 819 -5 819 20.5 829.5 c 128,-1,23
 46 840 46 840 56 843 c 2,24,-1
 66 846 l 1,25,26
 70 823 70 823 79 802 c 2,27,-1
 113 720 l 2,12,13
EndSplineSet
EndChar

StartChar: Iacute
Encoding: 205 205 143
Width: 153
GlyphClass: 2
Flags: W
LayerCount: 2
Fore
SplineSet
37 12 m 2,0,-1
 37 556 l 1,1,-1
 33 650 l 1,2,3
 67 655 67 655 100 655 c 0,4,5
 116 655 116 655 116 638 c 2,6,-1
 116 94 l 1,7,-1
 120 0 l 1,8,9
 86 -5 86 -5 53 -5 c 0,10,11
 37 -5 37 -5 37 12 c 2,0,-1
86 846 m 1,12,13
 157 824 157 824 157 811 c 0,14,15
 157 808 157 808 154 803 c 2,16,-1
 96 718 l 1,17,-1
 78 688 l 1,18,19
 37 703 37 703 37 714 c 0,20,21
 37 717 37 717 39 720 c 2,22,-1
 73 802 l 1,23,-1
 86 846 l 1,12,13
EndSplineSet
EndChar

StartChar: Icircumflex
Encoding: 206 206 144
Width: 153
GlyphClass: 2
Flags: W
LayerCount: 2
Fore
SplineSet
37 12 m 2,0,-1
 37 556 l 1,1,-1
 33 650 l 1,2,3
 67 655 67 655 100 655 c 0,4,5
 116 655 116 655 116 638 c 2,6,-1
 116 94 l 1,7,-1
 120 0 l 1,8,9
 86 -5 86 -5 53 -5 c 0,10,11
 37 -5 37 -5 37 12 c 2,0,-1
18 688 m 1,12,13
 -24 703 -24 703 -24 714 c 0,14,15
 -24 717 -24 717 -22 720 c 2,16,-1
 22 802 l 1,17,-1
 37 836 l 1,18,19
 47 844 47 844 74 844 c 128,-1,20
 101 844 101 844 115 837 c 1,21,22
 120 822 120 822 131 802 c 2,23,-1
 175 720 l 2,24,25
 177 717 177 717 177 713 c 128,-1,26
 177 709 177 709 172 706 c 2,27,-1
 135 688 l 1,28,29
 130 701 130 701 118 718 c 2,30,-1
 76 778 l 1,31,-1
 35 718 l 1,32,-1
 18 688 l 1,12,13
EndSplineSet
EndChar

StartChar: Idieresis
Encoding: 207 207 145
Width: 153
GlyphClass: 2
Flags: W
LayerCount: 2
Fore
SplineSet
37 12 m 2,0,-1
 37 556 l 1,1,-1
 33 650 l 1,2,3
 67 655 67 655 100 655 c 0,4,5
 116 655 116 655 116 638 c 2,6,-1
 116 94 l 1,7,-1
 120 0 l 1,8,9
 86 -5 86 -5 53 -5 c 0,10,11
 37 -5 37 -5 37 12 c 2,0,-1
-23 758 m 128,-1,13
 -23 815 -23 815 20 815 c 128,-1,14
 63 815 63 815 63 758 c 128,-1,15
 63 701 63 701 20 701 c 128,-1,12
 -23 701 -23 701 -23 758 c 128,-1,13
90 758 m 128,-1,17
 90 815 90 815 133 815 c 128,-1,18
 176 815 176 815 176 758 c 128,-1,19
 176 701 176 701 133 701 c 128,-1,16
 90 701 90 701 90 758 c 128,-1,17
EndSplineSet
EndChar

StartChar: Eth
Encoding: 208 208 146
Width: 329
GlyphClass: 2
Flags: W
LayerCount: 2
Fore
SplineSet
21 332 m 2,0,-1
 45 332 l 1,1,-1
 45 553 l 2,2,3
 45 575 45 575 37 584.5 c 128,-1,4
 29 594 29 594 8 594 c 1,5,6
 7 620 7 620 22 635 c 128,-1,7
 37 650 37 650 70 650 c 128,-1,8
 103 650 103 650 117 617 c 1,9,10
 156 650 156 650 197 650 c 0,11,12
 296 650 296 650 296 552 c 2,13,-1
 296 106 l 2,14,15
 296 56 296 56 261.5 28 c 128,-1,16
 227 0 227 0 168 0 c 2,17,-1
 45 0 l 1,18,-1
 45 271 l 1,19,-1
 13 267 l 1,20,21
 8 293 8 293 8 312.5 c 128,-1,22
 8 332 8 332 21 332 c 2,0,-1
178 584 m 0,23,24
 151 584 151 584 124 557 c 1,25,-1
 124 332 l 1,26,-1
 133 332 l 1,27,-1
 185 337 l 1,28,29
 190 311 190 311 190 291.5 c 128,-1,30
 190 272 190 272 177 272 c 2,31,-1
 124 272 l 1,32,-1
 124 66 l 1,33,-1
 170 66 l 2,34,35
 191 66 191 66 204 76.5 c 128,-1,36
 217 87 217 87 217 106 c 2,37,-1
 217 546 l 2,38,39
 217 584 217 584 178 584 c 0,23,24
EndSplineSet
EndChar

StartChar: Ntilde
Encoding: 209 209 147
Width: 334
GlyphClass: 2
Flags: W
LayerCount: 2
Fore
SplineSet
175 584 m 0,0,1
 148 584 148 584 121 557 c 1,2,-1
 121 94 l 1,3,-1
 125 0 l 1,4,5
 91 -5 91 -5 58 -5 c 0,6,7
 42 -5 42 -5 42 12 c 2,8,-1
 42 553 l 2,9,10
 42 575 42 575 34 584.5 c 128,-1,11
 26 594 26 594 5 594 c 1,12,13
 4 620 4 620 19 635 c 128,-1,14
 34 650 34 650 67 650 c 128,-1,15
 100 650 100 650 114 617 c 1,16,17
 153 650 153 650 194 650 c 0,18,19
 293 650 293 650 293 552 c 2,20,-1
 293 85 l 2,21,22
 293 64 293 64 301.5 55.5 c 128,-1,23
 310 47 310 47 331 47 c 1,24,25
 331 -10 331 -10 267 -10 c 0,26,27
 214 -10 214 -10 214 59 c 2,28,-1
 214 546 l 2,29,30
 214 584 214 584 175 584 c 0,0,1
93 712 m 1,31,32
 55 716 55 716 55 751 c 0,33,34
 55 755 55 755 56 760 c 0,35,36
 61 797 61 797 103 797 c 0,37,38
 109 797 109 797 116 796 c 2,39,-1
 207 783 l 1,40,41
 222 782 222 782 228.5 787 c 128,-1,42
 235 792 235 792 238 808 c 1,43,44
 257 807 257 807 266 795 c 128,-1,45
 275 783 275 783 275 773 c 0,46,47
 275 723 275 723 227 723 c 0,48,49
 221 723 221 723 214 724 c 2,50,-1
 124 738 l 1,51,52
 109 738 109 738 102.5 732.5 c 128,-1,53
 96 727 96 727 93 712 c 1,31,32
EndSplineSet
EndChar

StartChar: Ograve
Encoding: 210 210 148
Width: 317
GlyphClass: 2
Flags: W
LayerCount: 2
Fore
SplineSet
33 92 m 2,0,-1
 33 554 l 2,1,2
 33 604 33 604 67 632 c 128,-1,3
 101 660 101 660 160 660 c 128,-1,4
 219 660 219 660 251.5 634 c 128,-1,5
 284 608 284 608 284 558 c 2,6,-1
 284 96 l 2,7,8
 284 46 284 46 249.5 18 c 128,-1,9
 215 -10 215 -10 156 -10 c 128,-1,10
 97 -10 97 -10 65 16 c 128,-1,11
 33 42 33 42 33 92 c 2,0,-1
112 554 m 2,12,-1
 112 96 l 2,13,14
 112 78 112 78 124.5 67 c 128,-1,15
 137 56 137 56 158 56 c 128,-1,16
 179 56 179 56 192 66.5 c 128,-1,17
 205 77 205 77 205 96 c 2,18,-1
 205 554 l 2,19,20
 205 573 205 573 192 583.5 c 128,-1,21
 179 594 179 594 158 594 c 128,-1,22
 137 594 137 594 124.5 583.5 c 128,-1,23
 112 573 112 573 112 554 c 2,12,-1
194 720 m 2,24,25
 196 717 196 717 196 713 c 128,-1,26
 196 709 196 709 191 706 c 2,27,-1
 155 688 l 1,28,29
 148 701 148 701 137 718 c 2,30,-1
 79 803 l 2,31,32
 76 808 76 808 76 812 c 0,33,34
 76 819 76 819 101.5 829.5 c 128,-1,35
 127 840 127 840 137 843 c 2,36,-1
 147 846 l 1,37,38
 151 823 151 823 160 802 c 2,39,-1
 194 720 l 2,24,25
EndSplineSet
EndChar

StartChar: Oacute
Encoding: 211 211 149
Width: 317
GlyphClass: 2
Flags: W
LayerCount: 2
Fore
SplineSet
33 92 m 2,0,-1
 33 554 l 2,1,2
 33 604 33 604 67 632 c 128,-1,3
 101 660 101 660 160 660 c 128,-1,4
 219 660 219 660 251.5 634 c 128,-1,5
 284 608 284 608 284 558 c 2,6,-1
 284 96 l 2,7,8
 284 46 284 46 249.5 18 c 128,-1,9
 215 -10 215 -10 156 -10 c 128,-1,10
 97 -10 97 -10 65 16 c 128,-1,11
 33 42 33 42 33 92 c 2,0,-1
112 554 m 2,12,-1
 112 96 l 2,13,14
 112 78 112 78 124.5 67 c 128,-1,15
 137 56 137 56 158 56 c 128,-1,16
 179 56 179 56 192 66.5 c 128,-1,17
 205 77 205 77 205 96 c 2,18,-1
 205 554 l 2,19,20
 205 573 205 573 192 583.5 c 128,-1,21
 179 594 179 594 158 594 c 128,-1,22
 137 594 137 594 124.5 583.5 c 128,-1,23
 112 573 112 573 112 554 c 2,12,-1
173 846 m 1,24,25
 244 824 244 824 244 811 c 0,26,27
 244 808 244 808 241 803 c 2,28,-1
 183 718 l 1,29,-1
 165 688 l 1,30,31
 124 703 124 703 124 714 c 0,32,33
 124 717 124 717 126 720 c 2,34,-1
 160 802 l 1,35,-1
 173 846 l 1,24,25
EndSplineSet
EndChar

StartChar: Ocircumflex
Encoding: 212 212 150
Width: 317
GlyphClass: 2
Flags: W
LayerCount: 2
Fore
SplineSet
33 92 m 2,0,-1
 33 554 l 2,1,2
 33 604 33 604 67 632 c 128,-1,3
 101 660 101 660 160 660 c 128,-1,4
 219 660 219 660 251.5 634 c 128,-1,5
 284 608 284 608 284 558 c 2,6,-1
 284 96 l 2,7,8
 284 46 284 46 249.5 18 c 128,-1,9
 215 -10 215 -10 156 -10 c 128,-1,10
 97 -10 97 -10 65 16 c 128,-1,11
 33 42 33 42 33 92 c 2,0,-1
112 554 m 2,12,-1
 112 96 l 2,13,14
 112 78 112 78 124.5 67 c 128,-1,15
 137 56 137 56 158 56 c 128,-1,16
 179 56 179 56 192 66.5 c 128,-1,17
 205 77 205 77 205 96 c 2,18,-1
 205 554 l 2,19,20
 205 573 205 573 192 583.5 c 128,-1,21
 179 594 179 594 158 594 c 128,-1,22
 137 594 137 594 124.5 583.5 c 128,-1,23
 112 573 112 573 112 554 c 2,12,-1
100 688 m 1,24,25
 58 703 58 703 58 714 c 0,26,27
 58 717 58 717 60 720 c 2,28,-1
 104 802 l 1,29,-1
 119 836 l 1,30,31
 129 844 129 844 156 844 c 128,-1,32
 183 844 183 844 197 837 c 1,33,34
 202 822 202 822 213 802 c 2,35,-1
 257 720 l 2,36,37
 259 717 259 717 259 713 c 128,-1,38
 259 709 259 709 254 706 c 2,39,-1
 217 688 l 1,40,41
 212 701 212 701 200 718 c 2,42,-1
 158 778 l 1,43,-1
 117 718 l 1,44,-1
 100 688 l 1,24,25
EndSplineSet
EndChar

StartChar: Otilde
Encoding: 213 213 151
Width: 317
GlyphClass: 2
Flags: W
LayerCount: 2
Fore
SplineSet
33 92 m 2,0,-1
 33 554 l 2,1,2
 33 604 33 604 67 632 c 128,-1,3
 101 660 101 660 160 660 c 128,-1,4
 219 660 219 660 251.5 634 c 128,-1,5
 284 608 284 608 284 558 c 2,6,-1
 284 96 l 2,7,8
 284 46 284 46 249.5 18 c 128,-1,9
 215 -10 215 -10 156 -10 c 128,-1,10
 97 -10 97 -10 65 16 c 128,-1,11
 33 42 33 42 33 92 c 2,0,-1
112 554 m 2,12,-1
 112 96 l 2,13,14
 112 78 112 78 124.5 67 c 128,-1,15
 137 56 137 56 158 56 c 128,-1,16
 179 56 179 56 192 66.5 c 128,-1,17
 205 77 205 77 205 96 c 2,18,-1
 205 554 l 2,19,20
 205 573 205 573 192 583.5 c 128,-1,21
 179 594 179 594 158 594 c 128,-1,22
 137 594 137 594 124.5 583.5 c 128,-1,23
 112 573 112 573 112 554 c 2,12,-1
87 712 m 1,24,25
 49 716 49 716 49 751 c 0,26,27
 49 755 49 755 50 760 c 0,28,29
 55 797 55 797 97 797 c 0,30,31
 103 797 103 797 110 796 c 2,32,-1
 201 783 l 1,33,34
 216 782 216 782 222.5 787 c 128,-1,35
 229 792 229 792 232 808 c 1,36,37
 251 807 251 807 260 795 c 128,-1,38
 269 783 269 783 269 773 c 0,39,40
 269 723 269 723 221 723 c 0,41,42
 215 723 215 723 208 724 c 2,43,-1
 118 738 l 1,44,45
 103 738 103 738 96.5 732.5 c 128,-1,46
 90 727 90 727 87 712 c 1,24,25
EndSplineSet
EndChar

StartChar: Odieresis
Encoding: 214 214 152
Width: 317
GlyphClass: 2
Flags: W
LayerCount: 2
Fore
SplineSet
33 92 m 2,0,-1
 33 554 l 2,1,2
 33 604 33 604 67 632 c 128,-1,3
 101 660 101 660 160 660 c 128,-1,4
 219 660 219 660 251.5 634 c 128,-1,5
 284 608 284 608 284 558 c 2,6,-1
 284 96 l 2,7,8
 284 46 284 46 249.5 18 c 128,-1,9
 215 -10 215 -10 156 -10 c 128,-1,10
 97 -10 97 -10 65 16 c 128,-1,11
 33 42 33 42 33 92 c 2,0,-1
112 554 m 2,12,-1
 112 96 l 2,13,14
 112 78 112 78 124.5 67 c 128,-1,15
 137 56 137 56 158 56 c 128,-1,16
 179 56 179 56 192 66.5 c 128,-1,17
 205 77 205 77 205 96 c 2,18,-1
 205 554 l 2,19,20
 205 573 205 573 192 583.5 c 128,-1,21
 179 594 179 594 158 594 c 128,-1,22
 137 594 137 594 124.5 583.5 c 128,-1,23
 112 573 112 573 112 554 c 2,12,-1
59 758 m 128,-1,25
 59 815 59 815 102 815 c 128,-1,26
 145 815 145 815 145 758 c 128,-1,27
 145 701 145 701 102 701 c 128,-1,24
 59 701 59 701 59 758 c 128,-1,25
172 758 m 128,-1,29
 172 815 172 815 215 815 c 128,-1,30
 258 815 258 815 258 758 c 128,-1,31
 258 701 258 701 215 701 c 128,-1,28
 172 701 172 701 172 758 c 128,-1,29
EndSplineSet
EndChar

StartChar: multiply
Encoding: 215 215 153
Width: 357
GlyphClass: 2
Flags: W
LayerCount: 2
Fore
SplineSet
80 434 m 2,0,-1
 179 335 l 1,1,-1
 234 390 l 2,2,3
 252 408 252 408 271 440 c 1,4,5
 303 430 303 430 320.5 413 c 128,-1,6
 338 396 338 396 327 385 c 2,7,-1
 228 286 l 1,8,-1
 282 232 l 2,9,10
 300 214 300 214 332 195 c 1,11,12
 322 163 322 163 305 145.5 c 128,-1,13
 288 128 288 128 277 139 c 2,14,-1
 179 237 l 1,15,-1
 125 183 l 2,16,17
 106 164 106 164 88 134 c 1,18,19
 53 145 53 145 35 163 c 1,20,21
 22 178 22 178 32 188 c 2,22,-1
 130 286 l 1,23,-1
 75 341 l 2,24,25
 56 360 56 360 26 378 c 1,26,27
 37 413 37 413 55 431 c 1,28,29
 70 444 70 444 80 434 c 2,0,-1
EndSplineSet
EndChar

StartChar: Oslash
Encoding: 216 216 154
Width: 333
GlyphClass: 2
Flags: W
LayerCount: 2
Fore
SplineSet
28 -41 m 0,0,1
 -7 -41 -7 -41 -7 -24 c 0,2,3
 -7 -20 -7 -20 -5 -16 c 2,4,-1
 42 96 l 1,5,-1
 42 554 l 2,6,7
 42 604 42 604 76 632 c 128,-1,8
 110 660 110 660 171 660 c 128,-1,9
 232 660 232 660 266 629 c 1,10,11
 277 651 277 651 284 690 c 1,12,13
 296 692 296 692 308.5 692 c 128,-1,14
 321 692 321 692 331 687.5 c 128,-1,15
 341 683 341 683 341 675 c 0,16,17
 341 671 341 671 339 667 c 2,18,-1
 293 557 l 1,19,-1
 293 96 l 2,20,21
 293 46 293 46 258.5 18 c 128,-1,22
 224 -10 224 -10 161.5 -10 c 128,-1,23
 99 -10 99 -10 68 21 c 1,24,-1
 68 20 l 1,25,26
 59 -3 59 -3 50 -39 c 1,27,28
 38 -41 38 -41 28 -41 c 0,0,1
167 56 m 128,-1,30
 188 56 188 56 201 66.5 c 128,-1,31
 214 77 214 77 214 96 c 2,32,-1
 214 369 l 1,33,-1
 121 147 l 1,34,-1
 121 96 l 2,35,36
 121 78 121 78 133.5 67 c 128,-1,29
 146 56 146 56 167 56 c 128,-1,30
121 554 m 2,37,-1
 121 283 l 1,38,-1
 214 504 l 1,39,-1
 214 554 l 2,40,41
 214 573 214 573 201 583.5 c 128,-1,42
 188 594 188 594 167 594 c 128,-1,43
 146 594 146 594 133.5 583.5 c 128,-1,44
 121 573 121 573 121 554 c 2,37,-1
EndSplineSet
EndChar

StartChar: Ugrave
Encoding: 217 217 155
Width: 334
GlyphClass: 2
Flags: W
LayerCount: 2
Fore
SplineSet
213 568 m 2,0,1
 213 617 213 617 206 650 c 1,2,3
 240 654 240 654 275 654 c 0,4,5
 292 654 292 654 292 639 c 2,6,-1
 292 85 l 2,7,8
 292 64 292 64 300 55 c 128,-1,9
 308 46 308 46 329 46 c 1,10,11
 330 20 330 20 315.5 5 c 128,-1,12
 301 -10 301 -10 274 -10 c 0,13,14
 232 -10 232 -10 220 21 c 1,15,16
 192 -10 192 -10 143 -10 c 0,17,18
 41 -10 41 -10 41 86 c 2,19,-1
 41 565 l 2,20,21
 41 586 41 586 32.5 594.5 c 128,-1,22
 24 603 24 603 3 603 c 1,23,24
 3 660 3 660 67 660 c 0,25,26
 120 660 120 660 120 591 c 2,27,-1
 120 92 l 2,28,29
 120 56 120 56 156.5 56 c 128,-1,30
 193 56 193 56 213 91 c 1,31,-1
 213 568 l 2,0,1
195 720 m 2,32,33
 197 717 197 717 197 713 c 128,-1,34
 197 709 197 709 192 706 c 2,35,-1
 156 688 l 1,36,37
 149 701 149 701 138 718 c 2,38,-1
 80 803 l 2,39,40
 77 808 77 808 77 812 c 0,41,42
 77 819 77 819 102.5 829.5 c 128,-1,43
 128 840 128 840 138 843 c 2,44,-1
 148 846 l 1,45,46
 152 823 152 823 161 802 c 2,47,-1
 195 720 l 2,32,33
EndSplineSet
EndChar

StartChar: Uacute
Encoding: 218 218 156
Width: 334
GlyphClass: 2
Flags: W
LayerCount: 2
Fore
SplineSet
213 568 m 2,0,1
 213 617 213 617 206 650 c 1,2,3
 240 654 240 654 275 654 c 0,4,5
 292 654 292 654 292 639 c 2,6,-1
 292 85 l 2,7,8
 292 64 292 64 300 55 c 128,-1,9
 308 46 308 46 329 46 c 1,10,11
 330 20 330 20 315.5 5 c 128,-1,12
 301 -10 301 -10 274 -10 c 0,13,14
 232 -10 232 -10 220 21 c 1,15,16
 192 -10 192 -10 143 -10 c 0,17,18
 41 -10 41 -10 41 86 c 2,19,-1
 41 565 l 2,20,21
 41 586 41 586 32.5 594.5 c 128,-1,22
 24 603 24 603 3 603 c 1,23,24
 3 660 3 660 67 660 c 0,25,26
 120 660 120 660 120 591 c 2,27,-1
 120 92 l 2,28,29
 120 56 120 56 156.5 56 c 128,-1,30
 193 56 193 56 213 91 c 1,31,-1
 213 568 l 2,0,1
171 846 m 1,32,33
 242 824 242 824 242 811 c 0,34,35
 242 808 242 808 239 803 c 2,36,-1
 181 718 l 1,37,-1
 163 688 l 1,38,39
 122 703 122 703 122 714 c 0,40,41
 122 717 122 717 124 720 c 2,42,-1
 158 802 l 1,43,-1
 171 846 l 1,32,33
EndSplineSet
EndChar

StartChar: Ucircumflex
Encoding: 219 219 157
Width: 334
GlyphClass: 2
Flags: W
LayerCount: 2
Fore
SplineSet
213 568 m 2,0,1
 213 617 213 617 206 650 c 1,2,3
 240 654 240 654 275 654 c 0,4,5
 292 654 292 654 292 639 c 2,6,-1
 292 85 l 2,7,8
 292 64 292 64 300 55 c 128,-1,9
 308 46 308 46 329 46 c 1,10,11
 330 20 330 20 315.5 5 c 128,-1,12
 301 -10 301 -10 274 -10 c 0,13,14
 232 -10 232 -10 220 21 c 1,15,16
 192 -10 192 -10 143 -10 c 0,17,18
 41 -10 41 -10 41 86 c 2,19,-1
 41 565 l 2,20,21
 41 586 41 586 32.5 594.5 c 128,-1,22
 24 603 24 603 3 603 c 1,23,24
 3 660 3 660 67 660 c 0,25,26
 120 660 120 660 120 591 c 2,27,-1
 120 92 l 2,28,29
 120 56 120 56 156.5 56 c 128,-1,30
 193 56 193 56 213 91 c 1,31,-1
 213 568 l 2,0,1
108 688 m 1,32,33
 66 703 66 703 66 714 c 0,34,35
 66 717 66 717 68 720 c 2,36,-1
 112 802 l 1,37,-1
 127 836 l 1,38,39
 137 844 137 844 164 844 c 128,-1,40
 191 844 191 844 205 837 c 1,41,42
 210 822 210 822 221 802 c 2,43,-1
 265 720 l 2,44,45
 267 717 267 717 267 713 c 128,-1,46
 267 709 267 709 262 706 c 2,47,-1
 225 688 l 1,48,49
 220 701 220 701 208 718 c 2,50,-1
 166 778 l 1,51,-1
 125 718 l 1,52,-1
 108 688 l 1,32,33
EndSplineSet
EndChar

StartChar: Udieresis
Encoding: 220 220 158
Width: 334
GlyphClass: 2
Flags: W
LayerCount: 2
Fore
SplineSet
213 568 m 2,0,1
 213 617 213 617 206 650 c 1,2,3
 240 654 240 654 275 654 c 0,4,5
 292 654 292 654 292 639 c 2,6,-1
 292 85 l 2,7,8
 292 64 292 64 300 55 c 128,-1,9
 308 46 308 46 329 46 c 1,10,11
 330 20 330 20 315.5 5 c 128,-1,12
 301 -10 301 -10 274 -10 c 0,13,14
 232 -10 232 -10 220 21 c 1,15,16
 192 -10 192 -10 143 -10 c 0,17,18
 41 -10 41 -10 41 86 c 2,19,-1
 41 565 l 2,20,21
 41 586 41 586 32.5 594.5 c 128,-1,22
 24 603 24 603 3 603 c 1,23,24
 3 660 3 660 67 660 c 0,25,26
 120 660 120 660 120 591 c 2,27,-1
 120 92 l 2,28,29
 120 56 120 56 156.5 56 c 128,-1,30
 193 56 193 56 213 91 c 1,31,-1
 213 568 l 2,0,1
68 758 m 128,-1,33
 68 815 68 815 111 815 c 128,-1,34
 154 815 154 815 154 758 c 128,-1,35
 154 701 154 701 111 701 c 128,-1,32
 68 701 68 701 68 758 c 128,-1,33
181 758 m 128,-1,37
 181 815 181 815 224 815 c 128,-1,38
 267 815 267 815 267 758 c 128,-1,39
 267 701 267 701 224 701 c 128,-1,36
 181 701 181 701 181 758 c 128,-1,37
EndSplineSet
EndChar

StartChar: Yacute
Encoding: 221 221 159
Width: 330
GlyphClass: 2
Flags: W
LayerCount: 2
Fore
SplineSet
215 568 m 2,0,1
 215 617 215 617 208 650 c 1,2,3
 242 654 242 654 277 654 c 0,4,5
 294 654 294 654 294 639 c 2,6,-1
 294 96 l 2,7,8
 294 46 294 46 260 18 c 128,-1,9
 226 -10 226 -10 168.5 -10 c 128,-1,10
 111 -10 111 -10 77 15.5 c 128,-1,11
 43 41 43 41 43 82 c 2,12,-1
 43 150 l 2,13,14
 43 168 43 168 69 175 c 0,15,16
 83 179 83 179 97 179 c 128,-1,17
 111 179 111 179 125 176 c 1,18,19
 122 152 122 152 122 125 c 2,20,-1
 122 96 l 2,21,22
 122 77 122 77 135 66.5 c 128,-1,23
 148 56 148 56 169 56 c 128,-1,24
 190 56 190 56 202.5 66.5 c 128,-1,25
 215 77 215 77 215 96 c 2,26,-1
 215 252 l 1,27,28
 189 226 189 226 145 226 c 0,29,30
 43 226 43 226 43 322 c 2,31,-1
 43 565 l 2,32,33
 43 586 43 586 34.5 594.5 c 128,-1,34
 26 603 26 603 5 603 c 1,35,36
 5 660 5 660 69 660 c 0,37,38
 122 660 122 660 122 591 c 2,39,-1
 122 328 l 2,40,41
 122 292 122 292 158.5 292 c 128,-1,42
 195 292 195 292 215 327 c 1,43,-1
 215 568 l 2,0,1
180 846 m 1,44,45
 251 824 251 824 251 811 c 0,46,47
 251 808 251 808 248 803 c 2,48,-1
 190 718 l 1,49,-1
 172 688 l 1,50,51
 131 703 131 703 131 714 c 0,52,53
 131 717 131 717 133 720 c 2,54,-1
 167 802 l 1,55,-1
 180 846 l 1,44,45
EndSplineSet
EndChar

StartChar: Thorn
Encoding: 222 222 160
Width: 319
GlyphClass: 2
Flags: W
LayerCount: 2
Fore
SplineSet
176 418 m 0,0,1
 149 418 149 418 122 391 c 1,2,-1
 122 196 l 1,3,-1
 168 196 l 2,4,5
 189 196 189 196 202 206.5 c 128,-1,6
 215 217 215 217 215 236 c 2,7,-1
 215 380 l 2,8,9
 215 418 215 418 176 418 c 0,0,1
122 594 m 2,10,-1
 122 457 l 1,11,12
 154 484 154 484 195 484 c 0,13,14
 294 484 294 484 294 386 c 2,15,-1
 294 236 l 2,16,17
 294 186 294 186 259.5 158 c 128,-1,18
 225 130 225 130 166 130 c 2,19,-1
 122 130 l 1,20,-1
 122 94 l 1,21,-1
 126 0 l 1,22,23
 92 -5 92 -5 59 -5 c 0,24,25
 43 -5 43 -5 43 12 c 2,26,-1
 43 562 l 2,27,28
 43 584 43 584 34.5 593 c 128,-1,29
 26 602 26 602 5 602 c 1,30,31
 4 628 4 628 19.5 643.5 c 128,-1,32
 35 659 35 659 66 659 c 128,-1,33
 97 659 97 659 109.5 642 c 128,-1,34
 122 625 122 625 122 594 c 2,10,-1
EndSplineSet
EndChar

StartChar: germandbls
Encoding: 223 223 161
Width: 392
GlyphClass: 2
Flags: W
LayerCount: 2
Fore
SplineSet
124 -27 m 2,0,1
 124 -65 124 -65 131 -107 c 1,2,3
 101 -113 101 -113 66 -113 c 0,4,5
 49 -113 49 -113 49 -98 c 2,6,-1
 49 410 l 1,7,-1
 18 405 l 1,8,9
 11 431 11 431 11 450.5 c 128,-1,10
 11 470 11 470 24 470 c 2,11,-1
 49 470 l 1,12,-1
 49 601 l 2,13,14
 49 645 49 645 85 672.5 c 128,-1,15
 121 700 121 700 181 700 c 128,-1,16
 241 700 241 700 280.5 677 c 128,-1,17
 320 654 320 654 320 615 c 2,18,-1
 320 521 l 2,19,20
 320 496 320 496 286.5 445 c 128,-1,21
 253 394 253 394 253 368 c 2,22,-1
 253 357 l 2,23,24
 253 326 253 326 281 310 c 2,25,-1
 332 280 l 2,26,27
 375 255 375 255 375 198 c 2,28,-1
 375 93 l 2,29,30
 375 45 375 45 346.5 17.5 c 128,-1,31
 318 -10 318 -10 267 -10 c 2,32,-1
 216 -10 l 1,33,-1
 168 -15 l 1,34,35
 161 13 161 13 161 33.5 c 128,-1,36
 161 54 161 54 175 54 c 2,37,-1
 259 54 l 2,38,39
 300 54 300 54 300 103 c 2,40,-1
 300 174 l 2,41,42
 300 211 300 211 274 227 c 2,43,-1
 223 259 l 1,44,45
 178 286 178 286 178 340 c 2,46,-1
 178 375 l 2,47,48
 178 402 178 402 212.5 454.5 c 128,-1,49
 247 507 247 507 247 544 c 2,50,-1
 247 593 l 2,51,52
 247 636 247 636 185.5 636 c 128,-1,53
 124 636 124 636 124 591 c 2,54,-1
 124 -27 l 2,0,1
EndSplineSet
EndChar

StartChar: agrave
Encoding: 224 224 162
Width: 296
GlyphClass: 2
Flags: W
LayerCount: 2
Fore
SplineSet
133 183 m 2,0,1
 100 161 100 161 100 109.5 c 128,-1,2
 100 58 100 58 131.5 58 c 128,-1,3
 163 58 163 58 181 94 c 1,4,-1
 181 215 l 1,5,-1
 133 183 l 2,0,1
144 500 m 0,6,7
 256 500 256 500 256 401 c 2,8,-1
 256 83 l 2,9,10
 256 62 256 62 263.5 53 c 128,-1,11
 271 44 271 44 292 44 c 1,12,13
 293 18 293 18 278.5 4 c 128,-1,14
 264 -10 264 -10 237 -10 c 0,15,16
 195 -10 195 -10 186 21 c 1,17,18
 155 -10 155 -10 113 -10 c 128,-1,19
 71 -10 71 -10 46 22 c 128,-1,20
 21 54 21 54 21 108 c 0,21,22
 21 190 21 190 90 232 c 2,23,-1
 181 286 l 1,24,-1
 181 394 l 2,25,26
 181 436 181 436 141.5 436 c 128,-1,27
 102 436 102 436 102 389 c 2,28,-1
 102 356 l 1,29,-1
 105 309 l 1,30,31
 92 306 92 306 78.5 306 c 128,-1,32
 65 306 65 306 53 310 c 0,33,34
 29 316 29 316 29 333 c 2,35,-1
 29 415 l 2,36,37
 29 455 29 455 60.5 477.5 c 128,-1,38
 92 500 92 500 144 500 c 0,6,7
180 560 m 2,39,40
 182 557 182 557 182 553 c 128,-1,41
 182 549 182 549 177 546 c 2,42,-1
 141 528 l 1,43,44
 134 541 134 541 123 558 c 2,45,-1
 65 643 l 2,46,47
 62 648 62 648 62 652 c 0,48,49
 62 659 62 659 87.5 669.5 c 128,-1,50
 113 680 113 680 123 683 c 2,51,-1
 133 686 l 1,52,53
 137 663 137 663 146 642 c 2,54,-1
 180 560 l 2,39,40
EndSplineSet
EndChar

StartChar: aacute
Encoding: 225 225 163
Width: 296
GlyphClass: 2
Flags: W
LayerCount: 2
Fore
SplineSet
181 94 m 1,0,-1
 181 215 l 1,1,-1
 133 183 l 2,2,3
 100 161 100 161 100 109.5 c 128,-1,4
 100 58 100 58 131.5 58 c 128,-1,5
 163 58 163 58 181 94 c 1,0,-1
144 500 m 0,6,7
 256 500 256 500 256 401 c 2,8,-1
 256 83 l 2,9,10
 256 62 256 62 263.5 53 c 128,-1,11
 271 44 271 44 292 44 c 1,12,13
 293 18 293 18 278.5 4 c 128,-1,14
 264 -10 264 -10 237 -10 c 0,15,16
 195 -10 195 -10 186 21 c 1,17,18
 155 -10 155 -10 113 -10 c 128,-1,19
 71 -10 71 -10 46 22 c 128,-1,20
 21 54 21 54 21 108 c 0,21,22
 21 190 21 190 90 232 c 2,23,-1
 181 286 l 1,24,-1
 181 394 l 2,25,26
 181 436 181 436 141.5 436 c 128,-1,27
 102 436 102 436 102 389 c 2,28,-1
 102 356 l 2,29,30
 102 331 102 331 105 309 c 1,31,32
 92 306 92 306 78.5 306 c 128,-1,33
 65 306 65 306 53 310 c 0,34,35
 29 316 29 316 29 333 c 2,36,-1
 29 415 l 2,37,38
 29 455 29 455 60.5 477.5 c 128,-1,39
 92 500 92 500 144 500 c 0,6,7
164 686 m 1,40,41
 235 664 235 664 235 651 c 0,42,43
 235 648 235 648 232 643 c 2,44,-1
 174 558 l 1,45,-1
 156 528 l 1,46,47
 115 543 115 543 115 554 c 0,48,49
 115 557 115 557 117 560 c 2,50,-1
 151 642 l 1,51,-1
 164 686 l 1,40,41
EndSplineSet
EndChar

StartChar: acircumflex
Encoding: 226 226 164
Width: 296
GlyphClass: 2
Flags: W
LayerCount: 2
Fore
SplineSet
181 94 m 1,0,-1
 181 215 l 1,1,-1
 133 183 l 2,2,3
 100 161 100 161 100 109.5 c 128,-1,4
 100 58 100 58 131.5 58 c 128,-1,5
 163 58 163 58 181 94 c 1,0,-1
144 500 m 0,6,7
 256 500 256 500 256 401 c 2,8,-1
 256 83 l 2,9,10
 256 62 256 62 263.5 53 c 128,-1,11
 271 44 271 44 292 44 c 1,12,13
 293 18 293 18 278.5 4 c 128,-1,14
 264 -10 264 -10 237 -10 c 0,15,16
 195 -10 195 -10 186 21 c 1,17,18
 155 -10 155 -10 113 -10 c 128,-1,19
 71 -10 71 -10 46 22 c 128,-1,20
 21 54 21 54 21 108 c 0,21,22
 21 190 21 190 90 232 c 2,23,-1
 181 286 l 1,24,-1
 181 394 l 2,25,26
 181 436 181 436 141.5 436 c 128,-1,27
 102 436 102 436 102 389 c 2,28,-1
 102 356 l 2,29,30
 102 331 102 331 105 309 c 1,31,32
 92 306 92 306 78.5 306 c 128,-1,33
 65 306 65 306 53 310 c 0,34,35
 29 316 29 316 29 333 c 2,36,-1
 29 415 l 2,37,38
 29 455 29 455 60.5 477.5 c 128,-1,39
 92 500 92 500 144 500 c 0,6,7
86 528 m 1,40,41
 44 543 44 543 44 554 c 0,42,43
 44 557 44 557 46 560 c 2,44,-1
 90 642 l 1,45,-1
 105 676 l 1,46,47
 115 684 115 684 142 684 c 128,-1,48
 169 684 169 684 183 677 c 1,49,50
 188 662 188 662 199 642 c 2,51,-1
 243 560 l 2,52,53
 245 557 245 557 245 553 c 128,-1,54
 245 549 245 549 240 546 c 2,55,-1
 203 528 l 1,56,57
 198 541 198 541 186 558 c 2,58,-1
 144 618 l 1,59,-1
 103 558 l 1,60,-1
 86 528 l 1,40,41
EndSplineSet
EndChar

StartChar: atilde
Encoding: 227 227 165
Width: 296
GlyphClass: 2
Flags: W
LayerCount: 2
Fore
SplineSet
133 183 m 2,0,1
 100 161 100 161 100 109.5 c 128,-1,2
 100 58 100 58 131.5 58 c 128,-1,3
 163 58 163 58 181 94 c 1,4,-1
 181 215 l 1,5,-1
 133 183 l 2,0,1
144 500 m 0,6,7
 256 500 256 500 256 401 c 2,8,-1
 256 83 l 2,9,10
 256 62 256 62 263.5 53 c 128,-1,11
 271 44 271 44 292 44 c 1,12,13
 293 18 293 18 278.5 4 c 128,-1,14
 264 -10 264 -10 237 -10 c 0,15,16
 195 -10 195 -10 186 21 c 1,17,18
 155 -10 155 -10 113 -10 c 128,-1,19
 71 -10 71 -10 46 22 c 128,-1,20
 21 54 21 54 21 108 c 0,21,22
 21 190 21 190 90 232 c 2,23,-1
 181 286 l 1,24,-1
 181 394 l 2,25,26
 181 436 181 436 141.5 436 c 128,-1,27
 102 436 102 436 102 389 c 2,28,-1
 102 356 l 1,29,-1
 105 309 l 1,30,31
 92 306 92 306 78.5 306 c 128,-1,32
 65 306 65 306 53 310 c 0,33,34
 29 316 29 316 29 333 c 2,35,-1
 29 415 l 2,36,37
 29 455 29 455 60.5 477.5 c 128,-1,38
 92 500 92 500 144 500 c 0,6,7
68 552 m 1,39,40
 30 556 30 556 30 591 c 0,41,42
 30 595 30 595 31 600 c 0,43,44
 36 637 36 637 78 637 c 0,45,46
 84 637 84 637 91 636 c 2,47,-1
 182 623 l 1,48,49
 197 622 197 622 203.5 627 c 128,-1,50
 210 632 210 632 213 648 c 1,51,52
 232 647 232 647 241 635 c 128,-1,53
 250 623 250 623 250 613 c 0,54,55
 250 563 250 563 202 563 c 0,56,57
 196 563 196 563 189 564 c 2,58,-1
 99 578 l 1,59,60
 84 578 84 578 77.5 572.5 c 128,-1,61
 71 567 71 567 68 552 c 1,39,40
EndSplineSet
EndChar

StartChar: adieresis
Encoding: 228 228 166
Width: 296
GlyphClass: 2
Flags: W
LayerCount: 2
Fore
SplineSet
133 183 m 2,0,1
 100 161 100 161 100 109.5 c 128,-1,2
 100 58 100 58 131.5 58 c 128,-1,3
 163 58 163 58 181 94 c 1,4,-1
 181 215 l 1,5,-1
 133 183 l 2,0,1
144 500 m 0,6,7
 256 500 256 500 256 401 c 2,8,-1
 256 83 l 2,9,10
 256 62 256 62 263.5 53 c 128,-1,11
 271 44 271 44 292 44 c 1,12,13
 293 18 293 18 278.5 4 c 128,-1,14
 264 -10 264 -10 237 -10 c 0,15,16
 195 -10 195 -10 186 21 c 1,17,18
 155 -10 155 -10 113 -10 c 128,-1,19
 71 -10 71 -10 46 22 c 128,-1,20
 21 54 21 54 21 108 c 0,21,22
 21 190 21 190 90 232 c 2,23,-1
 181 286 l 1,24,-1
 181 394 l 2,25,26
 181 436 181 436 141.5 436 c 128,-1,27
 102 436 102 436 102 389 c 2,28,-1
 102 356 l 1,29,-1
 105 309 l 1,30,31
 92 306 92 306 78.5 306 c 128,-1,32
 65 306 65 306 53 310 c 0,33,34
 29 316 29 316 29 333 c 2,35,-1
 29 415 l 2,36,37
 29 455 29 455 60.5 477.5 c 128,-1,38
 92 500 92 500 144 500 c 0,6,7
42 598 m 128,-1,40
 42 655 42 655 85 655 c 128,-1,41
 128 655 128 655 128 598 c 128,-1,42
 128 541 128 541 85 541 c 128,-1,39
 42 541 42 541 42 598 c 128,-1,40
155 598 m 128,-1,44
 155 655 155 655 198 655 c 128,-1,45
 241 655 241 655 241 598 c 128,-1,46
 241 541 241 541 198 541 c 128,-1,43
 155 541 155 541 155 598 c 128,-1,44
EndSplineSet
EndChar

StartChar: aring
Encoding: 229 229 167
Width: 296
GlyphClass: 2
Flags: W
LayerCount: 2
Fore
SplineSet
181 94 m 1,0,-1
 181 215 l 1,1,-1
 133 183 l 2,2,3
 100 161 100 161 100 109.5 c 128,-1,4
 100 58 100 58 131.5 58 c 128,-1,5
 163 58 163 58 181 94 c 1,0,-1
144 500 m 0,6,7
 256 500 256 500 256 401 c 2,8,-1
 256 83 l 2,9,10
 256 62 256 62 263.5 53 c 128,-1,11
 271 44 271 44 292 44 c 1,12,13
 293 18 293 18 278.5 4 c 128,-1,14
 264 -10 264 -10 237 -10 c 0,15,16
 195 -10 195 -10 186 21 c 1,17,18
 155 -10 155 -10 113 -10 c 128,-1,19
 71 -10 71 -10 46 22 c 128,-1,20
 21 54 21 54 21 108 c 0,21,22
 21 190 21 190 90 232 c 2,23,-1
 181 286 l 1,24,-1
 181 394 l 2,25,26
 181 436 181 436 141.5 436 c 128,-1,27
 102 436 102 436 102 389 c 2,28,-1
 102 356 l 2,29,30
 102 331 102 331 105 309 c 1,31,32
 92 306 92 306 78.5 306 c 128,-1,33
 65 306 65 306 53 310 c 0,34,35
 29 316 29 316 29 333 c 2,36,-1
 29 415 l 2,37,38
 29 455 29 455 60.5 477.5 c 128,-1,39
 92 500 92 500 144 500 c 0,6,7
58 614 m 2,40,-1
 58 648 l 2,41,42
 58 707 58 707 141 707 c 128,-1,43
 224 707 224 707 224 650 c 2,44,-1
 224 616 l 2,45,46
 224 557 224 557 141 557 c 128,-1,47
 58 557 58 557 58 614 c 2,40,-1
104 646 m 2,48,-1
 104 618 l 2,49,50
 104 594 104 594 141 594 c 128,-1,51
 178 594 178 594 178 618 c 2,52,-1
 178 646 l 2,53,54
 178 670 178 670 141 670 c 128,-1,55
 104 670 104 670 104 646 c 2,48,-1
EndSplineSet
EndChar

StartChar: ae
Encoding: 230 230 168
Width: 435
GlyphClass: 2
Flags: W
LayerCount: 2
Fore
SplineSet
60.5 477.5 m 128,-1,1
 92 500 92 500 142.5 500 c 128,-1,2
 193 500 193 500 218 475 c 1,3,4
 243 500 243 500 297 500 c 0,5,6
 412 500 412 500 412 390 c 0,7,8
 412 332 412 332 396 299 c 128,-1,9
 380 266 380 266 343 251 c 2,10,-1
 256 217 l 1,11,-1
 256 91 l 2,12,13
 256 54 256 54 295.5 54 c 128,-1,14
 335 54 335 54 335 101 c 2,15,-1
 335 124 l 1,16,-1
 332 171 l 1,17,18
 345 174 345 174 358.5 174 c 128,-1,19
 372 174 372 174 384 170 c 0,20,21
 408 164 408 164 408 147 c 2,22,-1
 408 75 l 2,23,24
 408 35 408 35 376.5 12.5 c 128,-1,25
 345 -10 345 -10 287 -10 c 128,-1,26
 229 -10 229 -10 201 26 c 1,27,28
 172 -10 172 -10 124 -10 c 128,-1,29
 76 -10 76 -10 48.5 22 c 128,-1,30
 21 54 21 54 21 108 c 0,31,32
 21 202 21 202 93 228 c 2,33,-1
 181 260 l 1,34,-1
 181 400 l 2,35,36
 181 436 181 436 141.5 436 c 128,-1,37
 102 436 102 436 102 389 c 2,38,-1
 102 356 l 1,39,-1
 105 309 l 1,40,41
 92 306 92 306 78.5 306 c 128,-1,42
 65 306 65 306 53 310 c 0,43,44
 29 316 29 316 29 333 c 2,45,-1
 29 415 l 2,46,0
 29 455 29 455 60.5 477.5 c 128,-1,1
335 393 m 0,47,48
 335 413 335 413 323 424.5 c 128,-1,49
 311 436 311 436 293 436 c 0,50,51
 256 436 256 436 256 403 c 2,52,-1
 256 284 l 1,53,-1
 304 304 l 2,54,55
 335 316 335 316 335 393 c 0,47,48
100 114 m 0,56,57
 100 88 100 88 110.5 73 c 128,-1,58
 121 58 121 58 137 58 c 0,59,60
 163 58 163 58 181 94 c 1,61,-1
 181 194 l 1,62,-1
 133 175 l 2,63,64
 100 162 100 162 100 114 c 0,56,57
EndSplineSet
EndChar

StartChar: ccedilla
Encoding: 231 231 169
Width: 280
GlyphClass: 2
Flags: W
LayerCount: 2
Fore
SplineSet
224 101 m 1,0,1
 264 83 264 83 264 49 c 0,2,3
 264 38 264 38 255 31 c 1,4,5
 228 3 228 3 184 -6 c 1,6,-1
 184 -29 l 1,7,-1
 198 -29 l 2,8,9
 265 -29 265 -29 265 -91 c 0,10,11
 265 -123 265 -123 250 -137.5 c 128,-1,12
 235 -152 235 -152 202 -152 c 2,13,-1
 156 -152 l 1,14,-1
 123 -155 l 1,15,16
 119 -138 119 -138 119 -125.5 c 128,-1,17
 119 -113 119 -113 128 -113 c 2,18,-1
 195 -113 l 2,19,20
 216 -113 216 -113 216 -91 c 128,-1,21
 216 -69 216 -69 195 -69 c 2,22,-1
 132 -69 l 1,23,-1
 132 -10 l 1,24,25
 32 -9 32 -9 32 102 c 2,26,-1
 32 402 l 2,27,28
 32 500 32 500 148 500 c 0,29,30
 199 500 199 500 228 477 c 128,-1,31
 257 454 257 454 257 415 c 2,32,-1
 257 333 l 2,33,34
 257 316 257 316 233 310 c 0,35,36
 221 306 221 306 207.5 306 c 128,-1,37
 194 306 194 306 181 309 c 1,38,39
 184 331 184 331 184 356 c 2,40,-1
 184 389 l 2,41,42
 184 414 184 414 175 425 c 128,-1,43
 166 436 166 436 144 436 c 0,44,45
 107 436 107 436 107 405 c 2,46,-1
 107 114 l 2,47,48
 107 83 107 83 117 69 c 128,-1,49
 127 55 127 55 150.5 55 c 128,-1,50
 174 55 174 55 196 70 c 128,-1,51
 218 85 218 85 224 101 c 1,0,1
EndSplineSet
EndChar

StartChar: egrave
Encoding: 232 232 170
Width: 285
GlyphClass: 2
Flags: W
LayerCount: 2
Fore
SplineSet
186 393 m 0,0,1
 186 413 186 413 174 424.5 c 128,-1,2
 162 436 162 436 144 436 c 0,3,4
 107 436 107 436 107 405 c 2,5,-1
 107 262 l 1,6,-1
 155 298 l 2,7,8
 186 321 186 321 186 393 c 0,0,1
32 89 m 2,9,-1
 32 402 l 2,10,11
 32 500 32 500 147.5 500 c 128,-1,12
 263 500 263 500 263 390 c 0,13,14
 263 346 263 346 247 309 c 128,-1,15
 231 272 231 272 203 253 c 2,16,-1
 107 187 l 1,17,-1
 107 96 l 2,18,19
 107 54 107 54 146.5 54 c 128,-1,20
 186 54 186 54 186 101 c 2,21,-1
 186 124 l 1,22,-1
 183 171 l 1,23,24
 196 174 196 174 209.5 174 c 128,-1,25
 223 174 223 174 235 170 c 0,26,27
 259 164 259 164 259 147 c 2,28,-1
 259 75 l 2,29,30
 259 35 259 35 227.5 12.5 c 128,-1,31
 196 -10 196 -10 144 -10 c 0,32,33
 32 -10 32 -10 32 89 c 2,9,-1
174 560 m 2,34,35
 176 557 176 557 176 553 c 128,-1,36
 176 549 176 549 171 546 c 2,37,-1
 135 528 l 1,38,39
 128 541 128 541 117 558 c 2,40,-1
 59 643 l 2,41,42
 56 648 56 648 56 652 c 0,43,44
 56 659 56 659 81.5 669.5 c 128,-1,45
 107 680 107 680 117 683 c 2,46,-1
 127 686 l 1,47,48
 131 663 131 663 140 642 c 2,49,-1
 174 560 l 2,34,35
EndSplineSet
EndChar

StartChar: eacute
Encoding: 233 233 171
Width: 285
GlyphClass: 2
Flags: W
LayerCount: 2
Fore
SplineSet
107 405 m 2,0,-1
 107 262 l 1,1,-1
 155 298 l 2,2,3
 186 321 186 321 186 393 c 0,4,5
 186 413 186 413 174 424.5 c 128,-1,6
 162 436 162 436 144 436 c 0,7,8
 107 436 107 436 107 405 c 2,0,-1
32 402 m 2,9,10
 32 500 32 500 147.5 500 c 128,-1,11
 263 500 263 500 263 390 c 0,12,13
 263 346 263 346 247 309 c 128,-1,14
 231 272 231 272 203 253 c 2,15,-1
 107 187 l 1,16,-1
 107 96 l 2,17,18
 107 54 107 54 146.5 54 c 128,-1,19
 186 54 186 54 186 101 c 2,20,-1
 186 124 l 2,21,22
 186 149 186 149 183 171 c 1,23,24
 196 174 196 174 209.5 174 c 128,-1,25
 223 174 223 174 235 170 c 0,26,27
 259 164 259 164 259 147 c 2,28,-1
 259 75 l 2,29,30
 259 35 259 35 227.5 12.5 c 128,-1,31
 196 -10 196 -10 144 -10 c 0,32,33
 32 -10 32 -10 32 89 c 2,34,-1
 32 402 l 2,9,10
160 686 m 1,35,36
 231 664 231 664 231 651 c 0,37,38
 231 648 231 648 228 643 c 2,39,-1
 170 558 l 1,40,-1
 152 528 l 1,41,42
 111 543 111 543 111 554 c 0,43,44
 111 557 111 557 113 560 c 2,45,-1
 147 642 l 1,46,-1
 160 686 l 1,35,36
EndSplineSet
EndChar

StartChar: ecircumflex
Encoding: 234 234 172
Width: 285
GlyphClass: 2
Flags: W
LayerCount: 2
Fore
SplineSet
107 405 m 2,0,-1
 107 262 l 1,1,-1
 155 298 l 2,2,3
 186 321 186 321 186 393 c 0,4,5
 186 413 186 413 174 424.5 c 128,-1,6
 162 436 162 436 144 436 c 0,7,8
 107 436 107 436 107 405 c 2,0,-1
32 402 m 2,9,10
 32 500 32 500 147.5 500 c 128,-1,11
 263 500 263 500 263 390 c 0,12,13
 263 346 263 346 247 309 c 128,-1,14
 231 272 231 272 203 253 c 2,15,-1
 107 187 l 1,16,-1
 107 96 l 2,17,18
 107 54 107 54 146.5 54 c 128,-1,19
 186 54 186 54 186 101 c 2,20,-1
 186 124 l 2,21,22
 186 149 186 149 183 171 c 1,23,24
 196 174 196 174 209.5 174 c 128,-1,25
 223 174 223 174 235 170 c 0,26,27
 259 164 259 164 259 147 c 2,28,-1
 259 75 l 2,29,30
 259 35 259 35 227.5 12.5 c 128,-1,31
 196 -10 196 -10 144 -10 c 0,32,33
 32 -10 32 -10 32 89 c 2,34,-1
 32 402 l 2,9,10
88 528 m 1,35,36
 46 543 46 543 46 554 c 0,37,38
 46 557 46 557 48 560 c 2,39,-1
 92 642 l 1,40,-1
 107 676 l 1,41,42
 117 684 117 684 144 684 c 128,-1,43
 171 684 171 684 185 677 c 1,44,45
 190 662 190 662 201 642 c 2,46,-1
 245 560 l 2,47,48
 247 557 247 557 247 553 c 128,-1,49
 247 549 247 549 242 546 c 2,50,-1
 205 528 l 1,51,52
 200 541 200 541 188 558 c 2,53,-1
 146 618 l 1,54,-1
 105 558 l 1,55,-1
 88 528 l 1,35,36
EndSplineSet
EndChar

StartChar: edieresis
Encoding: 235 235 173
Width: 285
GlyphClass: 2
Flags: W
LayerCount: 2
Fore
SplineSet
186 393 m 0,0,1
 186 413 186 413 174 424.5 c 128,-1,2
 162 436 162 436 144 436 c 0,3,4
 107 436 107 436 107 405 c 2,5,-1
 107 262 l 1,6,-1
 155 298 l 2,7,8
 186 321 186 321 186 393 c 0,0,1
32 89 m 2,9,-1
 32 402 l 2,10,11
 32 500 32 500 147.5 500 c 128,-1,12
 263 500 263 500 263 390 c 0,13,14
 263 346 263 346 247 309 c 128,-1,15
 231 272 231 272 203 253 c 2,16,-1
 107 187 l 1,17,-1
 107 96 l 2,18,19
 107 54 107 54 146.5 54 c 128,-1,20
 186 54 186 54 186 101 c 2,21,-1
 186 124 l 1,22,-1
 183 171 l 1,23,24
 196 174 196 174 209.5 174 c 128,-1,25
 223 174 223 174 235 170 c 0,26,27
 259 164 259 164 259 147 c 2,28,-1
 259 75 l 2,29,30
 259 35 259 35 227.5 12.5 c 128,-1,31
 196 -10 196 -10 144 -10 c 0,32,33
 32 -10 32 -10 32 89 c 2,9,-1
45 598 m 128,-1,35
 45 655 45 655 88 655 c 128,-1,36
 131 655 131 655 131 598 c 128,-1,37
 131 541 131 541 88 541 c 128,-1,34
 45 541 45 541 45 598 c 128,-1,35
158 598 m 128,-1,39
 158 655 158 655 201 655 c 128,-1,40
 244 655 244 655 244 598 c 128,-1,41
 244 541 244 541 201 541 c 128,-1,38
 158 541 158 541 158 598 c 128,-1,39
EndSplineSet
EndChar

StartChar: igrave
Encoding: 236 236 174
Width: 163
GlyphClass: 2
Flags: W
LayerCount: 2
Fore
SplineSet
18 490 m 2,0,-1
 118 490 l 1,1,-1
 118 83 l 2,2,3
 118 62 118 62 125.5 53 c 128,-1,4
 133 44 133 44 154 44 c 1,5,6
 155 18 155 18 140.5 4 c 128,-1,7
 126 -10 126 -10 98 -10 c 128,-1,8
 70 -10 70 -10 56.5 7 c 128,-1,9
 43 24 43 24 43 63 c 2,10,-1
 43 430 l 1,11,-1
 12 425 l 1,12,13
 5 451 5 451 5 470.5 c 128,-1,14
 5 490 5 490 18 490 c 2,0,-1
114 560 m 2,15,16
 116 557 116 557 116 553 c 128,-1,17
 116 549 116 549 111 546 c 2,18,-1
 75 528 l 1,19,20
 68 541 68 541 57 558 c 2,21,-1
 -1 643 l 2,22,23
 -4 648 -4 648 -4 652 c 0,24,25
 -4 659 -4 659 21.5 669.5 c 128,-1,26
 47 680 47 680 57 683 c 2,27,-1
 67 686 l 1,28,29
 71 663 71 663 80 642 c 2,30,-1
 114 560 l 2,15,16
EndSplineSet
EndChar

StartChar: iacute
Encoding: 237 237 175
Width: 163
GlyphClass: 2
Flags: W
LayerCount: 2
Fore
SplineSet
119 490 m 1,0,-1
 119 83 l 2,1,2
 119 62 119 62 126.5 53 c 128,-1,3
 134 44 134 44 155 44 c 1,4,5
 156 18 156 18 141.5 4 c 128,-1,6
 127 -10 127 -10 99 -10 c 128,-1,7
 71 -10 71 -10 57.5 7 c 128,-1,8
 44 24 44 24 44 63 c 2,9,-1
 44 430 l 1,10,11
 29 430 29 430 13 425 c 1,12,-1
 6 475 l 1,13,14
 6 490 6 490 19 490 c 2,15,-1
 119 490 l 1,0,-1
83 686 m 1,16,17
 154 664 154 664 154 651 c 0,18,19
 154 648 154 648 151 643 c 2,20,-1
 93 558 l 1,21,-1
 75 528 l 1,22,23
 34 543 34 543 34 554 c 0,24,25
 34 557 34 557 36 560 c 2,26,-1
 70 642 l 1,27,-1
 83 686 l 1,16,17
EndSplineSet
EndChar

StartChar: icircumflex
Encoding: 238 238 176
Width: 163
GlyphClass: 2
Flags: W
LayerCount: 2
Fore
SplineSet
119 490 m 1,0,-1
 119 83 l 2,1,2
 119 62 119 62 126.5 53 c 128,-1,3
 134 44 134 44 155 44 c 1,4,5
 156 18 156 18 141.5 4 c 128,-1,6
 127 -10 127 -10 99 -10 c 128,-1,7
 71 -10 71 -10 57.5 7 c 128,-1,8
 44 24 44 24 44 63 c 2,9,-1
 44 430 l 1,10,11
 29 430 29 430 13 425 c 1,12,-1
 6 475 l 1,13,14
 6 490 6 490 19 490 c 2,15,-1
 119 490 l 1,0,-1
23 528 m 1,16,17
 -19 543 -19 543 -19 554 c 0,18,19
 -19 557 -19 557 -17 560 c 2,20,-1
 27 642 l 1,21,-1
 42 676 l 1,22,23
 52 684 52 684 79 684 c 128,-1,24
 106 684 106 684 120 677 c 1,25,26
 125 662 125 662 136 642 c 2,27,-1
 180 560 l 2,28,29
 182 557 182 557 182 553 c 128,-1,30
 182 549 182 549 177 546 c 2,31,-1
 140 528 l 1,32,33
 135 541 135 541 123 558 c 2,34,-1
 81 618 l 1,35,-1
 40 558 l 1,36,-1
 23 528 l 1,16,17
EndSplineSet
EndChar

StartChar: idieresis
Encoding: 239 239 177
Width: 163
GlyphClass: 2
Flags: W
LayerCount: 2
Fore
SplineSet
19 490 m 2,0,-1
 119 490 l 1,1,-1
 119 83 l 2,2,3
 119 62 119 62 126.5 53 c 128,-1,4
 134 44 134 44 155 44 c 1,5,6
 156 18 156 18 141.5 4 c 128,-1,7
 127 -10 127 -10 99 -10 c 128,-1,8
 71 -10 71 -10 57.5 7 c 128,-1,9
 44 24 44 24 44 63 c 2,10,-1
 44 430 l 1,11,-1
 13 425 l 1,12,13
 6 451 6 451 6 470.5 c 128,-1,14
 6 490 6 490 19 490 c 2,0,-1
-17 658 m 128,-1,16
 -17 715 -17 715 26 715 c 128,-1,17
 69 715 69 715 69 658 c 128,-1,18
 69 601 69 601 26 601 c 128,-1,15
 -17 601 -17 601 -17 658 c 128,-1,16
90 658 m 128,-1,20
 90 715 90 715 133 715 c 128,-1,21
 176 715 176 715 176 658 c 128,-1,22
 176 601 176 601 133 601 c 128,-1,19
 90 601 90 601 90 658 c 128,-1,20
EndSplineSet
EndChar

StartChar: eth
Encoding: 240 240 178
Width: 294
GlyphClass: 2
Flags: W
LayerCount: 2
Fore
SplineSet
184 554 m 1,0,1
 155 532 155 532 143 518 c 1,2,3
 129 527 129 527 117.5 543 c 128,-1,4
 106 559 106 559 117 567 c 2,5,-1
 164 600 l 1,6,7
 154 605 154 605 140 605 c 128,-1,8
 126 605 126 605 109 600 c 1,9,-1
 95 649 l 1,10,11
 115 660 115 660 153.5 660 c 128,-1,12
 192 660 192 660 220 642 c 1,13,-1
 260 678 l 1,14,15
 273 668 273 668 282 655.5 c 128,-1,16
 291 643 291 643 291 638 c 128,-1,17
 291 633 291 633 284 628 c 2,18,-1
 252 606 l 1,19,20
 259 583 259 583 259 561 c 2,21,-1
 259 92 l 2,22,23
 259 42 259 42 229.5 16 c 128,-1,24
 200 -10 200 -10 147 -10 c 128,-1,25
 94 -10 94 -10 63 18 c 128,-1,26
 32 46 32 46 32 96 c 2,27,-1
 32 398 l 2,28,29
 32 500 32 500 118 500 c 0,30,31
 156 500 156 500 184 474 c 1,32,-1
 184 554 l 1,0,1
117.5 63 m 128,-1,34
 128 52 128 52 145 52 c 128,-1,35
 162 52 162 52 173 63.5 c 128,-1,36
 184 75 184 75 184 92 c 2,37,-1
 184 400 l 1,38,39
 167 431 167 431 136 431 c 0,40,41
 107 431 107 431 107 397 c 2,42,-1
 107 92 l 2,43,33
 107 74 107 74 117.5 63 c 128,-1,34
EndSplineSet
EndChar

StartChar: ntilde
Encoding: 241 241 179
Width: 312
GlyphClass: 2
Flags: W
LayerCount: 2
Fore
SplineSet
119 82 m 2,0,1
 119 33 119 33 126 0 c 1,2,3
 96 -4 96 -4 61 -4 c 0,4,5
 44 -4 44 -4 44 11 c 2,6,-1
 44 407 l 2,7,8
 44 428 44 428 36.5 437 c 128,-1,9
 29 446 29 446 8 446 c 1,10,11
 7 472 7 472 21.5 486 c 128,-1,12
 36 500 36 500 68 500 c 128,-1,13
 100 500 100 500 114 469 c 1,14,15
 147 500 147 500 185.5 500 c 128,-1,16
 224 500 224 500 247.5 475 c 128,-1,17
 271 450 271 450 271 404 c 2,18,-1
 271 83 l 2,19,20
 271 62 271 62 278.5 53 c 128,-1,21
 286 44 286 44 307 44 c 1,22,23
 308 18 308 18 293.5 4 c 128,-1,24
 279 -10 279 -10 251 -10 c 128,-1,25
 223 -10 223 -10 209.5 7 c 128,-1,26
 196 24 196 24 196 63 c 2,27,-1
 196 398 l 2,28,29
 196 431 196 431 162 431 c 0,30,31
 134 431 134 431 119 400 c 1,32,-1
 119 82 l 2,0,1
75 552 m 1,33,34
 37 556 37 556 37 591 c 0,35,36
 37 595 37 595 38 600 c 0,37,38
 43 637 43 637 85 637 c 0,39,40
 91 637 91 637 98 636 c 2,41,-1
 189 623 l 1,42,43
 204 622 204 622 210.5 627 c 128,-1,44
 217 632 217 632 220 648 c 1,45,46
 239 647 239 647 248 635 c 128,-1,47
 257 623 257 623 257 613 c 0,48,49
 257 563 257 563 209 563 c 0,50,51
 203 563 203 563 196 564 c 2,52,-1
 106 578 l 1,53,54
 91 578 91 578 84.5 572.5 c 128,-1,55
 78 567 78 567 75 552 c 1,33,34
EndSplineSet
EndChar

StartChar: ograve
Encoding: 242 242 180
Width: 291
GlyphClass: 2
Flags: W
LayerCount: 2
Fore
SplineSet
32 92 m 2,0,-1
 32 394 l 2,1,2
 32 444 32 444 63 472 c 128,-1,3
 94 500 94 500 147 500 c 128,-1,4
 200 500 200 500 229.5 474 c 128,-1,5
 259 448 259 448 259 398 c 2,6,-1
 259 96 l 2,7,8
 259 46 259 46 227.5 18 c 128,-1,9
 196 -10 196 -10 143 -10 c 128,-1,10
 90 -10 90 -10 61 16 c 128,-1,11
 32 42 32 42 32 92 c 2,0,-1
107 398 m 2,12,-1
 107 92 l 2,13,14
 107 75 107 75 118 63.5 c 128,-1,15
 129 52 129 52 145.5 52 c 128,-1,16
 162 52 162 52 173 63.5 c 128,-1,17
 184 75 184 75 184 92 c 2,18,-1
 184 398 l 2,19,20
 184 415 184 415 173 426.5 c 128,-1,21
 162 438 162 438 145.5 438 c 128,-1,22
 129 438 129 438 118 426.5 c 128,-1,23
 107 415 107 415 107 398 c 2,12,-1
186 560 m 2,24,25
 188 557 188 557 188 553 c 128,-1,26
 188 549 188 549 183 546 c 2,27,-1
 147 528 l 1,28,29
 140 541 140 541 129 558 c 2,30,-1
 71 643 l 2,31,32
 68 648 68 648 68 652 c 0,33,34
 68 659 68 659 93.5 669.5 c 128,-1,35
 119 680 119 680 129 683 c 2,36,-1
 139 686 l 1,37,38
 143 663 143 663 152 642 c 2,39,-1
 186 560 l 2,24,25
EndSplineSet
EndChar

StartChar: oacute
Encoding: 243 243 181
Width: 291
GlyphClass: 2
Flags: W
LayerCount: 2
Fore
SplineSet
32 92 m 2,0,-1
 32 394 l 2,1,2
 32 444 32 444 63 472 c 128,-1,3
 94 500 94 500 147 500 c 128,-1,4
 200 500 200 500 229.5 474 c 128,-1,5
 259 448 259 448 259 398 c 2,6,-1
 259 96 l 2,7,8
 259 46 259 46 227.5 18 c 128,-1,9
 196 -10 196 -10 143 -10 c 128,-1,10
 90 -10 90 -10 61 16 c 128,-1,11
 32 42 32 42 32 92 c 2,0,-1
107 398 m 2,12,-1
 107 92 l 2,13,14
 107 75 107 75 118 63.5 c 128,-1,15
 129 52 129 52 145.5 52 c 128,-1,16
 162 52 162 52 173 63.5 c 128,-1,17
 184 75 184 75 184 92 c 2,18,-1
 184 398 l 2,19,20
 184 415 184 415 173 426.5 c 128,-1,21
 162 438 162 438 145.5 438 c 128,-1,22
 129 438 129 438 118 426.5 c 128,-1,23
 107 415 107 415 107 398 c 2,12,-1
169 686 m 1,24,25
 240 664 240 664 240 651 c 0,26,27
 240 648 240 648 237 643 c 2,28,-1
 179 558 l 1,29,-1
 161 528 l 1,30,31
 120 543 120 543 120 554 c 0,32,33
 120 557 120 557 122 560 c 2,34,-1
 156 642 l 1,35,-1
 169 686 l 1,24,25
EndSplineSet
EndChar

StartChar: ocircumflex
Encoding: 244 244 182
Width: 291
GlyphClass: 2
Flags: W
LayerCount: 2
Fore
SplineSet
32 92 m 2,0,-1
 32 394 l 2,1,2
 32 444 32 444 63 472 c 128,-1,3
 94 500 94 500 147 500 c 128,-1,4
 200 500 200 500 229.5 474 c 128,-1,5
 259 448 259 448 259 398 c 2,6,-1
 259 96 l 2,7,8
 259 46 259 46 227.5 18 c 128,-1,9
 196 -10 196 -10 143 -10 c 128,-1,10
 90 -10 90 -10 61 16 c 128,-1,11
 32 42 32 42 32 92 c 2,0,-1
107 398 m 2,12,-1
 107 92 l 2,13,14
 107 75 107 75 118 63.5 c 128,-1,15
 129 52 129 52 145.5 52 c 128,-1,16
 162 52 162 52 173 63.5 c 128,-1,17
 184 75 184 75 184 92 c 2,18,-1
 184 398 l 2,19,20
 184 415 184 415 173 426.5 c 128,-1,21
 162 438 162 438 145.5 438 c 128,-1,22
 129 438 129 438 118 426.5 c 128,-1,23
 107 415 107 415 107 398 c 2,12,-1
87 528 m 1,24,25
 45 543 45 543 45 554 c 0,26,27
 45 557 45 557 47 560 c 2,28,-1
 91 642 l 1,29,-1
 106 676 l 1,30,31
 116 684 116 684 143 684 c 128,-1,32
 170 684 170 684 184 677 c 1,33,34
 189 662 189 662 200 642 c 2,35,-1
 244 560 l 2,36,37
 246 557 246 557 246 553 c 128,-1,38
 246 549 246 549 241 546 c 2,39,-1
 204 528 l 1,40,41
 199 541 199 541 187 558 c 2,42,-1
 145 618 l 1,43,-1
 104 558 l 1,44,-1
 87 528 l 1,24,25
EndSplineSet
EndChar

StartChar: otilde
Encoding: 245 245 183
Width: 291
GlyphClass: 2
Flags: W
LayerCount: 2
Fore
SplineSet
32 92 m 2,0,-1
 32 394 l 2,1,2
 32 444 32 444 63 472 c 128,-1,3
 94 500 94 500 147 500 c 128,-1,4
 200 500 200 500 229.5 474 c 128,-1,5
 259 448 259 448 259 398 c 2,6,-1
 259 96 l 2,7,8
 259 46 259 46 227.5 18 c 128,-1,9
 196 -10 196 -10 143 -10 c 128,-1,10
 90 -10 90 -10 61 16 c 128,-1,11
 32 42 32 42 32 92 c 2,0,-1
107 398 m 2,12,-1
 107 92 l 2,13,14
 107 75 107 75 118 63.5 c 128,-1,15
 129 52 129 52 145.5 52 c 128,-1,16
 162 52 162 52 173 63.5 c 128,-1,17
 184 75 184 75 184 92 c 2,18,-1
 184 398 l 2,19,20
 184 415 184 415 173 426.5 c 128,-1,21
 162 438 162 438 145.5 438 c 128,-1,22
 129 438 129 438 118 426.5 c 128,-1,23
 107 415 107 415 107 398 c 2,12,-1
73 552 m 1,24,25
 35 556 35 556 35 591 c 0,26,27
 35 595 35 595 36 600 c 0,28,29
 41 637 41 637 83 637 c 0,30,31
 89 637 89 637 96 636 c 2,32,-1
 187 623 l 1,33,34
 202 622 202 622 208.5 627 c 128,-1,35
 215 632 215 632 218 648 c 1,36,37
 237 647 237 647 246 635 c 128,-1,38
 255 623 255 623 255 613 c 0,39,40
 255 563 255 563 207 563 c 0,41,42
 201 563 201 563 194 564 c 2,43,-1
 104 578 l 1,44,45
 89 578 89 578 82.5 572.5 c 128,-1,46
 76 567 76 567 73 552 c 1,24,25
EndSplineSet
EndChar

StartChar: odieresis
Encoding: 246 246 184
Width: 291
GlyphClass: 2
Flags: W
LayerCount: 2
Fore
SplineSet
32 92 m 2,0,-1
 32 394 l 2,1,2
 32 444 32 444 63 472 c 128,-1,3
 94 500 94 500 147 500 c 128,-1,4
 200 500 200 500 229.5 474 c 128,-1,5
 259 448 259 448 259 398 c 2,6,-1
 259 96 l 2,7,8
 259 46 259 46 227.5 18 c 128,-1,9
 196 -10 196 -10 143 -10 c 128,-1,10
 90 -10 90 -10 61 16 c 128,-1,11
 32 42 32 42 32 92 c 2,0,-1
107 398 m 2,12,-1
 107 92 l 2,13,14
 107 75 107 75 118 63.5 c 128,-1,15
 129 52 129 52 145.5 52 c 128,-1,16
 162 52 162 52 173 63.5 c 128,-1,17
 184 75 184 75 184 92 c 2,18,-1
 184 398 l 2,19,20
 184 415 184 415 173 426.5 c 128,-1,21
 162 438 162 438 145.5 438 c 128,-1,22
 129 438 129 438 118 426.5 c 128,-1,23
 107 415 107 415 107 398 c 2,12,-1
46 598 m 128,-1,25
 46 655 46 655 89 655 c 128,-1,26
 132 655 132 655 132 598 c 128,-1,27
 132 541 132 541 89 541 c 128,-1,24
 46 541 46 541 46 598 c 128,-1,25
159 598 m 128,-1,29
 159 655 159 655 202 655 c 128,-1,30
 245 655 245 655 245 598 c 128,-1,31
 245 541 245 541 202 541 c 128,-1,28
 159 541 159 541 159 598 c 128,-1,29
EndSplineSet
EndChar

StartChar: divide
Encoding: 247 247 185
Width: 263
GlyphClass: 2
Flags: W
LayerCount: 2
Fore
SplineSet
75 274 m 2,0,1
 42 274 42 274 25 269 c 1,2,3
 18 295 18 295 18 314.5 c 128,-1,4
 18 334 18 334 31 334 c 2,5,-1
 189 334 l 1,6,-1
 241 339 l 1,7,8
 246 313 246 313 246 293.5 c 128,-1,9
 246 274 246 274 233 274 c 2,10,-1
 75 274 l 2,0,1
89 441 m 128,-1,12
 89 498 89 498 132 498 c 128,-1,13
 175 498 175 498 175 441 c 128,-1,14
 175 384 175 384 132 384 c 128,-1,11
 89 384 89 384 89 441 c 128,-1,12
89 167 m 128,-1,16
 89 224 89 224 132 224 c 128,-1,17
 175 224 175 224 175 167 c 128,-1,18
 175 110 175 110 132 110 c 128,-1,15
 89 110 89 110 89 167 c 128,-1,16
EndSplineSet
EndChar

StartChar: oslash
Encoding: 248 248 186
Width: 298
GlyphClass: 2
Flags: W
LayerCount: 2
Fore
SplineSet
279 530 m 0,0,1
 310 530 310 530 310 514 c 0,2,3
 310 511 310 511 308 507 c 2,4,-1
 261 413 l 1,5,6
 262 408 262 408 262 398 c 2,7,-1
 262 96 l 2,8,9
 262 46 262 46 230.5 18 c 128,-1,10
 199 -10 199 -10 146 -10 c 128,-1,11
 93 -10 93 -10 64 16 c 1,12,13
 55 -7 55 -7 46 -43 c 1,14,15
 35 -44 35 -44 22.5 -44 c 128,-1,16
 10 -44 10 -44 -0.5 -39 c 128,-1,17
 -11 -34 -11 -34 -11 -28.5 c 128,-1,18
 -11 -23 -11 -23 -9 -20 c 2,19,-1
 36 71 l 1,20,21
 35 77 35 77 35 92 c 2,22,-1
 35 394 l 2,23,24
 35 444 35 444 66 472 c 128,-1,25
 97 500 97 500 151.5 500 c 128,-1,26
 206 500 206 500 236 470 c 1,27,-1
 236 471 l 1,28,29
 247 499 247 499 253 528 c 1,30,31
 269 530 269 530 279 530 c 0,0,1
110 398 m 2,32,-1
 110 217 l 1,33,-1
 187 372 l 1,34,-1
 187 398 l 2,35,36
 187 415 187 415 176 426.5 c 128,-1,37
 165 438 165 438 148.5 438 c 128,-1,38
 132 438 132 438 121 426.5 c 128,-1,39
 110 415 110 415 110 398 c 2,32,-1
121 63.5 m 128,-1,41
 132 52 132 52 148.5 52 c 128,-1,42
 165 52 165 52 176 63.5 c 128,-1,43
 187 75 187 75 187 92 c 2,44,-1
 187 264 l 1,45,-1
 110 109 l 1,46,-1
 110 92 l 2,47,40
 110 75 110 75 121 63.5 c 128,-1,41
EndSplineSet
EndChar

StartChar: ugrave
Encoding: 249 249 187
Width: 312
GlyphClass: 2
Flags: W
LayerCount: 2
Fore
SplineSet
193 408 m 2,0,1
 193 457 193 457 186 490 c 1,2,3
 216 494 216 494 251 494 c 0,4,5
 268 494 268 494 268 479 c 2,6,-1
 268 83 l 2,7,8
 268 62 268 62 275.5 53 c 128,-1,9
 283 44 283 44 304 44 c 1,10,11
 305 18 305 18 290.5 4 c 128,-1,12
 276 -10 276 -10 249 -10 c 0,13,14
 209 -10 209 -10 198 21 c 1,15,16
 167 -10 167 -10 128 -10 c 128,-1,17
 89 -10 89 -10 65 16.5 c 128,-1,18
 41 43 41 43 41 92 c 2,19,-1
 41 407 l 2,20,21
 41 428 41 428 33.5 437 c 128,-1,22
 26 446 26 446 5 446 c 1,23,24
 4 471 4 471 19.5 485.5 c 128,-1,25
 35 500 35 500 63 500 c 128,-1,26
 91 500 91 500 103.5 484 c 128,-1,27
 116 468 116 468 116 431 c 2,28,-1
 116 93 l 2,29,30
 116 58 116 58 145 58 c 0,31,32
 160 58 160 58 173.5 69.5 c 128,-1,33
 187 81 187 81 193 94 c 1,34,-1
 193 408 l 2,0,1
190 560 m 2,35,36
 192 557 192 557 192 553 c 128,-1,37
 192 549 192 549 187 546 c 2,38,-1
 151 528 l 1,39,40
 144 541 144 541 133 558 c 2,41,-1
 75 643 l 2,42,43
 72 648 72 648 72 652 c 0,44,45
 72 659 72 659 97.5 669.5 c 128,-1,46
 123 680 123 680 133 683 c 2,47,-1
 143 686 l 1,48,49
 147 663 147 663 156 642 c 2,50,-1
 190 560 l 2,35,36
EndSplineSet
EndChar

StartChar: uacute
Encoding: 250 250 188
Width: 312
GlyphClass: 2
Flags: W
LayerCount: 2
Fore
SplineSet
116 93 m 2,0,1
 116 58 116 58 145 58 c 0,2,3
 160 58 160 58 173.5 69.5 c 128,-1,4
 187 81 187 81 193 94 c 1,5,-1
 193 408 l 2,6,7
 193 458 193 458 186 490 c 1,8,-1
 251 494 l 1,9,10
 268 494 268 494 268 479 c 2,11,-1
 268 83 l 2,12,13
 268 62 268 62 275.5 53 c 128,-1,14
 283 44 283 44 304 44 c 1,15,16
 305 18 305 18 290.5 4 c 128,-1,17
 276 -10 276 -10 249 -10 c 0,18,19
 209 -10 209 -10 198 21 c 1,20,21
 167 -10 167 -10 128 -10 c 128,-1,22
 89 -10 89 -10 65 16.5 c 128,-1,23
 41 43 41 43 41 92 c 2,24,-1
 41 407 l 2,25,26
 41 428 41 428 33.5 437 c 128,-1,27
 26 446 26 446 5 446 c 1,28,29
 4 471 4 471 19.5 485.5 c 128,-1,30
 35 500 35 500 63 500 c 128,-1,31
 91 500 91 500 103.5 484 c 128,-1,32
 116 468 116 468 116 431 c 2,33,-1
 116 93 l 2,0,1
172 686 m 1,34,35
 243 664 243 664 243 651 c 0,36,37
 243 648 243 648 240 643 c 2,38,-1
 182 558 l 1,39,-1
 164 528 l 1,40,41
 123 543 123 543 123 554 c 0,42,43
 123 557 123 557 125 560 c 2,44,-1
 159 642 l 1,45,-1
 172 686 l 1,34,35
EndSplineSet
EndChar

StartChar: ucircumflex
Encoding: 251 251 189
Width: 311
GlyphClass: 2
Flags: W
LayerCount: 2
Fore
SplineSet
115 93 m 2,0,1
 115 58 115 58 144 58 c 0,2,3
 159 58 159 58 172.5 69.5 c 128,-1,4
 186 81 186 81 192 94 c 1,5,-1
 192 408 l 2,6,7
 192 458 192 458 185 490 c 1,8,-1
 250 494 l 1,9,10
 267 494 267 494 267 479 c 2,11,-1
 267 83 l 2,12,13
 267 62 267 62 274.5 53 c 128,-1,14
 282 44 282 44 303 44 c 1,15,16
 304 18 304 18 289.5 4 c 128,-1,17
 275 -10 275 -10 248 -10 c 0,18,19
 208 -10 208 -10 197 21 c 1,20,21
 166 -10 166 -10 127 -10 c 128,-1,22
 88 -10 88 -10 64 16.5 c 128,-1,23
 40 43 40 43 40 92 c 2,24,-1
 40 407 l 2,25,26
 40 428 40 428 32.5 437 c 128,-1,27
 25 446 25 446 4 446 c 1,28,29
 3 471 3 471 18.5 485.5 c 128,-1,30
 34 500 34 500 62 500 c 128,-1,31
 90 500 90 500 102.5 484 c 128,-1,32
 115 468 115 468 115 431 c 2,33,-1
 115 93 l 2,0,1
95 528 m 1,34,35
 53 543 53 543 53 554 c 0,36,37
 53 557 53 557 55 560 c 2,38,-1
 99 642 l 1,39,-1
 114 676 l 1,40,41
 124 684 124 684 151 684 c 128,-1,42
 178 684 178 684 192 677 c 1,43,44
 197 662 197 662 208 642 c 2,45,-1
 252 560 l 2,46,47
 254 557 254 557 254 553 c 128,-1,48
 254 549 254 549 249 546 c 2,49,-1
 212 528 l 1,50,51
 207 541 207 541 195 558 c 2,52,-1
 153 618 l 1,53,-1
 112 558 l 1,54,-1
 95 528 l 1,34,35
EndSplineSet
EndChar

StartChar: udieresis
Encoding: 252 252 190
Width: 312
GlyphClass: 2
Flags: W
LayerCount: 2
Fore
SplineSet
193 408 m 2,0,1
 193 457 193 457 186 490 c 1,2,3
 216 494 216 494 251 494 c 0,4,5
 268 494 268 494 268 479 c 2,6,-1
 268 83 l 2,7,8
 268 62 268 62 275.5 53 c 128,-1,9
 283 44 283 44 304 44 c 1,10,11
 305 18 305 18 290.5 4 c 128,-1,12
 276 -10 276 -10 249 -10 c 0,13,14
 209 -10 209 -10 198 21 c 1,15,16
 167 -10 167 -10 128 -10 c 128,-1,17
 89 -10 89 -10 65 16.5 c 128,-1,18
 41 43 41 43 41 92 c 2,19,-1
 41 407 l 2,20,21
 41 428 41 428 33.5 437 c 128,-1,22
 26 446 26 446 5 446 c 1,23,24
 4 471 4 471 19.5 485.5 c 128,-1,25
 35 500 35 500 63 500 c 128,-1,26
 91 500 91 500 103.5 484 c 128,-1,27
 116 468 116 468 116 431 c 2,28,-1
 116 93 l 2,29,30
 116 58 116 58 145 58 c 0,31,32
 160 58 160 58 173.5 69.5 c 128,-1,33
 187 81 187 81 193 94 c 1,34,-1
 193 408 l 2,0,1
54 598 m 128,-1,36
 54 655 54 655 97 655 c 128,-1,37
 140 655 140 655 140 598 c 128,-1,38
 140 541 140 541 97 541 c 128,-1,35
 54 541 54 541 54 598 c 128,-1,36
167 598 m 128,-1,40
 167 655 167 655 210 655 c 128,-1,41
 253 655 253 655 253 598 c 128,-1,42
 253 541 253 541 210 541 c 128,-1,39
 167 541 167 541 167 598 c 128,-1,40
EndSplineSet
EndChar

StartChar: yacute
Encoding: 253 253 191
Width: 304
GlyphClass: 2
Flags: W
LayerCount: 2
Fore
SplineSet
193 -63 m 2,0,-1
 193 36 l 1,1,2
 168 11 168 11 128.5 11 c 128,-1,3
 89 11 89 11 65 36.5 c 128,-1,4
 41 62 41 62 41 111 c 2,5,-1
 41 407 l 2,6,7
 41 428 41 428 33.5 437 c 128,-1,8
 26 446 26 446 5 446 c 1,9,10
 4 471 4 471 19.5 485.5 c 128,-1,11
 35 500 35 500 63 500 c 128,-1,12
 91 500 91 500 103.5 484 c 128,-1,13
 116 468 116 468 116 431 c 2,14,-1
 116 112 l 2,15,16
 116 79 116 79 142 79 c 0,17,18
 156 79 156 79 171 88.5 c 128,-1,19
 186 98 186 98 193 110 c 1,20,-1
 193 408 l 2,21,22
 193 458 193 458 186 490 c 1,23,-1
 251 494 l 1,24,25
 268 494 268 494 268 479 c 2,26,-1
 268 -71 l 2,27,28
 268 -116 268 -116 236.5 -139 c 128,-1,29
 205 -162 205 -162 152 -162 c 128,-1,30
 99 -162 99 -162 70 -142 c 128,-1,31
 41 -122 41 -122 41 -87 c 2,32,-1
 41 -50 l 2,33,34
 41 -33 41 -33 65 -26 c 0,35,36
 77 -23 77 -23 90.5 -23 c 128,-1,37
 104 -23 104 -23 117 -26 c 1,38,-1
 114 -68 l 1,39,-1
 114 -73 l 2,40,41
 114 -98 114 -98 153.5 -98 c 128,-1,42
 193 -98 193 -98 193 -63 c 2,0,-1
162 686 m 1,43,44
 233 664 233 664 233 651 c 0,45,46
 233 648 233 648 230 643 c 2,47,-1
 172 558 l 1,48,-1
 154 528 l 1,49,50
 113 543 113 543 113 554 c 0,51,52
 113 557 113 557 115 560 c 2,53,-1
 149 642 l 1,54,-1
 162 686 l 1,43,44
EndSplineSet
EndChar

StartChar: thorn
Encoding: 254 254 192
Width: 295
GlyphClass: 2
Flags: W
LayerCount: 2
Fore
SplineSet
36 620 m 2,0,1
 36 650 36 650 27 681 c 1,2,3
 57 697 57 697 91 697 c 0,4,5
 111 697 111 697 111 682 c 2,6,-1
 111 474 l 1,7,8
 142 500 142 500 175 500 c 0,9,10
 263 500 263 500 263 398 c 2,11,-1
 263 106 l 2,12,13
 263 56 263 56 232 28 c 128,-1,14
 201 0 201 0 148 0 c 2,15,-1
 111 0 l 1,16,-1
 111 -80 l 1,17,-1
 118 -146 l 1,18,19
 91 -157 91 -157 56 -157 c 0,20,21
 36 -157 36 -157 36 -142 c 2,22,-1
 36 620 l 2,0,1
111 64 m 1,23,-1
 150 64 l 2,24,25
 167 64 167 64 177.5 74.5 c 128,-1,26
 188 85 188 85 188 102 c 2,27,-1
 188 397 l 2,28,29
 188 431 188 431 158 431 c 128,-1,30
 128 431 128 431 111 400 c 1,31,-1
 111 64 l 1,23,-1
EndSplineSet
EndChar

StartChar: ydieresis
Encoding: 255 255 193
Width: 304
GlyphClass: 2
Flags: W
LayerCount: 2
Fore
SplineSet
193 408 m 2,0,1
 193 457 193 457 186 490 c 1,2,3
 216 494 216 494 251 494 c 0,4,5
 268 494 268 494 268 479 c 2,6,-1
 268 -71 l 2,7,8
 268 -116 268 -116 236.5 -139 c 128,-1,9
 205 -162 205 -162 152 -162 c 128,-1,10
 99 -162 99 -162 70 -142 c 128,-1,11
 41 -122 41 -122 41 -87 c 2,12,-1
 41 -50 l 2,13,14
 41 -33 41 -33 65 -26 c 0,15,16
 77 -23 77 -23 90.5 -23 c 128,-1,17
 104 -23 104 -23 117 -26 c 1,18,19
 114 -50 114 -50 114 -68 c 2,20,-1
 114 -73 l 2,21,22
 114 -98 114 -98 153.5 -98 c 128,-1,23
 193 -98 193 -98 193 -63 c 2,24,-1
 193 36 l 1,25,26
 168 11 168 11 128.5 11 c 128,-1,27
 89 11 89 11 65 36.5 c 128,-1,28
 41 62 41 62 41 111 c 2,29,-1
 41 407 l 2,30,31
 41 428 41 428 33.5 437 c 128,-1,32
 26 446 26 446 5 446 c 1,33,34
 4 471 4 471 19.5 485.5 c 128,-1,35
 35 500 35 500 63 500 c 128,-1,36
 91 500 91 500 103.5 484 c 128,-1,37
 116 468 116 468 116 431 c 2,38,-1
 116 112 l 2,39,40
 116 79 116 79 142 79 c 0,41,42
 156 79 156 79 171 88.5 c 128,-1,43
 186 98 186 98 193 110 c 1,44,-1
 193 408 l 2,0,1
44 598 m 128,-1,46
 44 655 44 655 87 655 c 128,-1,47
 130 655 130 655 130 598 c 128,-1,48
 130 541 130 541 87 541 c 128,-1,45
 44 541 44 541 44 598 c 128,-1,46
157 598 m 128,-1,50
 157 655 157 655 200 655 c 128,-1,51
 243 655 243 655 243 598 c 128,-1,52
 243 541 243 541 200 541 c 128,-1,49
 157 541 157 541 157 598 c 128,-1,50
EndSplineSet
EndChar

StartChar: dotlessi
Encoding: 305 305 194
Width: 163
GlyphClass: 2
Flags: W
LayerCount: 2
Fore
SplineSet
19 490 m 2,0,-1
 119 490 l 1,1,-1
 119 83 l 2,2,3
 119 62 119 62 126.5 53 c 128,-1,4
 134 44 134 44 155 44 c 1,5,6
 156 18 156 18 141.5 4 c 128,-1,7
 127 -10 127 -10 99 -10 c 128,-1,8
 71 -10 71 -10 57.5 7 c 128,-1,9
 44 24 44 24 44 63 c 2,10,-1
 44 430 l 1,11,-1
 13 425 l 1,12,13
 6 451 6 451 6 470.5 c 128,-1,14
 6 490 6 490 19 490 c 2,0,-1
EndSplineSet
EndChar

StartChar: OE
Encoding: 338 338 195
Width: 479
GlyphClass: 2
Flags: W
LayerCount: 2
Fore
SplineSet
342 335 m 2,0,1
 368 335 368 335 396 340 c 1,2,3
 404 312 404 312 404 285 c 0,4,5
 404 269 404 269 390 269 c 2,6,-1
 284 269 l 1,7,-1
 284 96 l 2,8,9
 284 77 284 77 296.5 66.5 c 128,-1,10
 309 56 309 56 330 56 c 128,-1,11
 351 56 351 56 364 66.5 c 128,-1,12
 377 77 377 77 377 96 c 2,13,-1
 377 121 l 1,14,-1
 374 172 l 1,15,16
 388 175 388 175 402 175 c 128,-1,17
 416 175 416 175 430 171 c 0,18,19
 456 164 456 164 456 146 c 2,20,-1
 456 82 l 2,21,22
 456 41 456 41 422 15.5 c 128,-1,23
 388 -10 388 -10 332.5 -10 c 128,-1,24
 277 -10 277 -10 244 18 c 1,25,26
 209 -10 209 -10 153 -10 c 128,-1,27
 97 -10 97 -10 65 16 c 128,-1,28
 33 42 33 42 33 92 c 2,29,-1
 33 554 l 2,30,31
 33 604 33 604 67 632 c 128,-1,32
 101 660 101 660 156.5 660 c 128,-1,33
 212 660 212 660 246 634 c 1,34,35
 278 660 278 660 332 660 c 128,-1,36
 386 660 386 660 419 634.5 c 128,-1,37
 452 609 452 609 452 568 c 2,38,-1
 452 484 l 2,39,40
 452 466 452 466 426 459 c 0,41,42
 412 455 412 455 398 455 c 128,-1,43
 384 455 384 455 370 458 c 1,44,45
 373 482 373 482 373 509 c 2,46,-1
 373 554 l 2,47,48
 373 594 373 594 329 594 c 0,49,50
 309 594 309 594 296.5 584 c 128,-1,51
 284 574 284 574 284 557 c 2,52,-1
 284 335 l 1,53,-1
 342 335 l 2,0,1
112 554 m 2,54,-1
 112 96 l 2,55,56
 112 78 112 78 124.5 67 c 128,-1,57
 137 56 137 56 158 56 c 128,-1,58
 179 56 179 56 192 66.5 c 128,-1,59
 205 77 205 77 205 96 c 2,60,-1
 205 554 l 2,61,62
 205 573 205 573 192 583.5 c 128,-1,63
 179 594 179 594 158 594 c 128,-1,64
 137 594 137 594 124.5 583.5 c 128,-1,65
 112 573 112 573 112 554 c 2,54,-1
EndSplineSet
EndChar

StartChar: oe
Encoding: 339 339 196
Width: 437
GlyphClass: 2
Flags: W
LayerCount: 2
Fore
SplineSet
32 92 m 2,0,-1
 32 394 l 2,1,2
 32 444 32 444 63 472 c 128,-1,3
 94 500 94 500 142.5 500 c 128,-1,4
 191 500 191 500 220 473 c 1,5,6
 243 500 243 500 300 500 c 0,7,8
 415 500 415 500 415 390 c 0,9,10
 415 346 415 346 399 309 c 128,-1,11
 383 272 383 272 355 253 c 2,12,-1
 259 187 l 1,13,-1
 259 91 l 1,14,15
 260 54 260 54 299 54 c 128,-1,16
 338 54 338 54 338 101 c 2,17,-1
 338 124 l 1,18,-1
 335 171 l 1,19,20
 348 174 348 174 361.5 174 c 128,-1,21
 375 174 375 174 387 170 c 0,22,23
 411 164 411 164 411 147 c 2,24,-1
 411 75 l 2,25,26
 411 35 411 35 379.5 12.5 c 128,-1,27
 348 -10 348 -10 297 -10 c 128,-1,28
 246 -10 246 -10 217 17 c 1,29,30
 188 -10 188 -10 139 -10 c 128,-1,31
 90 -10 90 -10 61 16 c 128,-1,32
 32 42 32 42 32 92 c 2,0,-1
184 88 m 2,33,-1
 184 398 l 2,34,35
 184 415 184 415 173 426.5 c 128,-1,36
 162 438 162 438 145.5 438 c 128,-1,37
 129 438 129 438 118 426.5 c 128,-1,38
 107 415 107 415 107 398 c 2,39,-1
 107 92 l 2,40,41
 107 75 107 75 118 63.5 c 128,-1,42
 129 52 129 52 145 52 c 128,-1,43
 161 52 161 52 172.5 62.5 c 128,-1,44
 184 73 184 73 184 88 c 2,33,-1
338 393 m 0,45,46
 338 413 338 413 326 424.5 c 128,-1,47
 314 436 314 436 296 436 c 0,48,49
 259 436 259 436 259 405 c 2,50,-1
 259 262 l 1,51,-1
 307 298 l 2,52,53
 338 321 338 321 338 393 c 0,45,46
EndSplineSet
EndChar

StartChar: Scaron
Encoding: 352 352 197
Width: 314
GlyphClass: 2
Flags: W
LayerCount: 2
Fore
SplineSet
31 419 m 2,0,-1
 31 554 l 2,1,2
 31 604 31 604 65 632 c 128,-1,3
 99 660 99 660 156.5 660 c 128,-1,4
 214 660 214 660 248 634.5 c 128,-1,5
 282 609 282 609 282 568 c 2,6,-1
 282 444 l 2,7,8
 282 426 282 426 256 419 c 0,9,10
 242 415 242 415 228 415 c 128,-1,11
 214 415 214 415 200 418 c 1,12,13
 203 442 203 442 203 469 c 2,14,-1
 203 554 l 2,15,16
 203 573 203 573 190 583.5 c 128,-1,17
 177 594 177 594 156 594 c 128,-1,18
 135 594 135 594 122.5 583.5 c 128,-1,19
 110 573 110 573 110 554 c 2,20,-1
 110 437 l 2,21,22
 110 402 110 402 133 388 c 2,23,-1
 239 320 l 2,24,25
 284 292 284 292 284 234 c 2,26,-1
 284 96 l 2,27,28
 284 46 284 46 249 18 c 128,-1,29
 214 -10 214 -10 156.5 -10 c 128,-1,30
 99 -10 99 -10 64 15.5 c 128,-1,31
 29 41 29 41 29 82 c 2,32,-1
 29 206 l 2,33,34
 29 224 29 224 55 231 c 0,35,36
 69 235 69 235 83 235 c 128,-1,37
 97 235 97 235 111 232 c 1,38,39
 108 208 108 208 108 181 c 2,40,-1
 108 96 l 2,41,42
 108 78 108 78 122 67 c 128,-1,43
 136 56 136 56 157 56 c 128,-1,44
 178 56 178 56 191.5 67 c 128,-1,45
 205 78 205 78 205 96 c 2,46,-1
 205 209 l 2,47,48
 205 248 205 248 178 265 c 2,49,-1
 72 334 l 2,50,51
 31 360 31 360 31 419 c 2,0,-1
218 844 m 1,52,53
 260 829 260 829 260 818 c 0,54,55
 260 815 260 815 258 812 c 2,56,-1
 214 730 l 1,57,-1
 198 695 l 1,58,59
 184 688 184 688 157 688 c 128,-1,60
 130 688 130 688 120 696 c 1,61,62
 115 712 115 712 105 730 c 2,63,-1
 61 812 l 2,64,65
 59 815 59 815 59 819 c 128,-1,66
 59 823 59 823 64 826 c 2,67,-1
 101 844 l 1,68,69
 107 830 107 830 118 814 c 2,70,-1
 159 754 l 1,71,-1
 201 814 l 1,72,-1
 218 844 l 1,52,53
EndSplineSet
EndChar

StartChar: scaron
Encoding: 353 353 198
Width: 279
GlyphClass: 2
Flags: W
LayerCount: 2
Fore
SplineSet
98 99 m 2,0,1
 98 54 98 54 138.5 54 c 128,-1,2
 179 54 179 54 179 103 c 2,3,-1
 179 144 l 2,4,5
 179 181 179 181 153 197 c 2,6,-1
 65 250 l 2,7,8
 26 274 26 274 26 331 c 2,9,-1
 26 401 l 2,10,11
 26 445 26 445 54.5 472.5 c 128,-1,12
 83 500 83 500 138.5 500 c 128,-1,13
 194 500 194 500 223 477 c 128,-1,14
 252 454 252 454 252 414 c 2,15,-1
 252 351 l 2,16,17
 252 334 252 334 228 328 c 0,18,19
 216 324 216 324 202.5 324 c 128,-1,20
 189 324 189 324 176 327 c 1,21,22
 179 349 179 349 179 374 c 2,23,-1
 179 389 l 2,24,25
 179 436 179 436 141 436 c 0,26,27
 101 436 101 436 101 394 c 2,28,-1
 101 348 l 2,29,30
 101 313 101 313 123 301 c 2,31,-1
 211 250 l 2,32,33
 254 226 254 226 254 168 c 2,34,-1
 254 93 l 2,35,36
 254 45 254 45 225.5 17.5 c 128,-1,37
 197 -10 197 -10 142 -10 c 128,-1,38
 87 -10 87 -10 56 12 c 128,-1,39
 25 34 25 34 25 75 c 2,40,-1
 25 141 l 2,41,42
 25 158 25 158 49 164 c 0,43,44
 61 168 61 168 74.5 168 c 128,-1,45
 88 168 88 168 101 165 c 1,46,47
 98 143 98 143 98 118 c 2,48,-1
 98 99 l 2,0,1
199 684 m 1,49,50
 241 669 241 669 241 658 c 0,51,52
 241 655 241 655 239 652 c 2,53,-1
 195 570 l 1,54,-1
 179 535 l 1,55,56
 165 528 165 528 138 528 c 128,-1,57
 111 528 111 528 101 536 c 1,58,59
 96 552 96 552 86 570 c 2,60,-1
 42 652 l 2,61,62
 40 655 40 655 40 659 c 128,-1,63
 40 663 40 663 45 666 c 2,64,-1
 82 684 l 1,65,66
 88 670 88 670 99 654 c 2,67,-1
 140 594 l 1,68,-1
 182 654 l 1,69,-1
 199 684 l 1,49,50
EndSplineSet
EndChar

StartChar: Ydieresis
Encoding: 376 376 199
Width: 330
GlyphClass: 2
Flags: W
LayerCount: 2
Fore
SplineSet
215 568 m 2,0,1
 215 617 215 617 208 650 c 1,2,3
 242 654 242 654 277 654 c 0,4,5
 294 654 294 654 294 639 c 2,6,-1
 294 96 l 2,7,8
 294 46 294 46 260 18 c 128,-1,9
 226 -10 226 -10 168.5 -10 c 128,-1,10
 111 -10 111 -10 77 15.5 c 128,-1,11
 43 41 43 41 43 82 c 2,12,-1
 43 150 l 2,13,14
 43 168 43 168 69 175 c 0,15,16
 83 179 83 179 97 179 c 128,-1,17
 111 179 111 179 125 176 c 1,18,19
 122 152 122 152 122 125 c 2,20,-1
 122 96 l 2,21,22
 122 77 122 77 135 66.5 c 128,-1,23
 148 56 148 56 169 56 c 128,-1,24
 190 56 190 56 202.5 66.5 c 128,-1,25
 215 77 215 77 215 96 c 2,26,-1
 215 252 l 1,27,28
 189 226 189 226 145 226 c 0,29,30
 43 226 43 226 43 322 c 2,31,-1
 43 565 l 2,32,33
 43 586 43 586 34.5 594.5 c 128,-1,34
 26 603 26 603 5 603 c 1,35,36
 5 660 5 660 69 660 c 0,37,38
 122 660 122 660 122 591 c 2,39,-1
 122 328 l 2,40,41
 122 292 122 292 158.5 292 c 128,-1,42
 195 292 195 292 215 327 c 1,43,-1
 215 568 l 2,0,1
68 758 m 128,-1,45
 68 815 68 815 111 815 c 128,-1,46
 154 815 154 815 154 758 c 128,-1,47
 154 701 154 701 111 701 c 128,-1,44
 68 701 68 701 68 758 c 128,-1,45
181 758 m 128,-1,49
 181 815 181 815 224 815 c 128,-1,50
 267 815 267 815 267 758 c 128,-1,51
 267 701 267 701 224 701 c 128,-1,48
 181 701 181 701 181 758 c 128,-1,49
EndSplineSet
EndChar

StartChar: Zcaron
Encoding: 381 381 200
Width: 285
GlyphClass: 2
Flags: W
LayerCount: 2
Fore
SplineSet
197 66 m 2,0,1
 235 66 235 66 261 72 c 1,2,3
 267 52 267 52 267 20 c 0,4,5
 267 0 267 0 251 0 c 2,6,-1
 22 0 l 1,7,8
 17 28 17 28 17 59 c 128,-1,9
 17 90 17 90 26 139 c 128,-1,10
 35 188 35 188 61 245.5 c 128,-1,11
 87 303 87 303 114 358 c 0,12,13
 181 496 181 496 181 584 c 1,14,-1
 93 584 l 2,15,16
 55 584 55 584 31 578 c 1,17,18
 22 598 22 598 22 630 c 0,19,20
 22 650 22 650 38 650 c 2,21,-1
 262 650 l 1,22,23
 266 624 266 624 266 584.5 c 128,-1,24
 266 545 266 545 247.5 475 c 128,-1,25
 229 405 229 405 196 342 c 0,26,27
 105 167 105 167 102 66 c 1,28,-1
 197 66 l 2,0,1
200 844 m 1,29,30
 242 829 242 829 242 818 c 0,31,32
 242 815 242 815 240 812 c 2,33,-1
 196 730 l 1,34,-1
 180 695 l 1,35,36
 166 688 166 688 139 688 c 128,-1,37
 112 688 112 688 102 696 c 1,38,39
 97 712 97 712 87 730 c 2,40,-1
 43 812 l 2,41,42
 41 815 41 815 41 819 c 128,-1,43
 41 823 41 823 46 826 c 2,44,-1
 83 844 l 1,45,46
 89 830 89 830 100 814 c 2,47,-1
 141 754 l 1,48,-1
 183 814 l 1,49,-1
 200 844 l 1,29,30
EndSplineSet
EndChar

StartChar: zcaron
Encoding: 382 382 201
Width: 254
GlyphClass: 2
Flags: W
LayerCount: 2
Fore
SplineSet
77 430 m 2,0,1
 44 430 44 430 27 425 c 1,2,3
 20 451 20 451 20 470.5 c 128,-1,4
 20 490 20 490 33 490 c 2,5,-1
 232 490 l 1,6,7
 237 470 237 470 237 442.5 c 128,-1,8
 237 415 237 415 222.5 365.5 c 128,-1,9
 208 316 208 316 180 267 c 0,10,11
 100 131 100 131 97 60 c 1,12,-1
 179 60 l 1,13,-1
 231 65 l 1,14,15
 236 39 236 39 236 19.5 c 128,-1,16
 236 0 236 0 223 0 c 2,17,-1
 20 0 l 1,18,19
 15 19 15 19 15 46 c 128,-1,20
 15 73 15 73 30 122.5 c 128,-1,21
 45 172 45 172 74 221 c 0,22,23
 154 356 154 356 154 430 c 1,24,-1
 77 430 l 2,0,1
192 684 m 1,25,26
 234 669 234 669 234 658 c 0,27,28
 234 655 234 655 232 652 c 2,29,-1
 188 570 l 1,30,-1
 172 535 l 1,31,32
 158 528 158 528 131 528 c 128,-1,33
 104 528 104 528 94 536 c 1,34,35
 89 552 89 552 79 570 c 2,36,-1
 35 652 l 2,37,38
 33 655 33 655 33 659 c 128,-1,39
 33 663 33 663 38 666 c 2,40,-1
 75 684 l 1,41,42
 81 670 81 670 92 654 c 2,43,-1
 133 594 l 1,44,-1
 175 654 l 1,45,-1
 192 684 l 1,25,26
EndSplineSet
EndChar

StartChar: florin
Encoding: 402 402 202
Width: 514
GlyphClass: 2
Flags: W
LayerCount: 2
Fore
SplineSet
101 -20 m 1,0,1
 87 -63 87 -63 87 -79 c 0,2,3
 87 -98 87 -98 116 -98 c 128,-1,4
 145 -98 145 -98 153 -63 c 1,5,-1
 243 410 l 1,6,-1
 211 405 l 1,7,8
 210 414 210 414 210 426.5 c 128,-1,9
 210 439 210 439 213 455 c 0,10,11
 216 470 216 470 229 470 c 2,12,-1
 254 470 l 1,13,-1
 279 601 l 2,14,15
 288 646 288 646 320 673 c 128,-1,16
 352 700 352 700 404 700 c 128,-1,17
 456 700 456 700 479 680 c 128,-1,18
 502 660 502 660 502 631 c 0,19,20
 502 623 502 623 501 615 c 2,21,-1
 491 564 l 2,22,23
 486 537 486 537 436 537 c 0,24,25
 423 537 423 537 411 540 c 1,26,27
 426 586 426 586 426 602.5 c 128,-1,28
 426 619 426 619 421 627.5 c 128,-1,29
 416 636 416 636 395.5 636 c 128,-1,30
 375 636 375 636 366 625.5 c 128,-1,31
 357 615 357 615 352 591 c 2,32,-1
 329 470 l 1,33,-1
 379 470 l 1,34,-1
 432 475 l 1,35,36
 432 449 432 449 429 429.5 c 128,-1,37
 426 410 426 410 412 410 c 2,38,-1
 318 410 l 1,39,-1
 225 -71 l 2,40,41
 216 -116 216 -116 183 -139 c 128,-1,42
 150 -162 150 -162 103 -162 c 0,43,44
 11 -162 11 -162 11 -101 c 0,45,46
 11 -94 11 -94 12 -86 c 2,47,-1
 20 -44 l 2,48,49
 26 -17 26 -17 76 -17 c 0,50,51
 88 -17 88 -17 101 -20 c 1,0,1
EndSplineSet
EndChar

StartChar: circumflex
Encoding: 710 710 203
Width: 331
GlyphClass: 2
Flags: W
LayerCount: 2
Fore
SplineSet
148 528 m 1,0,1
 106 543 106 543 106 554 c 0,2,3
 106 557 106 557 108 560 c 2,4,-1
 152 642 l 1,5,-1
 167 676 l 1,6,7
 177 684 177 684 204 684 c 128,-1,8
 231 684 231 684 245 677 c 1,9,10
 250 662 250 662 261 642 c 2,11,-1
 305 560 l 2,12,13
 307 557 307 557 307 553 c 128,-1,14
 307 549 307 549 302 546 c 2,15,-1
 265 528 l 1,16,17
 260 541 260 541 248 558 c 2,18,-1
 206 618 l 1,19,-1
 165 558 l 1,20,-1
 148 528 l 1,0,1
EndSplineSet
EndChar

StartChar: caron
Encoding: 711 711 204
Width: 331
GlyphClass: 2
Flags: W
LayerCount: 2
Fore
SplineSet
265 684 m 1,0,1
 307 669 307 669 307 658 c 0,2,3
 307 655 307 655 305 652 c 2,4,-1
 261 570 l 1,5,-1
 245 535 l 1,6,7
 231 528 231 528 204 528 c 128,-1,8
 177 528 177 528 167 536 c 1,9,10
 162 552 162 552 152 570 c 2,11,-1
 108 652 l 2,12,13
 106 655 106 655 106 659 c 128,-1,14
 106 663 106 663 111 666 c 2,15,-1
 148 684 l 1,16,17
 154 670 154 670 165 654 c 2,18,-1
 206 594 l 1,19,-1
 248 654 l 1,20,-1
 265 684 l 1,0,1
EndSplineSet
EndChar

StartChar: dotaccent
Encoding: 729 729 205
Width: 130
GlyphClass: 2
Flags: W
LayerCount: 2
Fore
SplineSet
24 605 m 128,-1,1
 24 662 24 662 67 662 c 128,-1,2
 110 662 110 662 110 605 c 128,-1,3
 110 548 110 548 67 548 c 128,-1,0
 24 548 24 548 24 605 c 128,-1,1
EndSplineSet
EndChar

StartChar: ring
Encoding: 730 730 206
Width: 271
GlyphClass: 2
Flags: W
LayerCount: 2
Fore
SplineSet
53 614 m 2,0,-1
 53 648 l 2,1,2
 53 707 53 707 136 707 c 128,-1,3
 219 707 219 707 219 650 c 2,4,-1
 219 616 l 2,5,6
 219 557 219 557 136 557 c 128,-1,7
 53 557 53 557 53 614 c 2,0,-1
99 646 m 2,8,-1
 99 618 l 2,9,10
 99 594 99 594 136 594 c 128,-1,11
 173 594 173 594 173 618 c 2,12,-1
 173 646 l 2,13,14
 173 670 173 670 136 670 c 128,-1,15
 99 670 99 670 99 646 c 2,8,-1
EndSplineSet
EndChar

StartChar: tilde
Encoding: 732 732 207
Width: 307
GlyphClass: 2
Flags: W
LayerCount: 2
Fore
SplineSet
77 552 m 1,0,1
 39 556 39 556 39 591 c 0,2,3
 39 595 39 595 40 600 c 0,4,5
 45 637 45 637 87 637 c 0,6,7
 93 637 93 637 100 636 c 2,8,-1
 191 623 l 1,9,10
 206 622 206 622 212.5 627 c 128,-1,11
 219 632 219 632 222 648 c 1,12,13
 241 647 241 647 250 635 c 128,-1,14
 259 623 259 623 259 613 c 0,15,16
 259 563 259 563 211 563 c 0,17,18
 205 563 205 563 198 564 c 2,19,-1
 108 578 l 1,20,21
 93 578 93 578 86.5 572.5 c 128,-1,22
 80 567 80 567 77 552 c 1,0,1
EndSplineSet
EndChar

StartChar: hungarumlaut
Encoding: 733 733 208
Width: 321
GlyphClass: 2
Flags: W
LayerCount: 2
Fore
SplineSet
168 671 m 0,0,1
 168 637 168 637 112 591 c 128,-1,2
 56 545 56 545 22 545 c 0,3,4
 13 545 13 545 0 553 c 1,5,6
 54 600 54 600 85 671 c 0,7,8
 97 697 97 697 132.5 697 c 128,-1,9
 168 697 168 697 168 671 c 0,0,1
301 671 m 0,10,11
 301 637 301 637 245 591 c 128,-1,12
 189 545 189 545 155 545 c 0,13,14
 146 545 146 545 133 553 c 1,15,16
 187 600 187 600 218 671 c 0,17,18
 230 697 230 697 265.5 697 c 128,-1,19
 301 697 301 697 301 671 c 0,10,11
EndSplineSet
EndChar

StartChar: endash
Encoding: 8211 8211 209
Width: 288
GlyphClass: 2
Flags: W
LayerCount: 2
Fore
SplineSet
87 274 m 2,0,1
 54 274 54 274 37 269 c 1,2,3
 30 295 30 295 30 314.5 c 128,-1,4
 30 334 30 334 43 334 c 2,5,-1
 201 334 l 1,6,-1
 253 339 l 1,7,8
 258 313 258 313 258 293.5 c 128,-1,9
 258 274 258 274 245 274 c 2,10,-1
 87 274 l 2,0,1
EndSplineSet
EndChar

StartChar: emdash
Encoding: 8212 8212 210
Width: 468
GlyphClass: 2
Flags: W
LayerCount: 2
Fore
SplineSet
87 274 m 2,0,1
 54 274 54 274 37 269 c 1,2,3
 30 295 30 295 30 314.5 c 128,-1,4
 30 334 30 334 43 334 c 2,5,-1
 381 334 l 1,6,-1
 433 339 l 1,7,8
 438 313 438 313 438 293.5 c 128,-1,9
 438 274 438 274 425 274 c 2,10,-1
 87 274 l 2,0,1
EndSplineSet
EndChar

